<svg version="1.1" viewBox="0.0 0.0 960.0 540.0" fill="none" stroke="none" stroke-linecap="square" stroke-miterlimit="10" xmlns:xlink="http://www.w3.org/1999/xlink" xmlns="http://www.w3.org/2000/svg"><clipPath id="p.0"><path d="m0 0l960.0 0l0 540.0l-960.0 0l0 -540.0z" clip-rule="nonzero"/></clipPath><g clip-path="url(#p.0)"><path fill="#ffffff" d="m0 0l960.0 0l0 540.0l-960.0 0z" fill-rule="evenodd"/><path fill="#000000" fill-opacity="0.0" d="m390.90027 126.068245l30.456696 0l0 38.771645l-30.456696 0z" fill-rule="evenodd"/><path fill="#ff0000" d="m408.6659 150.42824l-2.046875 0l0 -1.21875q-0.5 0.703125 -1.203125 1.0625q-0.6875 0.34375 -1.390625 0.34375q-1.421875 0 -2.453125 -1.15625q-1.015625 -1.15625 -1.015625 -3.21875q0 -2.109375 0.984375 -3.203125q1.0 -1.09375 2.515625 -1.09375q1.390625 0 2.40625 1.15625l0 -4.125l2.203125 0l0 11.453125zm-5.859375 -4.328125q0 1.328125 0.359375 1.921875q0.53125 0.859375 1.484375 0.859375q0.765625 0 1.296875 -0.640625q0.53125 -0.65625 0.53125 -1.9375q0 -1.421875 -0.515625 -2.046875q-0.515625 -0.640625 -1.328125 -0.640625q-0.78125 0 -1.3125 0.625q-0.515625 0.625 -0.515625 1.859375z" fill-rule="nonzero"/><path fill="#000000" fill-opacity="0.0" d="m470.90027 126.068245l30.456696 0l0 38.771645l-30.456696 0z" fill-rule="evenodd"/><path fill="#1155cc" d="m480.5409 146.16261q0 -1.09375 0.53125 -2.109375q0.546875 -1.03125 1.53125 -1.5625q1.0 -0.546875 2.21875 -0.546875q1.875 0 3.078125 1.21875q1.203125 1.21875 1.203125 3.09375q0 1.875 -1.21875 3.125q-1.203125 1.234375 -3.046875 1.234375q-1.140625 0 -2.1875 -0.515625q-1.03125 -0.515625 -1.578125 -1.515625q-0.53125 -1.0 -0.53125 -2.421875zm2.25 0.109375q0 1.234375 0.578125 1.890625q0.59375 0.65625 1.453125 0.65625q0.859375 0 1.4375 -0.65625q0.59375 -0.65625 0.59375 -1.90625q0 -1.21875 -0.59375 -1.875q-0.578125 -0.65625 -1.4375 -0.65625q-0.859375 0 -1.453125 0.65625q-0.578125 0.65625 -0.578125 1.890625z" fill-rule="nonzero"/><path fill="#000000" fill-opacity="0.0" d="m550.90027 126.068245l30.456665 0l0 38.771645l-30.456665 0z" fill-rule="evenodd"/><path fill="#02d502" d="m560.8534 150.97511l2.5 0.3125q0.0625 0.4375 0.296875 0.59375q0.3125 0.234375 0.984375 0.234375q0.859375 0 1.28125 -0.25q0.296875 -0.171875 0.4375 -0.5625q0.109375 -0.265625 0.109375 -1.015625l0 -1.203125q-0.984375 1.34375 -2.484375 1.34375q-1.671875 0 -2.65625 -1.421875q-0.765625 -1.109375 -0.765625 -2.78125q0 -2.078125 1.0 -3.171875q1.015625 -1.109375 2.5 -1.109375q1.546875 0 2.546875 1.34375l0 -1.15625l2.046875 0l0 7.4375q0 1.484375 -0.25 2.203125q-0.234375 0.734375 -0.671875 1.140625q-0.4375 0.421875 -1.171875 0.65625q-0.71875 0.234375 -1.84375 0.234375q-2.109375 0 -3.0 -0.734375q-0.875 -0.71875 -0.875 -1.828125q0 -0.109375 0.015625 -0.265625zm1.953125 -4.875q0 1.328125 0.515625 1.9375q0.515625 0.609375 1.265625 0.609375q0.796875 0 1.34375 -0.625q0.5625 -0.625 0.5625 -1.859375q0 -1.296875 -0.53125 -1.921875q-0.53125 -0.625 -1.34375 -0.625q-0.78125 0 -1.296875 0.625q-0.515625 0.609375 -0.515625 1.859375z" fill-rule="nonzero"/><path fill="#000000" fill-opacity="0.0" d="m466.36484 166.33595l39.527557 0l0 33.921265l-39.527557 0z" fill-rule="evenodd"/><path fill="#1155cc" d="m479.8336 186.85596l-1.046875 0l0 -6.71875q-0.390625 0.359375 -1.015625 0.734375q-0.609375 0.359375 -1.09375 0.53125l0 -1.015625q0.875 -0.421875 1.53125 -1.0q0.671875 -0.59375 0.953125 -1.15625l0.671875 0l0 8.625zm5.783203 0l-1.046875 0l0 -6.71875q-0.390625 0.359375 -1.015625 0.734375q-0.609375 0.359375 -1.09375 0.53125l0 -1.015625q0.875 -0.421875 1.53125 -1.0q0.671875 -0.59375 0.953125 -1.15625l0.671875 0l0 8.625zm5.783203 0l-1.046875 0l0 -6.71875q-0.390625 0.359375 -1.015625 0.734375q-0.609375 0.359375 -1.09375 0.53125l0 -1.015625q0.875 -0.421875 1.53125 -1.0q0.671875 -0.59375 0.953125 -1.15625l0.671875 0l0 8.625z" fill-rule="nonzero"/><path fill="#000000" fill-opacity="0.0" d="m386.17584 166.33595l39.527557 0l0 33.921265l-39.527557 0z" fill-rule="evenodd"/><path fill="#ff0000" d="m399.6446 186.85596l-1.046875 0l0 -6.71875q-0.390625 0.359375 -1.015625 0.734375q-0.609375 0.359375 -1.09375 0.53125l0 -1.015625q0.875 -0.421875 1.53125 -1.0q0.671875 -0.59375 0.953125 -1.15625l0.671875 0l0 8.625zm2.7050781 -4.234375q0 -1.53125 0.3125 -2.453125q0.3125 -0.9375 0.921875 -1.4375q0.625 -0.5 1.5625 -0.5q0.6875 0 1.203125 0.28125q0.53125 0.28125 0.875 0.8125q0.34375 0.515625 0.53125 1.265625q0.1875 0.75 0.1875 2.03125q0 1.515625 -0.3125 2.4375q-0.296875 0.921875 -0.921875 1.4375q-0.609375 0.5 -1.5625 0.5q-1.234375 0 -1.953125 -0.890625q-0.84375 -1.0625 -0.84375 -3.484375zm1.078125 0q0 2.109375 0.5 2.8125q0.5 0.703125 1.21875 0.703125q0.734375 0 1.21875 -0.703125q0.5 -0.703125 0.5 -2.8125q0 -2.125 -0.5 -2.8125q-0.484375 -0.703125 -1.234375 -0.703125q-0.71875 0 -1.15625 0.609375q-0.546875 0.78125 -0.546875 2.90625zm5.595703 0q0 -1.53125 0.3125 -2.453125q0.3125 -0.9375 0.921875 -1.4375q0.625 -0.5 1.5625 -0.5q0.6875 0 1.203125 0.28125q0.53125 0.28125 0.875 0.8125q0.34375 0.515625 0.53125 1.265625q0.1875 0.75 0.1875 2.03125q0 1.515625 -0.3125 2.4375q-0.296875 0.921875 -0.921875 1.4375q-0.609375 0.5 -1.5625 0.5q-1.234375 0 -1.953125 -0.890625q-0.84375 -1.0625 -0.84375 -3.484375zm1.078125 0q0 2.109375 0.5 2.8125q0.5 0.703125 1.21875 0.703125q0.734375 0 1.21875 -0.703125q0.5 -0.703125 0.5 -2.8125q0 -2.125 -0.5 -2.8125q-0.484375 -0.703125 -1.234375 -0.703125q-0.71875 0 -1.15625 0.609375q-0.546875 0.78125 -0.546875 2.90625z" fill-rule="nonzero"/><path fill="#000000" fill-opacity="0.0" d="m546.3648 166.33595l39.527588 0l0 33.921265l-39.527588 0z" fill-rule="evenodd"/><path fill="#02d502" d="m559.83356 186.85596l-1.046875 0l0 -6.71875q-0.390625 0.359375 -1.015625 0.734375q-0.609375 0.359375 -1.09375 0.53125l0 -1.015625q0.875 -0.421875 1.53125 -1.0q0.671875 -0.59375 0.953125 -1.15625l0.671875 0l0 8.625zm2.7050781 -4.234375q0 -1.53125 0.3125 -2.453125q0.3125 -0.9375 0.921875 -1.4375q0.625 -0.5 1.5625 -0.5q0.6875 0 1.203125 0.28125q0.53125 0.28125 0.875 0.8125q0.34375 0.515625 0.53125 1.265625q0.1875 0.75 0.1875 2.03125q0 1.515625 -0.3125 2.4375q-0.296875 0.921875 -0.921875 1.4375q-0.609375 0.5 -1.5625 0.5q-1.234375 0 -1.953125 -0.890625q-0.84375 -1.0625 -0.84375 -3.484375zm1.078125 0q0 2.109375 0.5 2.8125q0.5 0.703125 1.21875 0.703125q0.734375 0 1.21875 -0.703125q0.5 -0.703125 0.5 -2.8125q0 -2.125 -0.5 -2.8125q-0.484375 -0.703125 -1.234375 -0.703125q-0.71875 0 -1.15625 0.609375q-0.546875 0.78125 -0.546875 2.90625zm5.595703 1.96875l1.0625 -0.140625q0.171875 0.890625 0.609375 1.296875q0.4375 0.390625 1.0625 0.390625q0.75 0 1.265625 -0.515625q0.515625 -0.515625 0.515625 -1.28125q0 -0.71875 -0.484375 -1.1875q-0.46875 -0.484375 -1.203125 -0.484375q-0.296875 0 -0.75 0.125l0.125 -0.9375q0.109375 0.015625 0.171875 0.015625q0.671875 0 1.203125 -0.34375q0.546875 -0.359375 0.546875 -1.09375q0 -0.578125 -0.390625 -0.953125q-0.390625 -0.390625 -1.015625 -0.390625q-0.609375 0 -1.03125 0.390625q-0.40625 0.390625 -0.515625 1.15625l-1.0625 -0.1875q0.1875 -1.046875 0.875 -1.625q0.6875 -0.59375 1.703125 -0.59375q0.703125 0 1.296875 0.3125q0.59375 0.296875 0.90625 0.8125q0.3125 0.515625 0.3125 1.109375q0 0.546875 -0.296875 1.015625q-0.296875 0.453125 -0.875 0.71875q0.75 0.171875 1.171875 0.734375q0.421875 0.546875 0.421875 1.390625q0 1.125 -0.828125 1.90625q-0.8125 0.78125 -2.0625 0.78125q-1.125 0 -1.875 -0.671875q-0.75 -0.6875 -0.859375 -1.75z" fill-rule="nonzero"/><path fill="#000000" fill-opacity="0.0" d="m390.90027 206.06824l30.456696 0l0 38.771652l-30.456696 0z" fill-rule="evenodd"/><path fill="#ff0000" d="m400.57214 224.77199q0 -2.03125 0.40625 -3.265625q0.421875 -1.234375 1.25 -1.90625q0.828125 -0.671875 2.078125 -0.671875q0.921875 0 1.609375 0.375q0.703125 0.359375 1.15625 1.0625q0.453125 0.703125 0.703125 1.703125q0.265625 1.0 0.265625 2.703125q0 2.015625 -0.421875 3.265625q-0.40625 1.234375 -1.234375 1.921875q-0.828125 0.671875 -2.078125 0.671875q-1.65625 0 -2.609375 -1.203125q-1.125 -1.421875 -1.125 -4.65625zm1.4375 0q0 2.828125 0.65625 3.765625q0.671875 0.921875 1.640625 0.921875q0.96875 0 1.625 -0.9375q0.65625 -0.9375 0.65625 -3.75q0 -2.828125 -0.65625 -3.75q-0.65625 -0.9375 -1.640625 -0.9375q-0.96875 0 -1.546875 0.828125q-0.734375 1.046875 -0.734375 3.859375z" fill-rule="nonzero"/><path fill="#000000" fill-opacity="0.0" d="m390.90027 246.06824l30.456696 0l0 38.771667l-30.456696 0z" fill-rule="evenodd"/><path fill="#ff0000" d="m405.86902 270.42825l-1.40625 0l0 -8.96875q-0.515625 0.484375 -1.34375 0.96875q-0.8125 0.484375 -1.46875 0.734375l0 -1.359375q1.171875 -0.5625 2.046875 -1.34375q0.890625 -0.796875 1.265625 -1.53125l0.90625 0l0 11.5z" fill-rule="nonzero"/><path fill="#000000" fill-opacity="0.0" d="m390.90027 286.06824l30.456696 0l0 38.771667l-30.456696 0z" fill-rule="evenodd"/><path fill="#ff0000" d="m405.86902 310.42825l-1.40625 0l0 -8.96875q-0.515625 0.484375 -1.34375 0.96875q-0.8125 0.484375 -1.46875 0.734375l0 -1.359375q1.171875 -0.5625 2.046875 -1.34375q0.890625 -0.796875 1.265625 -1.53125l0.90625 0l0 11.5z" fill-rule="nonzero"/><path fill="#000000" fill-opacity="0.0" d="m390.90027 326.06824l30.456696 0l0 38.771667l-30.456696 0z" fill-rule="evenodd"/><path fill="#ff0000" d="m400.57214 344.772q0 -2.03125 0.40625 -3.265625q0.421875 -1.234375 1.25 -1.90625q0.828125 -0.671875 2.078125 -0.671875q0.921875 0 1.609375 0.375q0.703125 0.359375 1.15625 1.0625q0.453125 0.703125 0.703125 1.703125q0.265625 1.0 0.265625 2.703125q0 2.015625 -0.421875 3.265625q-0.40625 1.234375 -1.234375 1.921875q-0.828125 0.671875 -2.078125 0.671875q-1.65625 0 -2.609375 -1.203125q-1.125 -1.421875 -1.125 -4.65625zm1.4375 0q0 2.828125 0.65625 3.765625q0.671875 0.921875 1.640625 0.921875q0.96875 0 1.625 -0.9375q0.65625 -0.9375 0.65625 -3.75q0 -2.828125 -0.65625 -3.75q-0.65625 -0.9375 -1.640625 -0.9375q-0.96875 0 -1.546875 0.828125q-0.734375 1.046875 -0.734375 3.859375z" fill-rule="nonzero"/><path fill="#000000" fill-opacity="0.0" d="m390.90027 366.06824l30.456696 0l0 38.771667l-30.456696 0z" fill-rule="evenodd"/><path fill="#ff0000" d="m400.57214 384.772q0 -2.03125 0.40625 -3.265625q0.421875 -1.234375 1.25 -1.90625q0.828125 -0.671875 2.078125 -0.671875q0.921875 0 1.609375 0.375q0.703125 0.359375 1.15625 1.0625q0.453125 0.703125 0.703125 1.703125q0.265625 1.0 0.265625 2.703125q0 2.015625 -0.421875 3.265625q-0.40625 1.234375 -1.234375 1.921875q-0.828125 0.671875 -2.078125 0.671875q-1.65625 0 -2.609375 -1.203125q-1.125 -1.421875 -1.125 -4.65625zm1.4375 0q0 2.828125 0.65625 3.765625q0.671875 0.921875 1.640625 0.921875q0.96875 0 1.625 -0.9375q0.65625 -0.9375 0.65625 -3.75q0 -2.828125 -0.65625 -3.75q-0.65625 -0.9375 -1.640625 -0.9375q-0.96875 0 -1.546875 0.828125q-0.734375 1.046875 -0.734375 3.859375z" fill-rule="nonzero"/><path fill="#000000" fill-opacity="0.0" d="m390.90027 406.06824l30.456696 0l0 38.771667l-30.456696 0z" fill-rule="evenodd"/><path fill="#ff0000" d="m405.86902 430.42825l-1.40625 0l0 -8.96875q-0.515625 0.484375 -1.34375 0.96875q-0.8125 0.484375 -1.46875 0.734375l0 -1.359375q1.171875 -0.5625 2.046875 -1.34375q0.890625 -0.796875 1.265625 -1.53125l0.90625 0l0 11.5z" fill-rule="nonzero"/><path fill="#000000" fill-opacity="0.0" d="m390.90027 446.06824l30.456696 0l0 38.771667l-30.456696 0z" fill-rule="evenodd"/><path fill="#ff0000" d="m400.57214 464.772q0 -2.03125 0.40625 -3.265625q0.421875 -1.234375 1.25 -1.90625q0.828125 -0.671875 2.078125 -0.671875q0.921875 0 1.609375 0.375q0.703125 0.359375 1.15625 1.0625q0.453125 0.703125 0.703125 1.703125q0.265625 1.0 0.265625 2.703125q0 2.015625 -0.421875 3.265625q-0.40625 1.234375 -1.234375 1.921875q-0.828125 0.671875 -2.078125 0.671875q-1.65625 0 -2.609375 -1.203125q-1.125 -1.421875 -1.125 -4.65625zm1.4375 0q0 2.828125 0.65625 3.765625q0.671875 0.921875 1.640625 0.921875q0.96875 0 1.625 -0.9375q0.65625 -0.9375 0.65625 -3.75q0 -2.828125 -0.65625 -3.75q-0.65625 -0.9375 -1.640625 -0.9375q-0.96875 0 -1.546875 0.828125q-0.734375 1.046875 -0.734375 3.859375z" fill-rule="nonzero"/><path fill="#000000" fill-opacity="0.0" d="m390.90027 486.06824l30.456696 0l0 38.771667l-30.456696 0z" fill-rule="evenodd"/><path fill="#ff0000" d="m400.57214 504.772q0 -2.03125 0.40625 -3.265625q0.421875 -1.234375 1.25 -1.90625q0.828125 -0.671875 2.078125 -0.671875q0.921875 0 1.609375 0.375q0.703125 0.359375 1.15625 1.0625q0.453125 0.703125 0.703125 1.703125q0.265625 1.0 0.265625 2.703125q0 2.015625 -0.421875 3.265625q-0.40625 1.234375 -1.234375 1.921875q-0.828125 0.671875 -2.078125 0.671875q-1.65625 0 -2.609375 -1.203125q-1.125 -1.421875 -1.125 -4.65625zm1.4375 0q0 2.828125 0.65625 3.765625q0.671875 0.921875 1.640625 0.921875q0.96875 0 1.625 -0.9375q0.65625 -0.9375 0.65625 -3.75q0 -2.828125 -0.65625 -3.75q-0.65625 -0.9375 -1.640625 -0.9375q-0.96875 0 -1.546875 0.828125q-0.734375 1.046875 -0.734375 3.859375z" fill-rule="nonzero"/><path fill="#000000" fill-opacity="0.0" d="m470.90027 206.06824l30.456696 0l0 38.771652l-30.456696 0z" fill-rule="evenodd"/><path fill="#0000ff" d="m480.57214 224.77199q0 -2.03125 0.40625 -3.265625q0.421875 -1.234375 1.25 -1.90625q0.828125 -0.671875 2.078125 -0.671875q0.921875 0 1.609375 0.375q0.703125 0.359375 1.15625 1.0625q0.453125 0.703125 0.703125 1.703125q0.265625 1.0 0.265625 2.703125q0 2.015625 -0.421875 3.265625q-0.40625 1.234375 -1.234375 1.921875q-0.828125 0.671875 -2.078125 0.671875q-1.65625 0 -2.609375 -1.203125q-1.125 -1.421875 -1.125 -4.65625zm1.4375 0q0 2.828125 0.65625 3.765625q0.671875 0.921875 1.640625 0.921875q0.96875 0 1.625 -0.9375q0.65625 -0.9375 0.65625 -3.75q0 -2.828125 -0.65625 -3.75q-0.65625 -0.9375 -1.640625 -0.9375q-0.96875 0 -1.546875 0.828125q-0.734375 1.046875 -0.734375 3.859375z" fill-rule="nonzero"/><path fill="#000000" fill-opacity="0.0" d="m470.90027 246.06824l30.456696 0l0 38.771667l-30.456696 0z" fill-rule="evenodd"/><path fill="#0000ff" d="m485.86902 270.42825l-1.40625 0l0 -8.96875q-0.515625 0.484375 -1.34375 0.96875q-0.8125 0.484375 -1.46875 0.734375l0 -1.359375q1.171875 -0.5625 2.046875 -1.34375q0.890625 -0.796875 1.265625 -1.53125l0.90625 0l0 11.5z" fill-rule="nonzero"/><path fill="#000000" fill-opacity="0.0" d="m470.90027 286.06824l30.456696 0l0 38.771667l-30.456696 0z" fill-rule="evenodd"/><path fill="#0000ff" d="m485.86902 310.42825l-1.40625 0l0 -8.96875q-0.515625 0.484375 -1.34375 0.96875q-0.8125 0.484375 -1.46875 0.734375l0 -1.359375q1.171875 -0.5625 2.046875 -1.34375q0.890625 -0.796875 1.265625 -1.53125l0.90625 0l0 11.5z" fill-rule="nonzero"/><path fill="#000000" fill-opacity="0.0" d="m470.90027 326.06824l30.456696 0l0 38.771667l-30.456696 0z" fill-rule="evenodd"/><path fill="#0000ff" d="m480.57214 344.772q0 -2.03125 0.40625 -3.265625q0.421875 -1.234375 1.25 -1.90625q0.828125 -0.671875 2.078125 -0.671875q0.921875 0 1.609375 0.375q0.703125 0.359375 1.15625 1.0625q0.453125 0.703125 0.703125 1.703125q0.265625 1.0 0.265625 2.703125q0 2.015625 -0.421875 3.265625q-0.40625 1.234375 -1.234375 1.921875q-0.828125 0.671875 -2.078125 0.671875q-1.65625 0 -2.609375 -1.203125q-1.125 -1.421875 -1.125 -4.65625zm1.4375 0q0 2.828125 0.65625 3.765625q0.671875 0.921875 1.640625 0.921875q0.96875 0 1.625 -0.9375q0.65625 -0.9375 0.65625 -3.75q0 -2.828125 -0.65625 -3.75q-0.65625 -0.9375 -1.640625 -0.9375q-0.96875 0 -1.546875 0.828125q-0.734375 1.046875 -0.734375 3.859375z" fill-rule="nonzero"/><path fill="#000000" fill-opacity="0.0" d="m470.90027 366.06824l30.456696 0l0 38.771667l-30.456696 0z" fill-rule="evenodd"/><path fill="#0000ff" d="m485.86902 390.42825l-1.40625 0l0 -8.96875q-0.515625 0.484375 -1.34375 0.96875q-0.8125 0.484375 -1.46875 0.734375l0 -1.359375q1.171875 -0.5625 2.046875 -1.34375q0.890625 -0.796875 1.265625 -1.53125l0.90625 0l0 11.5z" fill-rule="nonzero"/><path fill="#000000" fill-opacity="0.0" d="m470.90027 406.06824l30.456696 0l0 38.771667l-30.456696 0z" fill-rule="evenodd"/><path fill="#0000ff" d="m485.86902 430.42825l-1.40625 0l0 -8.96875q-0.515625 0.484375 -1.34375 0.96875q-0.8125 0.484375 -1.46875 0.734375l0 -1.359375q1.171875 -0.5625 2.046875 -1.34375q0.890625 -0.796875 1.265625 -1.53125l0.90625 0l0 11.5z" fill-rule="nonzero"/><path fill="#000000" fill-opacity="0.0" d="m470.90027 446.06824l30.456696 0l0 38.771667l-30.456696 0z" fill-rule="evenodd"/><path fill="#0000ff" d="m485.86902 470.42825l-1.40625 0l0 -8.96875q-0.515625 0.484375 -1.34375 0.96875q-0.8125 0.484375 -1.46875 0.734375l0 -1.359375q1.171875 -0.5625 2.046875 -1.34375q0.890625 -0.796875 1.265625 -1.53125l0.90625 0l0 11.5z" fill-rule="nonzero"/><path fill="#000000" fill-opacity="0.0" d="m470.90027 486.06824l30.456696 0l0 38.771667l-30.456696 0z" fill-rule="evenodd"/><path fill="#0000ff" d="m485.86902 510.42825l-1.40625 0l0 -8.96875q-0.515625 0.484375 -1.34375 0.96875q-0.8125 0.484375 -1.46875 0.734375l0 -1.359375q1.171875 -0.5625 2.046875 -1.34375q0.890625 -0.796875 1.265625 -1.53125l0.90625 0l0 11.5z" fill-rule="nonzero"/><path fill="#000000" fill-opacity="0.0" d="m550.90027 206.06824l30.456665 0l0 38.771652l-30.456665 0z" fill-rule="evenodd"/><path fill="#02d502" d="m560.57214 224.77199q0 -2.03125 0.40625 -3.265625q0.421875 -1.234375 1.25 -1.90625q0.828125 -0.671875 2.078125 -0.671875q0.921875 0 1.609375 0.375q0.703125 0.359375 1.15625 1.0625q0.453125 0.703125 0.703125 1.703125q0.265625 1.0 0.265625 2.703125q0 2.015625 -0.421875 3.265625q-0.40625 1.234375 -1.234375 1.921875q-0.828125 0.671875 -2.078125 0.671875q-1.65625 0 -2.609375 -1.203125q-1.125 -1.421875 -1.125 -4.65625zm1.4375 0q0 2.828125 0.65625 3.765625q0.671875 0.921875 1.640625 0.921875q0.96875 0 1.625 -0.9375q0.65625 -0.9375 0.65625 -3.75q0 -2.828125 -0.65625 -3.75q-0.65625 -0.9375 -1.640625 -0.9375q-0.96875 0 -1.546875 0.828125q-0.734375 1.046875 -0.734375 3.859375z" fill-rule="nonzero"/><path fill="#000000" fill-opacity="0.0" d="m550.90027 246.06824l30.456665 0l0 38.771667l-30.456665 0z" fill-rule="evenodd"/><path fill="#02d502" d="m565.869 270.42825l-1.40625 0l0 -8.96875q-0.515625 0.484375 -1.34375 0.96875q-0.8125 0.484375 -1.46875 0.734375l0 -1.359375q1.171875 -0.5625 2.046875 -1.34375q0.890625 -0.796875 1.265625 -1.53125l0.90625 0l0 11.5z" fill-rule="nonzero"/><path fill="#000000" fill-opacity="0.0" d="m550.90027 286.06824l30.456665 0l0 38.771667l-30.456665 0z" fill-rule="evenodd"/><path fill="#02d502" d="m565.869 310.42825l-1.40625 0l0 -8.96875q-0.515625 0.484375 -1.34375 0.96875q-0.8125 0.484375 -1.46875 0.734375l0 -1.359375q1.171875 -0.5625 2.046875 -1.34375q0.890625 -0.796875 1.265625 -1.53125l0.90625 0l0 11.5z" fill-rule="nonzero"/><path fill="#000000" fill-opacity="0.0" d="m550.90027 326.06824l30.456665 0l0 38.771667l-30.456665 0z" fill-rule="evenodd"/><path fill="#02d502" d="m560.57214 344.772q0 -2.03125 0.40625 -3.265625q0.421875 -1.234375 1.25 -1.90625q0.828125 -0.671875 2.078125 -0.671875q0.921875 0 1.609375 0.375q0.703125 0.359375 1.15625 1.0625q0.453125 0.703125 0.703125 1.703125q0.265625 1.0 0.265625 2.703125q0 2.015625 -0.421875 3.265625q-0.40625 1.234375 -1.234375 1.921875q-0.828125 0.671875 -2.078125 0.671875q-1.65625 0 -2.609375 -1.203125q-1.125 -1.421875 -1.125 -4.65625zm1.4375 0q0 2.828125 0.65625 3.765625q0.671875 0.921875 1.640625 0.921875q0.96875 0 1.625 -0.9375q0.65625 -0.9375 0.65625 -3.75q0 -2.828125 -0.65625 -3.75q-0.65625 -0.9375 -1.640625 -0.9375q-0.96875 0 -1.546875 0.828125q-0.734375 1.046875 -0.734375 3.859375z" fill-rule="nonzero"/><path fill="#000000" fill-opacity="0.0" d="m550.90027 366.06824l30.456665 0l0 38.771667l-30.456665 0z" fill-rule="evenodd"/><path fill="#02d502" d="m560.57214 384.772q0 -2.03125 0.40625 -3.265625q0.421875 -1.234375 1.25 -1.90625q0.828125 -0.671875 2.078125 -0.671875q0.921875 0 1.609375 0.375q0.703125 0.359375 1.15625 1.0625q0.453125 0.703125 0.703125 1.703125q0.265625 1.0 0.265625 2.703125q0 2.015625 -0.421875 3.265625q-0.40625 1.234375 -1.234375 1.921875q-0.828125 0.671875 -2.078125 0.671875q-1.65625 0 -2.609375 -1.203125q-1.125 -1.421875 -1.125 -4.65625zm1.4375 0q0 2.828125 0.65625 3.765625q0.671875 0.921875 1.640625 0.921875q0.96875 0 1.625 -0.9375q0.65625 -0.9375 0.65625 -3.75q0 -2.828125 -0.65625 -3.75q-0.65625 -0.9375 -1.640625 -0.9375q-0.96875 0 -1.546875 0.828125q-0.734375 1.046875 -0.734375 3.859375z" fill-rule="nonzero"/><path fill="#000000" fill-opacity="0.0" d="m550.90027 406.06824l30.456665 0l0 38.771667l-30.456665 0z" fill-rule="evenodd"/><path fill="#02d502" d="m565.869 430.42825l-1.40625 0l0 -8.96875q-0.515625 0.484375 -1.34375 0.96875q-0.8125 0.484375 -1.46875 0.734375l0 -1.359375q1.171875 -0.5625 2.046875 -1.34375q0.890625 -0.796875 1.265625 -1.53125l0.90625 0l0 11.5z" fill-rule="nonzero"/><path fill="#000000" fill-opacity="0.0" d="m550.90027 446.06824l30.456665 0l0 38.771667l-30.456665 0z" fill-rule="evenodd"/><path fill="#02d502" d="m565.869 470.42825l-1.40625 0l0 -8.96875q-0.515625 0.484375 -1.34375 0.96875q-0.8125 0.484375 -1.46875 0.734375l0 -1.359375q1.171875 -0.5625 2.046875 -1.34375q0.890625 -0.796875 1.265625 -1.53125l0.90625 0l0 11.5z" fill-rule="nonzero"/><path fill="#000000" fill-opacity="0.0" d="m550.90027 486.06824l30.456665 0l0 38.771667l-30.456665 0z" fill-rule="evenodd"/><path fill="#02d502" d="m565.869 510.42825l-1.40625 0l0 -8.96875q-0.515625 0.484375 -1.34375 0.96875q-0.8125 0.484375 -1.46875 0.734375l0 -1.359375q1.171875 -0.5625 2.046875 -1.34375q0.890625 -0.796875 1.265625 -1.53125l0.90625 0l0 11.5z" fill-rule="nonzero"/><path fill="#000000" fill-opacity="0.0" d="m550.8058 168.47507l30.456665 0l0 32.850388l-30.456665 0z" fill-rule="evenodd"/><path stroke="#595959" stroke-width="1.0" stroke-linejoin="round" stroke-linecap="butt" d="m550.8058 168.47507l30.456665 0l0 32.850388l-30.456665 0z" fill-rule="evenodd"/><path fill="#000000" fill-opacity="0.0" d="m390.8058 168.47507l30.456696 0l0 32.850388l-30.456696 0z" fill-rule="evenodd"/><path stroke="#595959" stroke-width="1.0" stroke-linejoin="round" stroke-linecap="butt" d="m390.8058 168.47507l30.456696 0l0 32.850388l-30.456696 0z" fill-rule="evenodd"/><path fill="#000000" fill-opacity="0.0" d="m470.8058 168.47507l30.456696 0l0 32.850388l-30.456696 0z" fill-rule="evenodd"/><path stroke="#595959" stroke-width="1.0" stroke-linejoin="round" stroke-linecap="butt" d="m470.8058 168.47507l30.456696 0l0 32.850388l-30.456696 0z" fill-rule="evenodd"/><path fill="#000000" fill-opacity="0.0" d="m390.8058 128.47507l30.456696 0l0 32.850388l-30.456696 0z" fill-rule="evenodd"/><path stroke="#595959" stroke-width="1.0" stroke-linejoin="round" stroke-linecap="butt" d="m390.8058 128.47507l30.456696 0l0 32.850388l-30.456696 0z" fill-rule="evenodd"/><path fill="#000000" fill-opacity="0.0" d="m550.8058 128.47507l30.456665 0l0 32.850388l-30.456665 0z" fill-rule="evenodd"/><path stroke="#595959" stroke-width="1.0" stroke-linejoin="round" stroke-linecap="butt" d="m550.8058 128.47507l30.456665 0l0 32.850388l-30.456665 0z" fill-rule="evenodd"/><path fill="#000000" fill-opacity="0.0" d="m470.8058 128.47507l30.456696 0l0 32.850388l-30.456696 0z" fill-rule="evenodd"/><path stroke="#595959" stroke-width="1.0" stroke-linejoin="round" stroke-linecap="butt" d="m470.8058 128.47507l30.456696 0l0 32.850388l-30.456696 0z" fill-rule="evenodd"/><path fill="#eeeeee" d="m105.6273 72.02362l250.33072 0l0 364.28348l-250.33072 0z" fill-rule="evenodd"/><path stroke="#595959" stroke-width="1.0" stroke-linejoin="round" stroke-linecap="butt" d="m105.6273 72.02362l250.33072 0l0 364.28348l-250.33072 0z" fill-rule="evenodd"/><path fill="#eeeeee" d="m609.6273 72.02362l250.33069 0l0 364.28348l-250.33069 0z" fill-rule="evenodd"/><path stroke="#595959" stroke-width="1.0" stroke-linejoin="round" stroke-linecap="butt" d="m609.6273 72.02362l250.33069 0l0 364.28348l-250.33069 0z" fill-rule="evenodd"/><path fill="#000000" fill-opacity="0.0" d="m105.1601 72.28609l98.67716 0l0 48.472443l-98.67716 0z" fill-rule="evenodd"/><path fill="#595959" d="m119.92573 104.45109q-1.5625 0 -2.953125 -0.4375q-1.390625 -0.453125 -2.1875 -1.125l0.765625 -1.34375q0.765625 0.578125 1.96875 1.0q1.203125 0.40625 2.515625 0.40625q1.8125 0 2.59375 -0.5625q0.796875 -0.5625 0.796875 -1.5q0 -0.6875 -0.453125 -1.078125q-0.4375 -0.40625 -1.15625 -0.609375q-0.71875 -0.203125 -1.609375 -0.34375q-0.890625 -0.140625 -1.765625 -0.328125q-0.875 -0.203125 -1.59375 -0.578125q-0.71875 -0.375 -1.171875 -1.015625q-0.4375 -0.65625 -0.4375 -1.734375q0 -1.03125 0.578125 -1.84375q0.578125 -0.8125 1.6875 -1.28125q1.125 -0.46875 2.734375 -0.46875q1.21875 0 2.4375 0.328125q1.234375 0.3125 2.015625 0.84375l-0.734375 1.375q-0.84375 -0.578125 -1.8125 -0.828125q-0.953125 -0.25 -1.90625 -0.25q-1.703125 0 -2.515625 0.59375q-0.796875 0.578125 -0.796875 1.484375q0 0.71875 0.4375 1.140625q0.4375 0.40625 1.171875 0.640625q0.734375 0.21875 1.609375 0.359375q0.875 0.140625 1.75 0.34375q0.875 0.203125 1.609375 0.5625q0.734375 0.34375 1.171875 0.984375q0.453125 0.625 0.453125 1.65625q0 1.109375 -0.609375 1.921875q-0.609375 0.796875 -1.78125 1.25q-1.15625 0.4375 -2.8125 0.4375zm13.680717 0q-1.96875 0 -3.46875 -0.828125q-1.484375 -0.828125 -2.3281326 -2.28125q-0.828125 -1.453125 -0.828125 -3.328125q0 -1.875 0.796875 -3.3125q0.8125076 -1.4375 2.2031326 -2.265625q1.40625 -0.828125 3.15625 -0.828125q1.78125 0 3.15625 0.8125q1.390625 0.796875 2.171875 2.25q0.796875 1.453125 0.796875 3.34375q0 0.125 -0.015625 0.265625q0 0.125 0 0.265625l-10.96875 0l0 -1.28125l10.046875 0l-0.671875 0.515625q0 -1.375 -0.59375 -2.4375q-0.578125 -1.078125 -1.59375 -1.671875q-1.0 -0.59375 -2.328125 -0.59375q-1.296875 0 -2.328125 0.59375q-1.03125 0.59375 -1.609375 1.6875q-0.5625 1.078125 -0.5625 2.46875l0 0.265625q0 1.4375 0.625 2.53125q0.640625 1.09375 1.78125 1.703125q1.140625 0.609375 2.609375 0.609375q1.140625 0 2.140625 -0.40625q1.0 -0.40625 1.71875 -1.25l0.953125 1.109375q-0.828125 1.0 -2.09375 1.53125q-1.265625 0.53125 -2.765625 0.53125zm9.136581 -0.125l0 -12.59375l1.640625 0l0 3.421875l-0.171875 -0.59375q0.53125 -1.4375 1.765625 -2.1875q1.25 -0.765625 3.109375 -0.765625l0 1.65625q-0.109375 0 -0.203125 -0.015625q-0.09375 -0.015625 -0.1875 -0.015625q-1.984375 0 -3.125 1.21875q-1.125 1.21875 -1.125 3.4375l0 6.4375l-1.703125 0zm13.218353 0l-5.578125 -12.59375l1.765625 0l5.140625 11.6875l-0.84375 0l5.203125 -11.6875l1.6875 0l-5.609375 12.59375l-1.765625 0zm14.7729645 0.125q-1.96875 0 -3.46875 -0.828125q-1.484375 -0.828125 -2.328125 -2.28125q-0.828125 -1.453125 -0.828125 -3.328125q0 -1.875 0.796875 -3.3125q0.8125 -1.4375 2.203125 -2.265625q1.40625 -0.828125 3.15625 -0.828125q1.78125 0 3.15625 0.8125q1.390625 0.796875 2.171875 2.25q0.796875 1.453125 0.796875 3.34375q0 0.125 -0.015625 0.265625q0 0.125 0 0.265625l-10.96875 0l0 -1.28125l10.046875 0l-0.671875 0.515625q0 -1.375 -0.59375 -2.4375q-0.578125 -1.078125 -1.59375 -1.671875q-1.0 -0.59375 -2.328125 -0.59375q-1.296875 0 -2.328125 0.59375q-1.03125 0.59375 -1.609375 1.6875q-0.5625 1.078125 -0.5625 2.46875l0 0.265625q0 1.4375 0.625 2.53125q0.640625 1.09375 1.78125 1.703125q1.140625 0.609375 2.609375 0.609375q1.140625 0 2.140625 -0.40625q1.0 -0.40625 1.71875 -1.25l0.953125 1.109375q-0.828125 1.0 -2.09375 1.53125q-1.265625 0.53125 -2.765625 0.53125zm9.136581 -0.125l0 -12.59375l1.640625 0l0 3.421875l-0.171875 -0.59375q0.53125 -1.4375 1.765625 -2.1875q1.25 -0.765625 3.109375 -0.765625l0 1.65625q-0.109375 0 -0.203125 -0.015625q-0.09375 -0.015625 -0.1875 -0.015625q-1.984375 0 -3.125 1.21875q-1.125 1.21875 -1.125 3.4375l0 6.4375l-1.703125 0z" fill-rule="nonzero"/><path fill="#000000" fill-opacity="0.0" d="m609.1601 72.28609l98.677185 0l0 48.472443l-98.677185 0z" fill-rule="evenodd"/><path fill="#595959" d="m625.7695 104.45109q-1.875 0 -3.359375 -0.828125q-1.46875 -0.828125 -2.3125 -2.28125q-0.828125 -1.453125 -0.828125 -3.328125q0 -1.890625 0.828125 -3.328125q0.84375 -1.453125 2.3125 -2.265625q1.484375 -0.8125 3.359375 -0.8125q1.609375 0 2.90625 0.625q1.296875 0.625 2.03125 1.875l-1.265625 0.859375q-0.65625 -0.953125 -1.609375 -1.40625q-0.953125 -0.46875 -2.09375 -0.46875q-1.34375 0 -2.421875 0.609375q-1.078125 0.609375 -1.703125 1.71875q-0.625 1.109375 -0.625 2.59375q0 1.484375 0.625 2.59375q0.625 1.109375 1.703125 1.71875q1.078125 0.609375 2.421875 0.609375q1.140625 0 2.09375 -0.453125q0.953125 -0.453125 1.609375 -1.390625l1.265625 0.859375q-0.734375 1.21875 -2.03125 1.859375q-1.296875 0.640625 -2.90625 0.640625zm8.085571 -0.125l0 -17.8125l1.703125 0l0 17.8125l-1.703125 0zm6.4559937 0l0 -12.59375l1.703125 0l0 12.59375l-1.703125 0zm0.875 -15.390625q-0.53125 0 -0.890625 -0.359375q-0.359375 -0.359375 -0.359375 -0.859375q0 -0.5 0.359375 -0.84375q0.359375 -0.359375 0.890625 -0.359375q0.53125 0 0.890625 0.34375q0.359375 0.328125 0.359375 0.84375q0 0.515625 -0.359375 0.875q-0.34375 0.359375 -0.890625 0.359375zm10.940369 15.515625q-1.96875 0 -3.46875 -0.828125q-1.484375 -0.828125 -2.328125 -2.28125q-0.828125 -1.453125 -0.828125 -3.328125q0 -1.875 0.796875 -3.3125q0.8125 -1.4375 2.203125 -2.265625q1.40625 -0.828125 3.15625 -0.828125q1.78125 0 3.15625 0.8125q1.390625 0.796875 2.171875 2.25q0.796875 1.453125 0.796875 3.34375q0 0.125 -0.015625 0.265625q0 0.125 0 0.265625l-10.96875 0l0 -1.28125l10.046875 0l-0.671875 0.515625q0 -1.375 -0.59375 -2.4375q-0.578125 -1.078125 -1.59375 -1.671875q-1.0 -0.59375 -2.328125 -0.59375q-1.296875 0 -2.328125 0.59375q-1.03125 0.59375 -1.609375 1.6875q-0.5625 1.078125 -0.5625 2.46875l0 0.265625q0 1.4375 0.625 2.53125q0.640625 1.09375 1.78125 1.703125q1.140625 0.609375 2.609375 0.609375q1.140625 0 2.140625 -0.40625q1.0 -0.40625 1.71875 -1.25l0.953125 1.109375q-0.828125 1.0 -2.09375 1.53125q-1.265625 0.53125 -2.765625 0.53125zm15.574097 -12.84375q1.53125 0 2.6875 0.59375q1.171875 0.578125 1.828125 1.78125q0.65625 1.203125 0.65625 3.03125l0 7.3125l-1.703125 0l0 -7.15625q0 -1.984375 -1.0 -3.0q-0.984375 -1.03125 -2.78125 -1.03125q-1.34375 0 -2.34375 0.546875q-1.0 0.53125 -1.546875 1.5625q-0.53125 1.015625 -0.53125 2.453125l0 6.625l-1.703125 0l0 -12.59375l1.640625 0l0 3.453125l-0.265625 -0.65625q0.59375 -1.359375 1.90625 -2.140625q1.328125 -0.78125 3.15625 -0.78125zm13.770813 12.84375q-1.78125 0 -2.75 -0.953125q-0.953125 -0.96875 -0.953125 -2.71875l0 -11.84375l1.71875 0l0 11.75q0 1.09375 0.5625 1.703125q0.5625 0.59375 1.609375 0.59375q1.140625 0 1.875 -0.640625l0.609375 1.21875q-0.515625 0.453125 -1.21875 0.671875q-0.703125 0.21875 -1.453125 0.21875zm-5.953125 -11.3125l0 -1.40625l7.796875 0l0 1.40625l-7.796875 0z" fill-rule="nonzero"/><path fill="#000000" fill-opacity="0.0" d="m81.1601 104.28609l250.33072 0l0 90.48819l-250.33072 0z" fill-rule="evenodd"/><path fill="#595959" d="m109.43639 123.850464l0 -0.90625l3.84375 0l0 0.90625l-3.84375 0z" fill-rule="nonzero"/><path fill="#595959" d="m143.58199 127.444214q-1.0 0 -1.8125 -0.453125q-0.796875 -0.46875 -1.28125 -1.34375q-0.46875 -0.875 -0.46875 -2.140625q0 -1.25 0.46875 -2.125q0.46875 -0.875 1.265625 -1.328125q0.8125 -0.453125 1.828125 -0.453125q1.09375 0 1.96875 0.5q0.875 0.484375 1.375 1.375q0.5 0.875 0.5 2.03125q0 1.171875 -0.5 2.0625q-0.5 0.875 -1.375 1.375q-0.875 0.5 -1.96875 0.5zm-3.96875 2.765625l0 -10.53125l1.0 0l0 2.3125l-0.109375 1.53125l0.140625 1.5625l0 5.125l-1.03125 0zm3.890625 -3.6875q0.828125 0 1.46875 -0.375q0.640625 -0.375 1.015625 -1.046875q0.390625 -0.6875 0.390625 -1.59375q0 -0.890625 -0.390625 -1.5625q-0.375 -0.671875 -1.015625 -1.046875q-0.640625 -0.390625 -1.46875 -0.390625q-0.8125 0 -1.46875 0.390625q-0.65625 0.375 -1.03125 1.046875q-0.359375 0.671875 -0.359375 1.5625q0 0.90625 0.359375 1.59375q0.375 0.671875 1.03125 1.046875q0.65625 0.375 1.46875 0.375zm6.046356 0.84375l0 -7.6875l1.0 0l0 2.09375l-0.109375 -0.375q0.328125 -0.875 1.078125 -1.328125q0.765625 -0.46875 1.890625 -0.46875l0 1.015625q-0.046875 0 -0.109375 0q-0.0625 -0.015625 -0.125 -0.015625q-1.203125 0 -1.90625 0.734375q-0.6875 0.734375 -0.6875 2.109375l0 3.921875l-1.03125 0zm5.759842 0l0 -7.6875l1.03125 0l0 7.6875l-1.03125 0zm0.515625 -9.390625q-0.3125 0 -0.53125 -0.21875q-0.21875 -0.21875 -0.21875 -0.53125q0 -0.3125 0.21875 -0.515625q0.21875 -0.21875 0.53125 -0.21875q0.328125 0 0.546875 0.203125q0.21875 0.203125 0.21875 0.515625q0 0.328125 -0.21875 0.546875q-0.203125 0.21875 -0.546875 0.21875zm7.3488007 1.625q0.9375 0 1.640625 0.359375q0.71875 0.359375 1.125 1.09375q0.40625 0.734375 0.40625 1.84375l0 4.46875l-1.046875 0l0 -4.375q0 -1.203125 -0.609375 -1.828125q-0.609375 -0.625 -1.703125 -0.625q-0.8125 0 -1.421875 0.328125q-0.609375 0.328125 -0.953125 0.953125q-0.328125 0.625 -0.328125 1.5l0 4.046875l-1.03125 0l0 -7.6875l1.0 0l0 2.109375l-0.171875 -0.40625q0.375 -0.828125 1.171875 -1.296875q0.8125 -0.484375 1.921875 -0.484375zm8.423294 7.84375q-1.09375 0 -1.6875 -0.578125q-0.578125 -0.59375 -0.578125 -1.671875l0 -7.21875l1.046875 0l0 7.15625q0 0.6875 0.34375 1.046875q0.34375 0.359375 0.984375 0.359375q0.6875 0 1.140625 -0.390625l0.375 0.75q-0.3125 0.28125 -0.75 0.421875q-0.421875 0.125 -0.875 0.125zm-3.640625 -6.90625l0 -0.859375l4.765625 0l0 0.859375l-4.765625 0zm9.21608 6.90625q-0.953125 0 -1.8125 -0.265625q-0.84375 -0.28125 -1.328125 -0.6875l0.46875 -0.828125q0.46875 0.359375 1.203125 0.625q0.734375 0.25 1.546875 0.25q1.09375 0 1.578125 -0.34375q0.484375 -0.359375 0.484375 -0.921875q0 -0.421875 -0.28125 -0.65625q-0.265625 -0.25 -0.703125 -0.375q-0.4375 -0.125 -0.984375 -0.203125q-0.53125 -0.09375 -1.078125 -0.21875q-0.53125 -0.125 -0.96875 -0.34375q-0.4375 -0.234375 -0.71875 -0.625q-0.265625 -0.390625 -0.265625 -1.046875q0 -0.640625 0.34375 -1.140625q0.359375 -0.5 1.03125 -0.78125q0.6875 -0.28125 1.671875 -0.28125q0.75 0 1.5 0.203125q0.75 0.1875 1.234375 0.515625l-0.453125 0.828125q-0.515625 -0.34375 -1.109375 -0.5q-0.578125 -0.15625 -1.171875 -0.15625q-1.03125 0 -1.53125 0.359375q-0.484375 0.359375 -0.484375 0.921875q0 0.4375 0.265625 0.6875q0.28125 0.25 0.71875 0.390625q0.453125 0.140625 0.984375 0.234375q0.53125 0.078125 1.0625 0.203125q0.546875 0.125 0.984375 0.34375q0.453125 0.203125 0.71875 0.59375q0.28125 0.390625 0.28125 1.015625q0 0.671875 -0.375 1.171875q-0.375 0.484375 -1.09375 0.765625q-0.703125 0.265625 -1.71875 0.265625zm10.992233 0q-0.953125 0 -1.8125 -0.265625q-0.84375 -0.28125 -1.328125 -0.6875l0.46875 -0.828125q0.46875 0.359375 1.203125 0.625q0.734375 0.25 1.546875 0.25q1.09375 0 1.578125 -0.34375q0.484375 -0.359375 0.484375 -0.921875q0 -0.421875 -0.28125 -0.65625q-0.265625 -0.25 -0.703125 -0.375q-0.4375 -0.125 -0.984375 -0.203125q-0.53125 -0.09375 -1.078125 -0.21875q-0.53125 -0.125 -0.96875 -0.34375q-0.4375 -0.234375 -0.71875 -0.625q-0.265625 -0.390625 -0.265625 -1.046875q0 -0.640625 0.34375 -1.140625q0.359375 -0.5 1.03125 -0.78125q0.6875 -0.28125 1.671875 -0.28125q0.75 0 1.5 0.203125q0.75 0.1875 1.234375 0.515625l-0.453125 0.828125q-0.515625 -0.34375 -1.109375 -0.5q-0.578125 -0.15625 -1.171875 -0.15625q-1.03125 0 -1.53125 0.359375q-0.484375 0.359375 -0.484375 0.921875q0 0.4375 0.265625 0.6875q0.28125 0.25 0.71875 0.390625q0.453125 0.140625 0.984375 0.234375q0.53125 0.078125 1.0625 0.203125q0.546875 0.125 0.984375 0.34375q0.453125 0.203125 0.71875 0.59375q0.28125 0.390625 0.28125 1.015625q0 0.671875 -0.375 1.171875q-0.375 0.484375 -1.09375 0.765625q-0.703125 0.265625 -1.71875 0.265625zm5.3085327 -0.078125l0 -10.265625l3.84375 0q1.296875 0 2.234375 0.421875q0.9375 0.421875 1.4375 1.203125q0.515625 0.78125 0.515625 1.90625q0 1.078125 -0.515625 1.859375q-0.5 0.78125 -1.4375 1.21875q-0.9375 0.421875 -2.234375 0.421875l-3.25 0l0.484375 -0.515625l0 3.75l-1.078125 0zm1.078125 -3.671875l-0.484375 -0.515625l3.21875 0q1.53125 0 2.328125 -0.671875q0.8125 -0.671875 0.8125 -1.875q0 -1.234375 -0.8125 -1.90625q-0.796875 -0.6875 -2.328125 -0.6875l-3.21875 0l0.484375 -0.5l0 6.15625zm9.298431 3.671875l0 -10.265625l1.078125 0l0 10.265625l-1.078125 0zm4.4262085 0l0 -10.265625l4.171875 0q1.640625 0 2.875 0.65625q1.25 0.65625 1.9375 1.8125q0.6875 1.15625 0.6875 2.671875q0 1.5 -0.6875 2.671875q-0.6875 1.15625 -1.9375 1.8125q-1.234375 0.640625 -2.875 0.640625l-4.171875 0zm1.078125 -0.9375l3.046875 0q1.359375 0 2.359375 -0.53125q1.0 -0.546875 1.5625 -1.484375q0.5625 -0.953125 0.5625 -2.171875q0 -1.25 -0.5625 -2.1875q-0.5625 -0.9375 -1.5625 -1.46875q-1.0 -0.546875 -2.359375 -0.546875l-3.046875 0l0 8.390625z" fill-rule="nonzero"/><path fill="#595959" d="m109.43639 141.45047l0 -0.90625l3.84375 0l0 0.90625l-3.84375 0z" fill-rule="nonzero"/><path fill="#595959" d="m141.67574 145.04422q-0.953125 0 -1.8125 -0.265625q-0.84375 -0.28125 -1.328125 -0.6875l0.46875 -0.828125q0.46875 0.359375 1.203125 0.625q0.734375 0.25 1.546875 0.25q1.09375 0 1.578125 -0.34375q0.484375 -0.359375 0.484375 -0.921875q0 -0.421875 -0.28125 -0.65625q-0.265625 -0.25 -0.703125 -0.375q-0.4375 -0.125 -0.984375 -0.203125q-0.53125 -0.09375 -1.078125 -0.21875q-0.53125 -0.125 -0.96875 -0.34375q-0.4375 -0.234375 -0.71875 -0.625q-0.265625 -0.390625 -0.265625 -1.046875q0 -0.640625 0.34375 -1.140625q0.359375 -0.5 1.03125 -0.78125q0.6875 -0.28125 1.671875 -0.28125q0.75 0 1.5 0.203125q0.75 0.1875 1.234375 0.515625l-0.453125 0.828125q-0.515625 -0.34375 -1.109375 -0.5q-0.578125 -0.15625 -1.171875 -0.15625q-1.03125 0 -1.53125 0.359375q-0.484375 0.359375 -0.484375 0.921875q0 0.4375 0.265625 0.6875q0.28125 0.25 0.71875 0.390625q0.453125 0.140625 0.984375 0.234375q0.53125 0.078125 1.0625 0.203125q0.546875 0.125 0.984375 0.34375q0.453125 0.203125 0.71875 0.59375q0.28125 0.390625 0.28125 1.015625q0 0.671875 -0.375 1.171875q-0.375 0.484375 -1.09375 0.765625q-0.703125 0.265625 -1.71875 0.265625zm5.0897827 -0.078125l0 -7.6875l1.03125 0l0 7.6875l-1.03125 0zm0.515625 -9.390625q-0.3125 0 -0.53125 -0.21875q-0.21875 -0.21875 -0.21875 -0.53125q0 -0.3125 0.21875 -0.515625q0.21875 -0.21875 0.53125 -0.21875q0.328125 0 0.546875 0.203125q0.21875 0.203125 0.21875 0.515625q0 0.328125 -0.21875 0.546875q-0.203125 0.21875 -0.546875 0.21875zm6.7081757 12.3125q-1.0625 0 -2.03125 -0.3125q-0.953125 -0.3125 -1.5625 -0.875l0.53125 -0.796875q0.546875 0.484375 1.34375 0.765625q0.796875 0.296875 1.6875 0.296875q1.46875 0 2.15625 -0.6875q0.6875 -0.6875 0.6875 -2.125l0 -1.90625l0.140625 -1.328125l-0.09375 -1.3125l0 -2.328125l1.0 0l0 6.75q0 2.0 -0.984375 2.921875q-0.96875 0.9375 -2.875 0.9375zm-0.1875 -3.21875q-1.109375 0 -1.984375 -0.46875q-0.875 -0.484375 -1.390625 -1.328125q-0.5 -0.859375 -0.5 -1.953125q0 -1.09375 0.5 -1.9375q0.515625 -0.84375 1.390625 -1.3125q0.875 -0.46875 1.984375 -0.46875q1.015625 0 1.828125 0.421875q0.828125 0.421875 1.3125 1.265625q0.484375 0.828125 0.484375 2.03125q0 1.203125 -0.484375 2.046875q-0.484375 0.828125 -1.3125 1.265625q-0.8125 0.4375 -1.828125 0.4375zm0.09375 -0.921875q0.859375 0 1.515625 -0.359375q0.65625 -0.359375 1.03125 -0.984375q0.390625 -0.640625 0.390625 -1.484375q0 -0.828125 -0.390625 -1.453125q-0.375 -0.640625 -1.03125 -1.0q-0.65625 -0.359375 -1.515625 -0.359375q-0.828125 0 -1.5 0.359375q-0.65625 0.359375 -1.03125 1.0q-0.375 0.625 -0.375 1.453125q0 0.84375 0.375 1.484375q0.375 0.625 1.03125 0.984375q0.671875 0.359375 1.5 0.359375zm10.773941 -6.546875q0.9375 0 1.640625 0.359375q0.71875 0.359375 1.125 1.09375q0.40625 0.734375 0.40625 1.84375l0 4.46875l-1.046875 0l0 -4.375q0 -1.203125 -0.609375 -1.828125q-0.609375 -0.625 -1.703125 -0.625q-0.8125 0 -1.421875 0.328125q-0.609375 0.328125 -0.953125 0.953125q-0.328125 0.625 -0.328125 1.5l0 4.046875l-1.03125 0l0 -7.6875l1.0 0l0 2.109375l-0.171875 -0.40625q0.375 -0.828125 1.171875 -1.296875q0.8125 -0.484375 1.921875 -0.484375zm10.798294 7.765625l0 -1.703125l-0.03125 -0.28125l0 -2.84375q0 -0.96875 -0.5625 -1.5q-0.546875 -0.53125 -1.625 -0.53125q-0.75 0 -1.421875 0.25q-0.671875 0.25 -1.140625 0.65625l-0.46875 -0.78125q0.578125 -0.484375 1.390625 -0.75q0.828125 -0.28125 1.734375 -0.28125q1.5 0 2.3125 0.75q0.8125 0.734375 0.8125 2.234375l0 4.78125l-1.0 0zm-2.640625 0.078125q-0.875 0 -1.515625 -0.28125q-0.625 -0.296875 -0.96875 -0.796875q-0.328125 -0.515625 -0.328125 -1.171875q0 -0.59375 0.28125 -1.078125q0.28125 -0.5 0.9375 -0.796875q0.65625 -0.3125 1.75 -0.3125l2.65625 0l0 0.78125l-2.625 0q-1.109375 0 -1.546875 0.40625q-0.4375 0.390625 -0.4375 0.96875q0 0.671875 0.515625 1.0625q0.515625 0.390625 1.4375 0.390625q0.875 0 1.515625 -0.390625q0.640625 -0.40625 0.9375 -1.171875l0.234375 0.71875q-0.296875 0.765625 -1.03125 1.21875q-0.71875 0.453125 -1.8125 0.453125zm6.475342 -0.078125l0 -10.875l1.03125 0l0 10.875l-1.03125 0zm11.704376 -7.765625q0.9375 0 1.640625 0.359375q0.71875 0.359375 1.125 1.09375q0.40625 0.734375 0.40625 1.84375l0 4.46875l-1.046875 0l0 -4.375q0 -1.203125 -0.609375 -1.828125q-0.609375 -0.625 -1.703125 -0.625q-0.8125 0 -1.421875 0.328125q-0.609375 0.328125 -0.953125 0.953125q-0.328125 0.625 -0.328125 1.5l0 4.046875l-1.03125 0l0 -10.875l1.03125 0l0 5.296875l-0.203125 -0.40625q0.375 -0.828125 1.171875 -1.296875q0.8125 -0.484375 1.921875 -0.484375zm10.798294 7.765625l0 -1.703125l-0.03125 -0.28125l0 -2.84375q0 -0.96875 -0.5625 -1.5q-0.546875 -0.53125 -1.625 -0.53125q-0.75 0 -1.421875 0.25q-0.671875 0.25 -1.140625 0.65625l-0.46875 -0.78125q0.578125 -0.484375 1.390625 -0.75q0.828125 -0.28125 1.734375 -0.28125q1.5 0 2.3125 0.75q0.8125 0.734375 0.8125 2.234375l0 4.78125l-1.0 0zm-2.640625 0.078125q-0.875 0 -1.515625 -0.28125q-0.625 -0.296875 -0.96875 -0.796875q-0.328125 -0.515625 -0.328125 -1.171875q0 -0.59375 0.28125 -1.078125q0.28125 -0.5 0.9375 -0.796875q0.65625 -0.3125 1.75 -0.3125l2.65625 0l0 0.78125l-2.625 0q-1.109375 0 -1.546875 0.40625q-0.4375 0.390625 -0.4375 0.96875q0 0.671875 0.515625 1.0625q0.515625 0.390625 1.4375 0.390625q0.875 0 1.515625 -0.390625q0.640625 -0.40625 0.9375 -1.171875l0.234375 0.71875q-0.296875 0.765625 -1.03125 1.21875q-0.71875 0.453125 -1.8125 0.453125zm10.397217 -7.84375q0.9375 0 1.640625 0.359375q0.71875 0.359375 1.125 1.09375q0.40625 0.734375 0.40625 1.84375l0 4.46875l-1.046875 0l0 -4.375q0 -1.203125 -0.609375 -1.828125q-0.609375 -0.625 -1.703125 -0.625q-0.8125 0 -1.421875 0.328125q-0.609375 0.328125 -0.953125 0.953125q-0.328125 0.625 -0.328125 1.5l0 4.046875l-1.03125 0l0 -7.6875l1.0 0l0 2.109375l-0.171875 -0.40625q0.375 -0.828125 1.171875 -1.296875q0.8125 -0.484375 1.921875 -0.484375zm9.048294 7.84375q-1.09375 0 -1.96875 -0.5q-0.875 -0.5 -1.375 -1.390625q-0.5 -0.890625 -0.5 -2.046875q0 -1.171875 0.5 -2.046875q0.5 -0.875 1.375 -1.359375q0.875 -0.5 1.96875 -0.5q1.015625 0 1.8125 0.453125q0.796875 0.453125 1.265625 1.328125q0.484375 0.875 0.484375 2.125q0 1.25 -0.46875 2.140625q-0.46875 0.875 -1.265625 1.34375q-0.796875 0.453125 -1.828125 0.453125zm0.078125 -0.921875q0.8125 0 1.46875 -0.375q0.65625 -0.375 1.015625 -1.046875q0.375 -0.6875 0.375 -1.59375q0 -0.90625 -0.375 -1.578125q-0.359375 -0.671875 -1.015625 -1.046875q-0.65625 -0.375 -1.46875 -0.375q-0.8125 0 -1.46875 0.375q-0.640625 0.375 -1.015625 1.046875q-0.375 0.671875 -0.375 1.578125q0 0.90625 0.375 1.59375q0.375 0.671875 1.015625 1.046875q0.65625 0.375 1.46875 0.375zm2.890625 0.84375l0 -2.3125l0.109375 -1.5625l-0.140625 -1.546875l0 -5.453125l1.03125 0l0 10.875l-1.0 0zm3.9057312 0l0 -10.875l1.03125 0l0 10.875l-1.03125 0zm7.2081757 0.078125q-1.203125 0 -2.109375 -0.5q-0.90625 -0.515625 -1.421875 -1.40625q-0.515625 -0.890625 -0.515625 -2.03125q0 -1.140625 0.484375 -2.015625q0.5 -0.875 1.359375 -1.375q0.859375 -0.515625 1.921875 -0.515625q1.09375 0 1.921875 0.5q0.84375 0.484375 1.328125 1.375q0.484375 0.875 0.484375 2.03125q0 0.078125 -0.015625 0.15625q0 0.078125 0 0.171875l-6.6875 0l0 -0.78125l6.140625 0l-0.40625 0.3125q0 -0.84375 -0.359375 -1.484375q-0.359375 -0.65625 -0.984375 -1.015625q-0.609375 -0.375 -1.421875 -0.375q-0.78125 0 -1.421875 0.375q-0.625 0.359375 -0.984375 1.015625q-0.34375 0.65625 -0.34375 1.515625l0 0.15625q0 0.875 0.390625 1.546875q0.390625 0.671875 1.078125 1.046875q0.703125 0.375 1.59375 0.375q0.703125 0 1.3125 -0.25q0.609375 -0.25 1.046875 -0.765625l0.578125 0.671875q-0.5 0.609375 -1.28125 0.9375q-0.765625 0.328125 -1.6875 0.328125zm5.5867767 -0.078125l0 -7.6875l1.0 0l0 2.09375l-0.109375 -0.375q0.328125 -0.875 1.078125 -1.328125q0.765625 -0.46875 1.890625 -0.46875l0 1.015625q-0.046875 0 -0.109375 0q-0.0625 -0.015625 -0.125 -0.015625q-1.203125 0 -1.90625 0.734375q-0.6875 0.734375 -0.6875 2.109375l0 3.921875l-1.03125 0z" fill-rule="nonzero"/><path fill="#595959" d="m109.43639 159.05046l0 -0.90625l3.84375 0l0 0.90625l-3.84375 0z" fill-rule="nonzero"/><path fill="#595959" d="m141.17574 162.56609l-2.890625 -7.6875l0.984375 0l2.640625 7.125l-0.453125 0l2.71875 -7.125l0.890625 0l2.671875 7.125l-0.453125 0l2.6875 -7.125l0.953125 0l-2.921875 7.6875l-0.984375 0l-2.578125 -6.71875l0.3125 0l-2.59375 6.71875l-0.984375 0zm15.898224 0l0 -1.703125l-0.03125 -0.28125l0 -2.84375q0 -0.96875 -0.5625 -1.5q-0.546875 -0.53125 -1.625 -0.53125q-0.75 0 -1.421875 0.25q-0.671875 0.25 -1.140625 0.65625l-0.46875 -0.78125q0.578125 -0.484375 1.390625 -0.75q0.828125 -0.28125 1.734375 -0.28125q1.5 0 2.3125 0.75q0.8125 0.734375 0.8125 2.234375l0 4.78125l-1.0 0zm-2.640625 0.078125q-0.875 0 -1.515625 -0.28125q-0.625 -0.296875 -0.96875 -0.796875q-0.328125 -0.515625 -0.328125 -1.171875q0 -0.59375 0.28125 -1.078125q0.28125 -0.5 0.9375 -0.796875q0.65625 -0.3125 1.75 -0.3125l2.65625 0l0 0.78125l-2.625 0q-1.109375 0 -1.546875 0.40625q-0.4375 0.390625 -0.4375 0.96875q0 0.671875 0.515625 1.0625q0.515625 0.390625 1.4375 0.390625q0.875 0 1.515625 -0.390625q0.640625 -0.40625 0.9375 -1.171875l0.234375 0.71875q-0.296875 0.765625 -1.03125 1.21875q-0.71875 0.453125 -1.8125 0.453125zm6.475342 -0.078125l0 -7.6875l1.03125 0l0 7.6875l-1.03125 0zm0.515625 -9.390625q-0.3125 0 -0.53125 -0.21875q-0.21875 -0.21875 -0.21875 -0.53125q0 -0.3125 0.21875 -0.515625q0.21875 -0.21875 0.53125 -0.21875q0.328125 0 0.546875 0.203125q0.21875 0.203125 0.21875 0.515625q0 0.328125 -0.21875 0.546875q-0.203125 0.21875 -0.546875 0.21875zm5.8644257 9.46875q-1.09375 0 -1.6875 -0.578125q-0.578125 -0.59375 -0.578125 -1.671875l0 -7.21875l1.046875 0l0 7.15625q0 0.6875 0.34375 1.046875q0.34375 0.359375 0.984375 0.359375q0.6875 0 1.140625 -0.390625l0.375 0.75q-0.3125 0.28125 -0.75 0.421875q-0.421875 0.125 -0.875 0.125zm-3.640625 -6.90625l0 -0.859375l4.765625 0l0 0.859375l-4.765625 0zm7.393997 6.90625q-0.3125 0 -0.546875 -0.234375q-0.21875 -0.234375 -0.21875 -0.578125q0 -0.34375 0.21875 -0.5625q0.234375 -0.234375 0.546875 -0.234375q0.328125 0 0.546875 0.234375q0.234375 0.21875 0.234375 0.5625q0 0.34375 -0.234375 0.578125q-0.21875 0.234375 -0.546875 0.234375zm3.1875 0q-0.3125 0 -0.546875 -0.234375q-0.21875 -0.234375 -0.21875 -0.578125q0 -0.34375 0.21875 -0.5625q0.234375 -0.234375 0.546875 -0.234375q0.328125 0 0.546875 0.234375q0.234375 0.21875 0.234375 0.5625q0 0.34375 -0.234375 0.578125q-0.21875 0.234375 -0.546875 0.234375zm3.1875 0q-0.3125 0 -0.546875 -0.234375q-0.21875 -0.234375 -0.21875 -0.578125q0 -0.34375 0.21875 -0.5625q0.234375 -0.234375 0.546875 -0.234375q0.328125 0 0.546875 0.234375q0.234375 0.21875 0.234375 0.5625q0 0.34375 -0.234375 0.578125q-0.21875 0.234375 -0.546875 0.234375zm3.1076355 0q-0.3125 0 -0.546875 -0.234375q-0.21875 -0.234375 -0.21875 -0.578125q0 -0.34375 0.21875 -0.5625q0.234375 -0.234375 0.546875 -0.234375q0.328125 0 0.546875 0.234375q0.234375 0.21875 0.234375 0.5625q0 0.34375 -0.234375 0.578125q-0.21875 0.234375 -0.546875 0.234375z" fill-rule="nonzero"/><path fill="#595959" d="m109.43639 176.65047l0 -0.90625l3.84375 0l0 0.90625l-3.84375 0z" fill-rule="nonzero"/><path fill="#595959" d="m143.58199 180.24422q-1.0 0 -1.8125 -0.453125q-0.796875 -0.46875 -1.28125 -1.34375q-0.46875 -0.875 -0.46875 -2.140625q0 -1.25 0.46875 -2.125q0.46875 -0.875 1.265625 -1.328125q0.8125 -0.453125 1.828125 -0.453125q1.09375 0 1.96875 0.5q0.875 0.484375 1.375 1.375q0.5 0.875 0.5 2.03125q0 1.171875 -0.5 2.0625q-0.5 0.875 -1.375 1.375q-0.875 0.5 -1.96875 0.5zm-3.96875 2.765625l0 -10.53125l1.0 0l0 2.3125l-0.109375 1.53125l0.140625 1.5625l0 5.125l-1.03125 0zm3.890625 -3.6875q0.828125 0 1.46875 -0.375q0.640625 -0.375 1.015625 -1.046875q0.390625 -0.6875 0.390625 -1.59375q0 -0.890625 -0.390625 -1.5625q-0.375 -0.671875 -1.015625 -1.046875q-0.640625 -0.390625 -1.46875 -0.390625q-0.8125 0 -1.46875 0.390625q-0.65625 0.375 -1.03125 1.046875q-0.359375 0.671875 -0.359375 1.5625q0 0.90625 0.359375 1.59375q0.375 0.671875 1.03125 1.046875q0.65625 0.375 1.46875 0.375zm6.046356 0.84375l0 -7.6875l1.0 0l0 2.09375l-0.109375 -0.375q0.328125 -0.875 1.078125 -1.328125q0.765625 -0.46875 1.890625 -0.46875l0 1.015625q-0.046875 0 -0.109375 0q-0.0625 -0.015625 -0.125 -0.015625q-1.203125 0 -1.90625 0.734375q-0.6875 0.734375 -0.6875 2.109375l0 3.921875l-1.03125 0zm5.759842 0l0 -7.6875l1.03125 0l0 7.6875l-1.03125 0zm0.515625 -9.390625q-0.3125 0 -0.53125 -0.21875q-0.21875 -0.21875 -0.21875 -0.53125q0 -0.3125 0.21875 -0.515625q0.21875 -0.21875 0.53125 -0.21875q0.328125 0 0.546875 0.203125q0.21875 0.203125 0.21875 0.515625q0 0.328125 -0.21875 0.546875q-0.203125 0.21875 -0.546875 0.21875zm7.3488007 1.625q0.9375 0 1.640625 0.359375q0.71875 0.359375 1.125 1.09375q0.40625 0.734375 0.40625 1.84375l0 4.46875l-1.046875 0l0 -4.375q0 -1.203125 -0.609375 -1.828125q-0.609375 -0.625 -1.703125 -0.625q-0.8125 0 -1.421875 0.328125q-0.609375 0.328125 -0.953125 0.953125q-0.328125 0.625 -0.328125 1.5l0 4.046875l-1.03125 0l0 -7.6875l1.0 0l0 2.109375l-0.171875 -0.40625q0.375 -0.828125 1.171875 -1.296875q0.8125 -0.484375 1.921875 -0.484375zm8.423294 7.84375q-1.09375 0 -1.6875 -0.578125q-0.578125 -0.59375 -0.578125 -1.671875l0 -7.21875l1.046875 0l0 7.15625q0 0.6875 0.34375 1.046875q0.34375 0.359375 0.984375 0.359375q0.6875 0 1.140625 -0.390625l0.375 0.75q-0.3125 0.28125 -0.75 0.421875q-0.421875 0.125 -0.875 0.125zm-3.640625 -6.90625l0 -0.859375l4.765625 0l0 0.859375l-4.765625 0zm9.21608 6.90625q-0.953125 0 -1.8125 -0.265625q-0.84375 -0.28125 -1.328125 -0.6875l0.46875 -0.828125q0.46875 0.359375 1.203125 0.625q0.734375 0.25 1.546875 0.25q1.09375 0 1.578125 -0.34375q0.484375 -0.359375 0.484375 -0.921875q0 -0.421875 -0.28125 -0.65625q-0.265625 -0.25 -0.703125 -0.375q-0.4375 -0.125 -0.984375 -0.203125q-0.53125 -0.09375 -1.078125 -0.21875q-0.53125 -0.125 -0.96875 -0.34375q-0.4375 -0.234375 -0.71875 -0.625q-0.265625 -0.390625 -0.265625 -1.046875q0 -0.640625 0.34375 -1.140625q0.359375 -0.5 1.03125 -0.78125q0.6875 -0.28125 1.671875 -0.28125q0.75 0 1.5 0.203125q0.75 0.1875 1.234375 0.515625l-0.453125 0.828125q-0.515625 -0.34375 -1.109375 -0.5q-0.578125 -0.15625 -1.171875 -0.15625q-1.03125 0 -1.53125 0.359375q-0.484375 0.359375 -0.484375 0.921875q0 0.4375 0.265625 0.6875q0.28125 0.25 0.71875 0.390625q0.453125 0.140625 0.984375 0.234375q0.53125 0.078125 1.0625 0.203125q0.546875 0.125 0.984375 0.34375q0.453125 0.203125 0.71875 0.59375q0.28125 0.390625 0.28125 1.015625q0 0.671875 -0.375 1.171875q-0.375 0.484375 -1.09375 0.765625q-0.703125 0.265625 -1.71875 0.265625zm11.367233 0q-1.09375 0 -1.6875 -0.578125q-0.578125 -0.59375 -0.578125 -1.671875l0 -7.21875l1.046875 0l0 7.15625q0 0.6875 0.34375 1.046875q0.34375 0.359375 0.984375 0.359375q0.6875 0 1.140625 -0.390625l0.375 0.75q-0.3125 0.28125 -0.75 0.421875q-0.421875 0.125 -0.875 0.125zm-3.640625 -6.90625l0 -0.859375l4.765625 0l0 0.859375l-4.765625 0zm10.015533 6.90625q-1.125 0 -2.015625 -0.5q-0.875 -0.515625 -1.390625 -1.40625q-0.515625 -0.890625 -0.515625 -2.03125q0 -1.15625 0.515625 -2.03125q0.515625 -0.875 1.390625 -1.375q0.875 -0.5 2.015625 -0.5q1.140625 0 2.015625 0.5q0.890625 0.5 1.390625 1.375q0.515625 0.875 0.515625 2.03125q0 1.140625 -0.515625 2.03125q-0.5 0.890625 -1.390625 1.40625q-0.890625 0.5 -2.015625 0.5zm0 -0.921875q0.828125 0 1.46875 -0.375q0.65625 -0.375 1.015625 -1.046875q0.375 -0.6875 0.375 -1.59375q0 -0.90625 -0.375 -1.578125q-0.359375 -0.671875 -1.015625 -1.046875q-0.640625 -0.375 -1.453125 -0.375q-0.828125 0 -1.484375 0.375q-0.640625 0.375 -1.015625 1.046875q-0.375 0.671875 -0.375 1.578125q0 0.90625 0.375 1.59375q0.375 0.671875 1.015625 1.046875q0.65625 0.375 1.46875 0.375zm12.326324 0.921875q-1.09375 0 -1.6875 -0.578125q-0.578125 -0.59375 -0.578125 -1.671875l0 -7.21875l1.046875 0l0 7.15625q0 0.6875 0.34375 1.046875q0.34375 0.359375 0.984375 0.359375q0.6875 0 1.140625 -0.390625l0.375 0.75q-0.3125 0.28125 -0.75 0.421875q-0.421875 0.125 -0.875 0.125zm-3.640625 -6.90625l0 -0.859375l4.765625 0l0 0.859375l-4.765625 0zm10.140533 6.90625q-1.203125 0 -2.109375 -0.5q-0.90625 -0.515625 -1.421875 -1.40625q-0.515625 -0.890625 -0.515625 -2.03125q0 -1.140625 0.484375 -2.015625q0.5 -0.875 1.359375 -1.375q0.859375 -0.515625 1.921875 -0.515625q1.09375 0 1.921875 0.5q0.84375 0.484375 1.328125 1.375q0.484375 0.875 0.484375 2.03125q0 0.078125 -0.015625 0.15625q0 0.078125 0 0.171875l-6.6875 0l0 -0.78125l6.140625 0l-0.40625 0.3125q0 -0.84375 -0.359375 -1.484375q-0.359375 -0.65625 -0.984375 -1.015625q-0.609375 -0.375 -1.421875 -0.375q-0.78125 0 -1.421875 0.375q-0.625 0.359375 -0.984375 1.015625q-0.34375 0.65625 -0.34375 1.515625l0 0.15625q0 0.875 0.390625 1.546875q0.390625 0.671875 1.078125 1.046875q0.703125 0.375 1.59375 0.375q0.703125 0 1.3125 -0.25q0.609375 -0.25 1.046875 -0.765625l0.578125 0.671875q-0.5 0.609375 -1.28125 0.9375q-0.765625 0.328125 -1.6875 0.328125zm5.5867767 -0.078125l0 -7.6875l1.0 0l0 2.09375l-0.109375 -0.375q0.328125 -0.875 1.078125 -1.328125q0.765625 -0.46875 1.890625 -0.46875l0 1.015625q-0.046875 0 -0.109375 0q-0.0625 -0.015625 -0.125 -0.015625q-1.203125 0 -1.90625 0.734375q-0.6875 0.734375 -0.6875 2.109375l0 3.921875l-1.03125 0zm15.369217 -7.765625q0.9375 0 1.625 0.359375q0.703125 0.359375 1.09375 1.09375q0.390625 0.734375 0.390625 1.84375l0 4.46875l-1.046875 0l0 -4.375q0 -1.203125 -0.578125 -1.828125q-0.578125 -0.625 -1.625 -0.625q-0.796875 0 -1.375 0.328125q-0.578125 0.328125 -0.890625 0.953125q-0.3125 0.625 -0.3125 1.5l0 4.046875l-1.046875 0l0 -4.375q0 -1.203125 -0.59375 -1.828125q-0.578125 -0.625 -1.625 -0.625q-0.78125 0 -1.375 0.328125q-0.578125 0.328125 -0.90625 0.953125q-0.3125 0.625 -0.3125 1.5l0 4.046875l-1.03125 0l0 -7.6875l1.0 0l0 2.078125l-0.171875 -0.375q0.359375 -0.828125 1.140625 -1.296875q0.78125 -0.484375 1.859375 -0.484375q1.125 0 1.90625 0.5625q0.796875 0.5625 1.03125 1.6875l-0.40625 -0.15625q0.34375 -0.9375 1.1875 -1.515625q0.859375 -0.578125 2.0625 -0.578125zm5.9409637 7.765625l0 -7.6875l1.03125 0l0 7.6875l-1.03125 0zm0.515625 -9.390625q-0.3125 0 -0.53125 -0.21875q-0.21875 -0.21875 -0.21875 -0.53125q0 -0.3125 0.21875 -0.515625q0.21875 -0.21875 0.53125 -0.21875q0.328125 0 0.546875 0.203125q0.21875 0.203125 0.21875 0.515625q0 0.328125 -0.21875 0.546875q-0.203125 0.21875 -0.546875 0.21875zm7.3488007 1.625q0.9375 0 1.640625 0.359375q0.71875 0.359375 1.125 1.09375q0.40625 0.734375 0.40625 1.84375l0 4.46875l-1.046875 0l0 -4.375q0 -1.203125 -0.609375 -1.828125q-0.609375 -0.625 -1.703125 -0.625q-0.8125 0 -1.421875 0.328125q-0.609375 0.328125 -0.953125 0.953125q-0.328125 0.625 -0.328125 1.5l0 4.046875l-1.03125 0l0 -7.6875l1.0 0l0 2.109375l-0.171875 -0.40625q0.375 -0.828125 1.171875 -1.296875q0.8125 -0.484375 1.921875 -0.484375zm10.798279 7.765625l0 -1.703125l-0.03125 -0.28125l0 -2.84375q0 -0.96875 -0.5625 -1.5q-0.546875 -0.53125 -1.625 -0.53125q-0.75 0 -1.4218597 0.25q-0.671875 0.25 -1.140625 0.65625l-0.46875 -0.78125q0.578125 -0.484375 1.390625 -0.75q0.82810974 -0.28125 1.7343597 -0.28125q1.5 0 2.3125 0.75q0.8125 0.734375 0.8125 2.234375l0 4.78125l-1.0 0zm-2.640625 0.078125q-0.87498474 0 -1.5156097 -0.28125q-0.625 -0.296875 -0.96875 -0.796875q-0.328125 -0.515625 -0.328125 -1.171875q0 -0.59375 0.28125 -1.078125q0.28125 -0.5 0.9375 -0.796875q0.65625 -0.3125 1.7499847 -0.3125l2.65625 0l0 0.78125l-2.625 0q-1.1093597 0 -1.5468597 0.40625q-0.4375 0.390625 -0.4375 0.96875q0 0.671875 0.515625 1.0625q0.515625 0.390625 1.4374847 0.390625q0.875 0 1.515625 -0.390625q0.640625 -0.40625 0.9375 -1.171875l0.234375 0.71875q-0.296875 0.765625 -1.03125 1.21875q-0.71875 0.453125 -1.8125 0.453125zm6.475342 -0.078125l0 -10.875l1.03125 0l0 10.875l-1.03125 0z" fill-rule="nonzero"/><path fill="#000000" fill-opacity="0.0" d="m585.1601 104.28609l250.33069 0l0 72.72441l-250.33069 0z" fill-rule="evenodd"/><path fill="#595959" d="m613.4364 123.850464l0 -0.90625l3.84375 0l0 0.90625l-3.84375 0z" fill-rule="nonzero"/><path fill="#595959" d="m645.6757 127.444214q-0.953125 0 -1.8125 -0.265625q-0.84375 -0.28125 -1.328125 -0.6875l0.46875 -0.828125q0.46875 0.359375 1.203125 0.625q0.734375 0.25 1.546875 0.25q1.09375 0 1.578125 -0.34375q0.484375 -0.359375 0.484375 -0.921875q0 -0.421875 -0.28125 -0.65625q-0.265625 -0.25 -0.703125 -0.375q-0.4375 -0.125 -0.984375 -0.203125q-0.53125 -0.09375 -1.078125 -0.21875q-0.53125 -0.125 -0.96875 -0.34375q-0.4375 -0.234375 -0.71875 -0.625q-0.265625 -0.390625 -0.265625 -1.046875q0 -0.640625 0.34375 -1.140625q0.359375 -0.5 1.03125 -0.78125q0.6875 -0.28125 1.671875 -0.28125q0.75 0 1.5 0.203125q0.75 0.1875 1.234375 0.515625l-0.453125 0.828125q-0.515625 -0.34375 -1.109375 -0.5q-0.578125 -0.15625 -1.171875 -0.15625q-1.03125 0 -1.53125 0.359375q-0.484375 0.359375 -0.484375 0.921875q0 0.4375 0.265625 0.6875q0.28125 0.25 0.71875 0.390625q0.453125 0.140625 0.984375 0.234375q0.53125 0.078125 1.0625 0.203125q0.546875 0.125 0.984375 0.34375q0.453125 0.203125 0.71875 0.59375q0.28125 0.390625 0.28125 1.015625q0 0.671875 -0.375 1.171875q-0.375 0.484375 -1.09375 0.765625q-0.703125 0.265625 -1.71875 0.265625zm8.355408 0q-1.203125 0 -2.109375 -0.5q-0.90625 -0.515625 -1.421875 -1.40625q-0.515625 -0.890625 -0.515625 -2.03125q0 -1.140625 0.484375 -2.015625q0.5 -0.875 1.359375 -1.375q0.859375 -0.515625 1.921875 -0.515625q1.09375 0 1.921875 0.5q0.84375 0.484375 1.328125 1.375q0.484375 0.875 0.484375 2.03125q0 0.078125 -0.015625 0.15625q0 0.078125 0 0.171875l-6.6875 0l0 -0.78125l6.140625 0l-0.40625 0.3125q0 -0.84375 -0.359375 -1.484375q-0.359375 -0.65625 -0.984375 -1.015625q-0.609375 -0.375 -1.421875 -0.375q-0.78125 0 -1.421875 0.375q-0.625 0.359375 -0.984375 1.015625q-0.34375 0.65625 -0.34375 1.515625l0 0.15625q0 0.875 0.390625 1.546875q0.390625 0.671875 1.078125 1.046875q0.703125 0.375 1.59375 0.375q0.703125 0 1.3125 -0.25q0.609375 -0.25 1.046875 -0.765625l0.578125 0.671875q-0.5 0.609375 -1.28125 0.9375q-0.765625 0.328125 -1.6875 0.328125zm9.508667 -7.84375q0.9375 0 1.640625 0.359375q0.71875 0.359375 1.125 1.09375q0.40625 0.734375 0.40625 1.84375l0 4.46875l-1.046875 0l0 -4.375q0 -1.203125 -0.609375 -1.828125q-0.609375 -0.625 -1.703125 -0.625q-0.8125 0 -1.421875 0.328125q-0.609375 0.328125 -0.953125 0.953125q-0.328125 0.625 -0.328125 1.5l0 4.046875l-1.03125 0l0 -7.6875l1.0 0l0 2.109375l-0.171875 -0.40625q0.375 -0.828125 1.171875 -1.296875q0.8125 -0.484375 1.921875 -0.484375zm9.048279 7.84375q-1.09375 0 -1.96875 -0.5q-0.875 -0.5 -1.375 -1.390625q-0.5 -0.890625 -0.5 -2.046875q0 -1.171875 0.5 -2.046875q0.5 -0.875 1.375 -1.359375q0.875 -0.5 1.96875 -0.5q1.015625 0 1.8125 0.453125q0.796875 0.453125 1.265625 1.328125q0.484375 0.875 0.484375 2.125q0 1.25 -0.46875 2.140625q-0.46875 0.875 -1.265625 1.34375q-0.796875 0.453125 -1.828125 0.453125zm0.078125 -0.921875q0.8125 0 1.46875 -0.375q0.65625 -0.375 1.015625 -1.046875q0.375 -0.6875 0.375 -1.59375q0 -0.90625 -0.375 -1.578125q-0.359375 -0.671875 -1.015625 -1.046875q-0.65625 -0.375 -1.46875 -0.375q-0.8125 0 -1.46875 0.375q-0.640625 0.375 -1.015625 1.046875q-0.375 0.671875 -0.375 1.578125q0 0.90625 0.375 1.59375q0.375 0.671875 1.015625 1.046875q0.65625 0.375 1.46875 0.375zm2.890625 0.84375l0 -2.3125l0.109375 -1.5625l-0.140625 -1.546875l0 -5.453125l1.03125 0l0 10.875l-1.0 0zm5.9682617 0.078125q-0.953125 0 -1.8125 -0.265625q-0.84375 -0.28125 -1.328125 -0.6875l0.46875 -0.828125q0.46875 0.359375 1.203125 0.625q0.734375 0.25 1.546875 0.25q1.09375 0 1.578125 -0.34375q0.484375 -0.359375 0.484375 -0.921875q0 -0.421875 -0.28125 -0.65625q-0.265625 -0.25 -0.703125 -0.375q-0.4375 -0.125 -0.984375 -0.203125q-0.53125 -0.09375 -1.078125 -0.21875q-0.53125 -0.125 -0.96875 -0.34375q-0.4375 -0.234375 -0.71875 -0.625q-0.265625 -0.390625 -0.265625 -1.046875q0 -0.640625 0.34375 -1.140625q0.359375 -0.5 1.03125 -0.78125q0.6875 -0.28125 1.671875 -0.28125q0.75 0 1.5 0.203125q0.75 0.1875 1.234375 0.515625l-0.453125 0.828125q-0.515625 -0.34375 -1.109375 -0.5q-0.578125 -0.15625 -1.171875 -0.15625q-1.03125 0 -1.53125 0.359375q-0.484375 0.359375 -0.484375 0.921875q0 0.4375 0.265625 0.6875q0.28125 0.25 0.71875 0.390625q0.453125 0.140625 0.984375 0.234375q0.53125 0.078125 1.0625 0.203125q0.546875 0.125 0.984375 0.34375q0.453125 0.203125 0.71875 0.59375q0.28125 0.390625 0.28125 1.015625q0 0.671875 -0.375 1.171875q-0.375 0.484375 -1.09375 0.765625q-0.703125 0.265625 -1.71875 0.265625zm9.7578125 -10.953125l-0.640625 2.71875l-0.109375 -0.640625q0.34375 0 0.5625 0.21875q0.21875 0.203125 0.21875 0.5625q0 0.34375 -0.21875 0.578125q-0.21875 0.21875 -0.546875 0.21875q-0.34375 0 -0.5625 -0.234375q-0.203125 -0.234375 -0.203125 -0.5625q0 -0.140625 0.015625 -0.234375q0.015625 -0.109375 0.046875 -0.25q0.046875 -0.140625 0.125 -0.359375l0.609375 -2.015625l0.703125 0z" fill-rule="nonzero"/><path fill="#ff0000" d="m696.5463 127.49109q-1.109375 0 -2.015625 -0.5q-0.890625 -0.515625 -1.40625 -1.421875q-0.515625 -0.921875 -0.515625 -2.140625q0 -1.25 0.515625 -2.15625q0.515625 -0.90625 1.40625 -1.40625q0.90625 -0.5 2.015625 -0.5q1.0 0 1.75 0.4375q0.75 0.4375 1.15625 1.34375q0.40625 0.890625 0.40625 2.28125q0 1.375 -0.390625 2.28125q-0.390625 0.890625 -1.140625 1.34375q-0.734375 0.4375 -1.78125 0.4375zm0.40625 -1.890625q0.546875 0 1.0 -0.25q0.453125 -0.265625 0.71875 -0.75q0.28125 -0.5 0.28125 -1.171875q0 -0.6875 -0.28125 -1.171875q-0.265625 -0.484375 -0.71875 -0.75q-0.453125 -0.265625 -1.0 -0.265625q-0.578125 0 -1.03125 0.265625q-0.453125 0.265625 -0.734375 0.75q-0.265625 0.484375 -0.265625 1.171875q0 0.671875 0.265625 1.171875q0.28125 0.484375 0.734375 0.75q0.453125 0.25 1.03125 0.25zm2.0625 1.765625l0 -1.609375l0.046875 -2.34375l-0.15625 -2.328125l0 -4.59375l2.296875 0l0 10.875l-2.1875 0z" fill-rule="nonzero"/><path fill="#0000ff" d="m707.0635 127.49109q-1.265625 0 -2.25 -0.53125q-0.96875 -0.53125 -1.53125 -1.4375q-0.5625 -0.921875 -0.5625 -2.09375q0 -1.1875 0.5625 -2.109375q0.5625 -0.921875 1.53125 -1.4375q0.984375 -0.515625 2.25 -0.515625q1.234375 0 2.21875 0.515625q0.984375 0.515625 1.53125 1.4375q0.5625 0.90625 0.5625 2.109375q0 1.171875 -0.5625 2.09375q-0.546875 0.90625 -1.53125 1.4375q-0.984375 0.53125 -2.21875 0.53125zm0 -1.890625q0.5625 0 1.015625 -0.25q0.453125 -0.265625 0.71875 -0.75q0.265625 -0.5 0.265625 -1.171875q0 -0.6875 -0.265625 -1.171875q-0.265625 -0.484375 -0.71875 -0.75q-0.453125 -0.265625 -1.015625 -0.265625q-0.578125 0 -1.03125 0.265625q-0.453125 0.265625 -0.734375 0.75q-0.265625 0.484375 -0.265625 1.171875q0 0.671875 0.265625 1.171875q0.28125 0.484375 0.734375 0.75q0.453125 0.25 1.03125 0.25z" fill-rule="nonzero"/><path fill="#6aa84f" d="m716.61646 130.31921q-1.109375 0 -2.15625 -0.265625q-1.03125 -0.265625 -1.71875 -0.8125l0.90625 -1.640625q0.5 0.40625 1.265625 0.640625q0.78125 0.25 1.53125 0.25q1.203125 0 1.75 -0.546875q0.5625 -0.53125 0.5625 -1.609375l0 -1.1875l0.140625 -1.96875l-0.03125 -2.0l0 -1.703125l2.171875 0l0 6.578125q0 2.1875 -1.140625 3.21875q-1.140625 1.046875 -3.28125 1.046875zm-0.359375 -3.328125q-1.09375 0 -1.984375 -0.46875q-0.890625 -0.484375 -1.421875 -1.34375q-0.53125 -0.859375 -0.53125 -2.0q0 -1.15625 0.53125 -2.015625q0.53125 -0.859375 1.421875 -1.328125q0.890625 -0.46875 1.984375 -0.46875q1.0 0 1.765625 0.40625q0.765625 0.390625 1.1875 1.234375q0.421875 0.84375 0.421875 2.171875q0 1.296875 -0.421875 2.140625q-0.421875 0.84375 -1.1875 1.265625q-0.765625 0.40625 -1.765625 0.40625zm0.453125 -1.875q0.609375 0 1.078125 -0.234375q0.46875 -0.25 0.734375 -0.6875q0.265625 -0.453125 0.265625 -1.015625q0 -0.59375 -0.265625 -1.015625q-0.265625 -0.4375 -0.734375 -0.671875q-0.46875 -0.25 -1.078125 -0.25q-0.59375 0 -1.0625 0.25q-0.46875 0.234375 -0.75 0.671875q-0.265625 0.421875 -0.265625 1.015625q0 0.5625 0.265625 1.015625q0.28125 0.4375 0.75 0.6875q0.46875 0.234375 1.0625 0.234375z" fill-rule="nonzero"/><path fill="#595959" d="m722.9384 120.069214l0.640625 -2.703125l0.109375 0.625q-0.328125 0 -0.5625 -0.21875q-0.21875 -0.21875 -0.21875 -0.5625q0 -0.359375 0.21875 -0.578125q0.234375 -0.21875 0.546875 -0.21875q0.34375 0 0.546875 0.234375q0.21875 0.21875 0.21875 0.5625q0 0.109375 -0.015625 0.234375q-0.015625 0.109375 -0.046875 0.25q-0.03125 0.140625 -0.109375 0.34375l-0.625 2.03125l-0.703125 0zm10.0095825 7.375q-1.09375 0 -1.6875 -0.578125q-0.578125 -0.59375 -0.578125 -1.671875l0 -7.21875l1.046875 0l0 7.15625q0 0.6875 0.34375 1.046875q0.34375 0.359375 0.984375 0.359375q0.6875 0 1.140625 -0.390625l0.375 0.75q-0.3125 0.28125 -0.75 0.421875q-0.421875 0.125 -0.875 0.125zm-3.640625 -6.90625l0 -0.859375l4.765625 0l0 0.859375l-4.765625 0zm10.015503 6.90625q-1.125 0 -2.015625 -0.5q-0.875 -0.515625 -1.390625 -1.40625q-0.515625 -0.890625 -0.515625 -2.03125q0 -1.15625 0.515625 -2.03125q0.515625 -0.875 1.390625 -1.375q0.875 -0.5 2.015625 -0.5q1.140625 0 2.015625 0.5q0.890625 0.5 1.390625 1.375q0.515625 0.875 0.515625 2.03125q0 1.140625 -0.515625 2.03125q-0.5 0.890625 -1.390625 1.40625q-0.890625 0.5 -2.015625 0.5zm0 -0.921875q0.828125 0 1.46875 -0.375q0.65625 -0.375 1.015625 -1.046875q0.375 -0.6875 0.375 -1.59375q0 -0.90625 -0.375 -1.578125q-0.359375 -0.671875 -1.015625 -1.046875q-0.640625 -0.375 -1.453125 -0.375q-0.828125 0 -1.484375 0.375q-0.640625 0.375 -1.015625 1.046875q-0.375 0.671875 -0.375 1.578125q0 0.90625 0.375 1.59375q0.375 0.671875 1.015625 1.046875q0.65625 0.375 1.46875 0.375zm11.951355 0.921875q-0.953125 0 -1.8125 -0.265625q-0.84375 -0.28125 -1.328125 -0.6875l0.46875 -0.828125q0.46875 0.359375 1.203125 0.625q0.734375 0.25 1.546875 0.25q1.09375 0 1.578125 -0.34375q0.484375 -0.359375 0.484375 -0.921875q0 -0.421875 -0.28125 -0.65625q-0.265625 -0.25 -0.703125 -0.375q-0.4375 -0.125 -0.984375 -0.203125q-0.53125 -0.09375 -1.078125 -0.21875q-0.53125 -0.125 -0.96875 -0.34375q-0.4375 -0.234375 -0.71875 -0.625q-0.265625 -0.390625 -0.265625 -1.046875q0 -0.640625 0.34375 -1.140625q0.359375 -0.5 1.03125 -0.78125q0.6875 -0.28125 1.671875 -0.28125q0.75 0 1.5 0.203125q0.75 0.1875 1.234375 0.515625l-0.453125 0.828125q-0.515625 -0.34375 -1.109375 -0.5q-0.578125 -0.15625 -1.171875 -0.15625q-1.03125 0 -1.53125 0.359375q-0.484375 0.359375 -0.484375 0.921875q0 0.4375 0.265625 0.6875q0.28125 0.25 0.71875 0.390625q0.453125 0.140625 0.984375 0.234375q0.53125 0.078125 1.0625 0.203125q0.546875 0.125 0.984375 0.34375q0.453125 0.203125 0.71875 0.59375q0.28125 0.390625 0.28125 1.015625q0 0.671875 -0.375 1.171875q-0.375 0.484375 -1.09375 0.765625q-0.703125 0.265625 -1.71875 0.265625zm5.3085327 -0.078125l0 -10.265625l3.84375 0q1.296875 0 2.234375 0.421875q0.9375 0.421875 1.4375 1.203125q0.515625 0.78125 0.515625 1.90625q0 1.078125 -0.515625 1.859375q-0.5 0.78125 -1.4375 1.21875q-0.9375 0.421875 -2.234375 0.421875l-3.25 0l0.484375 -0.515625l0 3.75l-1.078125 0zm1.078125 -3.671875l-0.484375 -0.515625l3.21875 0q1.53125 0 2.328125 -0.671875q0.8125 -0.671875 0.8125 -1.875q0 -1.234375 -0.8125 -1.90625q-0.796875 -0.6875 -2.328125 -0.6875l-3.21875 0l0.484375 -0.5l0 6.15625zm9.298401 3.671875l0 -10.265625l1.078125 0l0 10.265625l-1.078125 0zm4.4262085 0l0 -10.265625l4.171875 0q1.640625 0 2.875 0.65625q1.25 0.65625 1.9375 1.8125q0.6875 1.15625 0.6875 2.671875q0 1.5 -0.6875 2.671875q-0.6875 1.15625 -1.9375 1.8125q-1.234375 0.640625 -2.875 0.640625l-4.171875 0zm1.078125 -0.9375l3.046875 0q1.359375 0 2.359375 -0.53125q1.0 -0.546875 1.5625 -1.484375q0.5625 -0.953125 0.5625 -2.171875q0 -1.25 -0.5625 -2.1875q-0.5625 -0.9375 -1.5625 -1.46875q-1.0 -0.546875 -2.359375 -0.546875l-3.046875 0l0 8.390625z" fill-rule="nonzero"/><path fill="#595959" d="m613.4364 141.45047l0 -0.90625l3.84375 0l0 0.90625l-3.84375 0z" fill-rule="nonzero"/><path fill="#595959" d="m644.4257 142.9661l0.03125 -1.328125l4.796875 -4.359375l1.28125 0l-3.390625 3.234375l-0.59375 0.5l-2.125 1.953125zm-0.8125 2.0l0 -10.875l1.03125 0l0 10.875l-1.03125 0zm5.96875 0l-3.21875 -4.0l0.671875 -0.8125l3.8125 4.8125l-1.265625 0zm2.8397217 0l0 -7.6875l1.03125 0l0 7.6875l-1.03125 0zm0.515625 -9.390625q-0.3125 0 -0.53125 -0.21875q-0.21875 -0.21875 -0.21875 -0.53125q0 -0.3125 0.21875 -0.515625q0.21875 -0.21875 0.53125 -0.21875q0.328125 0 0.546875 0.203125q0.21875 0.203125 0.21875 0.515625q0 0.328125 -0.21875 0.546875q-0.203125 0.21875 -0.546875 0.21875zm3.42688 9.390625l0 -10.875l1.03125 0l0 10.875l-1.03125 0zm3.942566 0l0 -10.875l1.03125 0l0 10.875l-1.03125 0zm5.708191 2.84375q-0.796875 -1.328125 -1.25 -3.078125q-0.4375 -1.765625 -0.4375 -3.78125q0 -2.015625 0.4375 -3.78125q0.453125 -1.78125 1.25 -3.078125l1.0 0q-0.859375 1.515625 -1.265625 3.203125q-0.40625 1.6875 -0.40625 3.65625q0 1.96875 0.40625 3.65625q0.40625 1.6875 1.265625 3.203125l-1.0 0zm3.1812744 0l-0.984375 0q0.875 -1.515625 1.265625 -3.203125q0.40625 -1.6875 0.40625 -3.65625q0 -1.96875 -0.40625 -3.65625q-0.390625 -1.6875 -1.265625 -3.203125l0.984375 0q0.84375 1.296875 1.28125 3.078125q0.4375 1.765625 0.4375 3.78125q0 2.015625 -0.4375 3.78125q-0.4375 1.75 -1.28125 3.078125z" fill-rule="nonzero"/><path fill="#595959" d="m613.4364 159.05046l0 -0.90625l3.84375 0l0 0.90625l-3.84375 0z" fill-rule="nonzero"/><path fill="#595959" d="m646.6601 162.65984q-1.140625 0 -2.1875 -0.375q-1.046875 -0.375 -1.625 -0.96875l0.421875 -0.828125q0.546875 0.53125 1.453125 0.890625q0.921875 0.359375 1.9375 0.359375q0.96875 0 1.578125 -0.234375q0.609375 -0.25 0.890625 -0.65625q0.28125 -0.421875 0.28125 -0.921875q0 -0.59375 -0.34375 -0.953125q-0.34375 -0.375 -0.90625 -0.578125q-0.546875 -0.21875 -1.21875 -0.375q-0.671875 -0.171875 -1.359375 -0.34375q-0.671875 -0.1875 -1.234375 -0.5q-0.5625 -0.3125 -0.90625 -0.8125q-0.34375 -0.515625 -0.34375 -1.328125q0 -0.765625 0.40625 -1.40625q0.40625 -0.640625 1.234375 -1.015625q0.84375 -0.390625 2.140625 -0.390625q0.859375 0 1.703125 0.25q0.859375 0.234375 1.484375 0.65625l-0.375 0.859375q-0.65625 -0.4375 -1.40625 -0.640625q-0.734375 -0.203125 -1.421875 -0.203125q-0.921875 0 -1.53125 0.25q-0.59375 0.25 -0.875 0.671875q-0.28125 0.40625 -0.28125 0.9375q0 0.59375 0.34375 0.96875q0.34375 0.359375 0.90625 0.578125q0.5625 0.203125 1.234375 0.359375q0.671875 0.15625 1.328125 0.359375q0.671875 0.1875 1.234375 0.484375q0.578125 0.296875 0.921875 0.796875q0.34375 0.5 0.34375 1.296875q0 0.75 -0.421875 1.390625q-0.40625 0.640625 -1.25 1.03125q-0.84375 0.390625 -2.15625 0.390625zm6.185486 -0.09375l0 -10.265625l1.078125 0l0 10.265625l-1.078125 0zm8.9262085 0.09375q-1.171875 0 -2.171875 -0.390625q-0.984375 -0.390625 -1.71875 -1.09375q-0.71875 -0.703125 -1.125 -1.65625q-0.390625 -0.953125 -0.390625 -2.078125q0 -1.140625 0.390625 -2.078125q0.40625 -0.953125 1.140625 -1.65625q0.734375 -0.71875 1.71875 -1.09375q1.0 -0.390625 2.171875 -0.390625q1.171875 0 2.140625 0.375q0.984375 0.359375 1.671875 1.109375l-0.671875 0.6875q-0.65625 -0.65625 -1.4375 -0.921875q-0.765625 -0.28125 -1.65625 -0.28125q-0.953125 0 -1.765625 0.3125q-0.796875 0.3125 -1.390625 0.890625q-0.59375 0.578125 -0.921875 1.359375q-0.328125 0.765625 -0.328125 1.6875q0 0.90625 0.328125 1.6875q0.328125 0.765625 0.921875 1.34375q0.59375 0.578125 1.390625 0.90625q0.8125 0.3125 1.75 0.3125q0.875 0 1.65625 -0.265625q0.78125 -0.265625 1.453125 -0.890625l0.609375 0.8125q-0.734375 0.640625 -1.71875 0.984375q-0.984375 0.328125 -2.046875 0.328125zm2.71875 -1.4375l0 -3.78125l1.046875 0l0 3.90625l-1.046875 -0.125zm8.235596 1.4375q-1.953125 0 -3.09375 -1.125q-1.125 -1.140625 -1.125 -3.34375l0 -5.890625l1.09375 0l0 5.84375q0 1.8125 0.8125 2.6875q0.828125 0.859375 2.3125 0.859375q1.515625 0 2.328125 -0.859375q0.828125 -0.875 0.828125 -2.6875l0 -5.84375l1.0625 0l0 5.890625q0 2.203125 -1.125 3.34375q-1.125 1.125 -3.09375 1.125zm10.310913 0q-1.140625 0 -2.1875 -0.375q-1.046875 -0.375 -1.625 -0.96875l0.421875 -0.828125q0.546875 0.53125 1.453125 0.890625q0.921875 0.359375 1.9375 0.359375q0.96875 0 1.578125 -0.234375q0.609375 -0.25 0.890625 -0.65625q0.28125 -0.421875 0.28125 -0.921875q0 -0.59375 -0.34375 -0.953125q-0.34375 -0.375 -0.90625 -0.578125q-0.546875 -0.21875 -1.21875 -0.375q-0.671875 -0.171875 -1.359375 -0.34375q-0.671875 -0.1875 -1.234375 -0.5q-0.5625 -0.3125 -0.90625 -0.8125q-0.34375 -0.515625 -0.34375 -1.328125q0 -0.765625 0.40625 -1.40625q0.40625 -0.640625 1.234375 -1.015625q0.84375 -0.390625 2.140625 -0.390625q0.859375 0 1.703125 0.25q0.859375 0.234375 1.484375 0.65625l-0.375 0.859375q-0.65625 -0.4375 -1.40625 -0.640625q-0.734375 -0.203125 -1.421875 -0.203125q-0.921875 0 -1.53125 0.25q-0.59375 0.25 -0.875 0.671875q-0.28125 0.40625 -0.28125 0.9375q0 0.59375 0.34375 0.96875q0.34375 0.359375 0.90625 0.578125q0.5625 0.203125 1.234375 0.359375q0.671875 0.15625 1.328125 0.359375q0.671875 0.1875 1.234375 0.484375q0.578125 0.296875 0.921875 0.796875q0.34375 0.5 0.34375 1.296875q0 0.75 -0.421875 1.390625q-0.40625 0.640625 -1.25 1.03125q-0.84375 0.390625 -2.15625 0.390625zm6.185486 -0.09375l0 -10.265625l3.84375 0q1.296875 0 2.234375 0.421875q0.9375 0.421875 1.4375 1.203125q0.515625 0.78125 0.515625 1.90625q0 1.078125 -0.515625 1.859375q-0.5 0.78125 -1.4375 1.203125q-0.9375 0.421875 -2.234375 0.421875l-3.25 0l0.484375 -0.5l0 3.75l-1.078125 0zm7.0 0l-2.640625 -3.71875l1.171875 0l2.65625 3.71875l-1.1875 0zm-5.921875 -3.671875l-0.484375 -0.5l3.21875 0q1.53125 0 2.328125 -0.671875q0.8125 -0.6875 0.8125 -1.890625q0 -1.234375 -0.8125 -1.90625q-0.796875 -0.6875 -2.328125 -0.6875l-3.21875 0l0.484375 -0.5l0 6.15625zm10.393433 3.671875l0 -9.8125l0.46875 0.484375l-2.890625 0l0 -0.9375l3.484375 0l0 10.265625l-1.0625 0zm3.5721436 2.140625l0.640625 -2.71875l0.109375 0.640625q-0.328125 0 -0.5625 -0.21875q-0.21875 -0.21875 -0.21875 -0.578125q0 -0.34375 0.21875 -0.5625q0.234375 -0.234375 0.546875 -0.234375q0.34375 0 0.546875 0.234375q0.21875 0.234375 0.21875 0.5625q0 0.125 -0.015625 0.25q-0.015625 0.109375 -0.0625 0.25q-0.03125 0.140625 -0.109375 0.359375l-0.609375 2.015625l-0.703125 0zm10.6189575 -2.046875q-1.140625 0 -2.1875 -0.375q-1.046875 -0.375 -1.625 -0.96875l0.421875 -0.828125q0.546875 0.53125 1.453125 0.890625q0.921875 0.359375 1.9375 0.359375q0.96875 0 1.578125 -0.234375q0.609375 -0.25 0.890625 -0.65625q0.28125 -0.421875 0.28125 -0.921875q0 -0.59375 -0.34375 -0.953125q-0.34375 -0.375 -0.90625 -0.578125q-0.546875 -0.21875 -1.21875 -0.375q-0.671875 -0.171875 -1.359375 -0.34375q-0.671875 -0.1875 -1.234375 -0.5q-0.5625 -0.3125 -0.90625 -0.8125q-0.34375 -0.515625 -0.34375 -1.328125q0 -0.765625 0.40625 -1.40625q0.40625 -0.640625 1.234375 -1.015625q0.84375 -0.390625 2.140625 -0.390625q0.859375 0 1.703125 0.25q0.859375 0.234375 1.484375 0.65625l-0.375 0.859375q-0.65625 -0.4375 -1.40625 -0.640625q-0.734375 -0.203125 -1.421875 -0.203125q-0.921875 0 -1.53125 0.25q-0.59375 0.25 -0.875 0.671875q-0.28125 0.40625 -0.28125 0.9375q0 0.59375 0.34375 0.96875q0.34375 0.359375 0.90625 0.578125q0.5625 0.203125 1.234375 0.359375q0.671875 0.15625 1.328125 0.359375q0.671875 0.1875 1.234375 0.484375q0.578125 0.296875 0.921875 0.796875q0.34375 0.5 0.34375 1.296875q0 0.75 -0.421875 1.390625q-0.40625 0.640625 -1.25 1.03125q-0.84375 0.390625 -2.15625 0.390625zm6.185486 -0.09375l0 -10.265625l1.078125 0l0 10.265625l-1.078125 0zm8.9262085 0.09375q-1.171875 0 -2.171875 -0.390625q-0.984375 -0.390625 -1.71875 -1.09375q-0.71875 -0.703125 -1.125 -1.65625q-0.390625 -0.953125 -0.390625 -2.078125q0 -1.140625 0.390625 -2.078125q0.40625 -0.953125 1.140625 -1.65625q0.734375 -0.71875 1.71875 -1.09375q1.0 -0.390625 2.171875 -0.390625q1.171875 0 2.140625 0.375q0.984375 0.359375 1.671875 1.109375l-0.671875 0.6875q-0.65625 -0.65625 -1.4375 -0.921875q-0.765625 -0.28125 -1.65625 -0.28125q-0.953125 0 -1.765625 0.3125q-0.796875 0.3125 -1.390625 0.890625q-0.59375 0.578125 -0.921875 1.359375q-0.328125 0.765625 -0.328125 1.6875q0 0.90625 0.328125 1.6875q0.328125 0.765625 0.921875 1.34375q0.59375 0.578125 1.390625 0.90625q0.8125 0.3125 1.75 0.3125q0.875 0 1.65625 -0.265625q0.78125 -0.265625 1.453125 -0.890625l0.609375 0.8125q-0.734375 0.640625 -1.71875 0.984375q-0.984375 0.328125 -2.046875 0.328125zm2.71875 -1.4375l0 -3.78125l1.046875 0l0 3.90625l-1.046875 -0.125zm8.235596 1.4375q-1.953125 0 -3.09375 -1.125q-1.125 -1.140625 -1.125 -3.34375l0 -5.890625l1.09375 0l0 5.84375q0 1.8125 0.8125 2.6875q0.828125 0.859375 2.3125 0.859375q1.515625 0 2.328125 -0.859375q0.828125 -0.875 0.828125 -2.6875l0 -5.84375l1.0625 0l0 5.890625q0 2.203125 -1.125 3.34375q-1.125 1.125 -3.09375 1.125zm10.310913 0q-1.140625 0 -2.1875 -0.375q-1.046875 -0.375 -1.625 -0.96875l0.421875 -0.828125q0.546875 0.53125 1.453125 0.890625q0.921875 0.359375 1.9375 0.359375q0.96875 0 1.578125 -0.234375q0.609375 -0.25 0.890625 -0.65625q0.28125 -0.421875 0.28125 -0.921875q0 -0.59375 -0.34375 -0.953125q-0.34375 -0.375 -0.90625 -0.578125q-0.546875 -0.21875 -1.21875 -0.375q-0.671875 -0.171875 -1.359375 -0.34375q-0.671875 -0.1875 -1.234375 -0.5q-0.5625 -0.3125 -0.90625 -0.8125q-0.34375 -0.515625 -0.34375 -1.328125q0 -0.765625 0.40625 -1.40625q0.40625 -0.640625 1.234375 -1.015625q0.84375 -0.390625 2.140625 -0.390625q0.859375 0 1.703125 0.25q0.859375 0.234375 1.484375 0.65625l-0.375 0.859375q-0.65625 -0.4375 -1.40625 -0.640625q-0.734375 -0.203125 -1.421875 -0.203125q-0.921875 0 -1.53125 0.25q-0.59375 0.25 -0.875 0.671875q-0.28125 0.40625 -0.28125 0.9375q0 0.59375 0.34375 0.96875q0.34375 0.359375 0.90625 0.578125q0.5625 0.203125 1.234375 0.359375q0.671875 0.15625 1.328125 0.359375q0.671875 0.1875 1.234375 0.484375q0.578125 0.296875 0.921875 0.796875q0.34375 0.5 0.34375 1.296875q0 0.75 -0.421875 1.390625q-0.40625 0.640625 -1.25 1.03125q-0.84375 0.390625 -2.15625 0.390625zm6.185486 -0.09375l0 -10.265625l3.84375 0q1.296875 0 2.234375 0.421875q0.9375 0.421875 1.4375 1.203125q0.515625 0.78125 0.515625 1.90625q0 1.078125 -0.515625 1.859375q-0.5 0.78125 -1.4375 1.203125q-0.9375 0.421875 -2.234375 0.421875l-3.25 0l0.484375 -0.5l0 3.75l-1.078125 0zm7.0 0l-2.640625 -3.71875l1.171875 0l2.65625 3.71875l-1.1875 0zm-5.921875 -3.671875l-0.484375 -0.5l3.21875 0q1.53125 0 2.328125 -0.671875q0.8125 -0.6875 0.8125 -1.890625q0 -1.234375 -0.8125 -1.90625q-0.796875 -0.6875 -2.328125 -0.6875l-3.21875 0l0.484375 -0.5l0 6.15625zm8.424683 3.671875l0 -0.75l4.265625 -4.171875q0.578125 -0.578125 0.875 -1.0q0.296875 -0.4375 0.390625 -0.8125q0.109375 -0.390625 0.109375 -0.71875q0 -0.90625 -0.609375 -1.40625q-0.609375 -0.515625 -1.796875 -0.515625q-0.90625 0 -1.609375 0.28125q-0.6875 0.265625 -1.1875 0.859375l-0.75 -0.640625q0.59375 -0.703125 1.53125 -1.078125q0.9375 -0.390625 2.109375 -0.390625q1.03125 0 1.796875 0.328125q0.765625 0.328125 1.171875 0.96875q0.421875 0.625 0.421875 1.46875q0 0.5 -0.140625 0.984375q-0.140625 0.484375 -0.5 1.015625q-0.359375 0.53125 -1.046875 1.203125l-3.90625 3.84375l-0.296875 -0.40625l6.359375 0l0 0.9375l-7.1875 0z" fill-rule="nonzero"/><path fill="#000000" fill-opacity="0.0" d="m390.8058 208.47507l30.456696 0l0 32.850388l-30.456696 0z" fill-rule="evenodd"/><path stroke="#595959" stroke-width="1.0" stroke-linejoin="round" stroke-linecap="butt" d="m390.8058 208.47507l30.456696 0l0 32.850388l-30.456696 0z" fill-rule="evenodd"/><path fill="#000000" fill-opacity="0.0" d="m390.8058 248.47507l30.456696 0l0 32.850403l-30.456696 0z" fill-rule="evenodd"/><path stroke="#595959" stroke-width="1.0" stroke-linejoin="round" stroke-linecap="butt" d="m390.8058 248.47507l30.456696 0l0 32.850403l-30.456696 0z" fill-rule="evenodd"/><path fill="#000000" fill-opacity="0.0" d="m390.8058 288.47507l30.456696 0l0 32.850403l-30.456696 0z" fill-rule="evenodd"/><path stroke="#595959" stroke-width="1.0" stroke-linejoin="round" stroke-linecap="butt" d="m390.8058 288.47507l30.456696 0l0 32.850403l-30.456696 0z" fill-rule="evenodd"/><path fill="#000000" fill-opacity="0.0" d="m390.8058 328.47507l30.456696 0l0 32.850403l-30.456696 0z" fill-rule="evenodd"/><path stroke="#595959" stroke-width="1.0" stroke-linejoin="round" stroke-linecap="butt" d="m390.8058 328.47507l30.456696 0l0 32.850403l-30.456696 0z" fill-rule="evenodd"/><path fill="#000000" fill-opacity="0.0" d="m390.8058 368.47507l30.456696 0l0 32.850403l-30.456696 0z" fill-rule="evenodd"/><path stroke="#595959" stroke-width="1.0" stroke-linejoin="round" stroke-linecap="butt" d="m390.8058 368.47507l30.456696 0l0 32.850403l-30.456696 0z" fill-rule="evenodd"/><path fill="#000000" fill-opacity="0.0" d="m390.8058 408.47507l30.456696 0l0 32.850403l-30.456696 0z" fill-rule="evenodd"/><path stroke="#595959" stroke-width="1.0" stroke-linejoin="round" stroke-linecap="butt" d="m390.8058 408.47507l30.456696 0l0 32.850403l-30.456696 0z" fill-rule="evenodd"/><path fill="#000000" fill-opacity="0.0" d="m390.8058 448.47507l30.456696 0l0 32.850403l-30.456696 0z" fill-rule="evenodd"/><path stroke="#595959" stroke-width="1.0" stroke-linejoin="round" stroke-linecap="butt" d="m390.8058 448.47507l30.456696 0l0 32.850403l-30.456696 0z" fill-rule="evenodd"/><path fill="#000000" fill-opacity="0.0" d="m390.8058 488.47507l30.456696 0l0 32.850372l-30.456696 0z" fill-rule="evenodd"/><path stroke="#595959" stroke-width="1.0" stroke-linejoin="round" stroke-linecap="butt" d="m390.8058 488.47507l30.456696 0l0 32.850372l-30.456696 0z" fill-rule="evenodd"/><path fill="#000000" fill-opacity="0.0" d="m470.8058 208.47507l30.456696 0l0 32.850388l-30.456696 0z" fill-rule="evenodd"/><path stroke="#595959" stroke-width="1.0" stroke-linejoin="round" stroke-linecap="butt" d="m470.8058 208.47507l30.456696 0l0 32.850388l-30.456696 0z" fill-rule="evenodd"/><path fill="#000000" fill-opacity="0.0" d="m470.8058 248.47507l30.456696 0l0 32.850403l-30.456696 0z" fill-rule="evenodd"/><path stroke="#595959" stroke-width="1.0" stroke-linejoin="round" stroke-linecap="butt" d="m470.8058 248.47507l30.456696 0l0 32.850403l-30.456696 0z" fill-rule="evenodd"/><path fill="#000000" fill-opacity="0.0" d="m470.8058 288.47507l30.456696 0l0 32.850403l-30.456696 0z" fill-rule="evenodd"/><path stroke="#595959" stroke-width="1.0" stroke-linejoin="round" stroke-linecap="butt" d="m470.8058 288.47507l30.456696 0l0 32.850403l-30.456696 0z" fill-rule="evenodd"/><path fill="#000000" fill-opacity="0.0" d="m470.8058 328.47507l30.456696 0l0 32.850403l-30.456696 0z" fill-rule="evenodd"/><path stroke="#595959" stroke-width="1.0" stroke-linejoin="round" stroke-linecap="butt" d="m470.8058 328.47507l30.456696 0l0 32.850403l-30.456696 0z" fill-rule="evenodd"/><path fill="#000000" fill-opacity="0.0" d="m470.8058 368.47507l30.456696 0l0 32.850403l-30.456696 0z" fill-rule="evenodd"/><path stroke="#595959" stroke-width="1.0" stroke-linejoin="round" stroke-linecap="butt" d="m470.8058 368.47507l30.456696 0l0 32.850403l-30.456696 0z" fill-rule="evenodd"/><path fill="#000000" fill-opacity="0.0" d="m470.8058 408.47507l30.456696 0l0 32.850403l-30.456696 0z" fill-rule="evenodd"/><path stroke="#595959" stroke-width="1.0" stroke-linejoin="round" stroke-linecap="butt" d="m470.8058 408.47507l30.456696 0l0 32.850403l-30.456696 0z" fill-rule="evenodd"/><path fill="#000000" fill-opacity="0.0" d="m470.8058 448.47507l30.456696 0l0 32.850403l-30.456696 0z" fill-rule="evenodd"/><path stroke="#595959" stroke-width="1.0" stroke-linejoin="round" stroke-linecap="butt" d="m470.8058 448.47507l30.456696 0l0 32.850403l-30.456696 0z" fill-rule="evenodd"/><path fill="#000000" fill-opacity="0.0" d="m470.8058 488.47507l30.456696 0l0 32.850372l-30.456696 0z" fill-rule="evenodd"/><path stroke="#595959" stroke-width="1.0" stroke-linejoin="round" stroke-linecap="butt" d="m470.8058 488.47507l30.456696 0l0 32.850372l-30.456696 0z" fill-rule="evenodd"/><path fill="#000000" fill-opacity="0.0" d="m550.8058 208.47507l30.456665 0l0 32.850388l-30.456665 0z" fill-rule="evenodd"/><path stroke="#595959" stroke-width="1.0" stroke-linejoin="round" stroke-linecap="butt" d="m550.8058 208.47507l30.456665 0l0 32.850388l-30.456665 0z" fill-rule="evenodd"/><path fill="#000000" fill-opacity="0.0" d="m550.8058 248.47507l30.456665 0l0 32.850403l-30.456665 0z" fill-rule="evenodd"/><path stroke="#595959" stroke-width="1.0" stroke-linejoin="round" stroke-linecap="butt" d="m550.8058 248.47507l30.456665 0l0 32.850403l-30.456665 0z" fill-rule="evenodd"/><path fill="#000000" fill-opacity="0.0" d="m550.8058 288.47507l30.456665 0l0 32.850403l-30.456665 0z" fill-rule="evenodd"/><path stroke="#595959" stroke-width="1.0" stroke-linejoin="round" stroke-linecap="butt" d="m550.8058 288.47507l30.456665 0l0 32.850403l-30.456665 0z" fill-rule="evenodd"/><path fill="#000000" fill-opacity="0.0" d="m550.8058 328.47507l30.456665 0l0 32.850403l-30.456665 0z" fill-rule="evenodd"/><path stroke="#595959" stroke-width="1.0" stroke-linejoin="round" stroke-linecap="butt" d="m550.8058 328.47507l30.456665 0l0 32.850403l-30.456665 0z" fill-rule="evenodd"/><path fill="#000000" fill-opacity="0.0" d="m550.8058 368.47507l30.456665 0l0 32.850403l-30.456665 0z" fill-rule="evenodd"/><path stroke="#595959" stroke-width="1.0" stroke-linejoin="round" stroke-linecap="butt" d="m550.8058 368.47507l30.456665 0l0 32.850403l-30.456665 0z" fill-rule="evenodd"/><path fill="#000000" fill-opacity="0.0" d="m550.8058 408.47507l30.456665 0l0 32.850403l-30.456665 0z" fill-rule="evenodd"/><path stroke="#595959" stroke-width="1.0" stroke-linejoin="round" stroke-linecap="butt" d="m550.8058 408.47507l30.456665 0l0 32.850403l-30.456665 0z" fill-rule="evenodd"/><path fill="#000000" fill-opacity="0.0" d="m550.8058 448.47507l30.456665 0l0 32.850403l-30.456665 0z" fill-rule="evenodd"/><path stroke="#595959" stroke-width="1.0" stroke-linejoin="round" stroke-linecap="butt" d="m550.8058 448.47507l30.456665 0l0 32.850403l-30.456665 0z" fill-rule="evenodd"/><path fill="#000000" fill-opacity="0.0" d="m550.8058 488.47507l30.456665 0l0 32.850372l-30.456665 0z" fill-rule="evenodd"/><path stroke="#595959" stroke-width="1.0" stroke-linejoin="round" stroke-linecap="butt" d="m550.8058 488.47507l30.456665 0l0 32.850372l-30.456665 0z" fill-rule="evenodd"/><path fill="#000000" fill-opacity="0.0" d="m421.35696 145.45407l49.543304 0" fill-rule="evenodd"/><path stroke="#595959" stroke-width="1.0" stroke-linejoin="round" stroke-linecap="butt" d="m421.35696 145.45407l43.543304 0" fill-rule="evenodd"/><path fill="#595959" stroke="#595959" stroke-width="1.0" stroke-linecap="butt" d="m464.90027 147.1058l4.538086 -1.6517334l-4.538086 -1.6517334z" fill-rule="evenodd"/><path fill="#000000" fill-opacity="0.0" d="m501.35696 145.45407l49.543304 0" fill-rule="evenodd"/><path stroke="#595959" stroke-width="1.0" stroke-linejoin="round" stroke-linecap="butt" d="m501.35696 145.45407l43.543304 0" fill-rule="evenodd"/><path fill="#595959" stroke="#595959" stroke-width="1.0" stroke-linecap="butt" d="m544.90027 147.1058l4.538086 -1.6517334l-4.538086 -1.6517334z" fill-rule="evenodd"/><path fill="#000000" fill-opacity="0.0" d="m609.1601 108.64829l-253.66928 0" fill-rule="evenodd"/><path stroke="#595959" stroke-width="1.0" stroke-linejoin="round" stroke-linecap="butt" d="m609.1601 108.64829l-247.66928 0" fill-rule="evenodd"/><path fill="#595959" stroke="#595959" stroke-width="1.0" stroke-linecap="butt" d="m361.4908 106.99656l-4.538086 1.6517334l4.538086 1.6517334z" fill-rule="evenodd"/></g></svg>