<svg version="1.1" viewBox="0.0 0.0 960.0 540.0" fill="none" stroke="none" stroke-linecap="square" stroke-miterlimit="10" xmlns:xlink="http://www.w3.org/1999/xlink" xmlns="http://www.w3.org/2000/svg"><clipPath id="g2bec29c98be_0_700.0"><path d="m0 0l960.0 0l0 540.0l-960.0 0l0 -540.0z" clip-rule="nonzero"/></clipPath><g clip-path="url(#g2bec29c98be_0_700.0)"><path fill="#ffffff" d="m0 0l960.0 0l0 540.0l-960.0 0z" fill-rule="evenodd"/><path fill="#eeeeee" d="m105.6273 56.02362l250.33072 0l0 364.28348l-250.33072 0z" fill-rule="evenodd"/><path stroke="#000000" stroke-width="1.0" stroke-linejoin="round" stroke-linecap="butt" d="m105.6273 56.02362l250.33072 0l0 364.28348l-250.33072 0z" fill-rule="evenodd"/><path fill="#eeeeee" d="m609.6273 56.02362l250.33069 0l0 364.28348l-250.33069 0z" fill-rule="evenodd"/><path stroke="#000000" stroke-width="1.0" stroke-linejoin="round" stroke-linecap="butt" d="m609.6273 56.02362l250.33069 0l0 364.28348l-250.33069 0z" fill-rule="evenodd"/><path fill="#000000" fill-opacity="0.0" d="m105.1601 56.28609l98.67716 0l0 48.47244l-98.67716 0z" fill-rule="evenodd"/><path fill="#595959" d="m119.92573 88.45109q-1.5625 0 -2.953125 -0.4375q-1.390625 -0.453125 -2.1875 -1.125l0.765625 -1.34375q0.765625 0.578125 1.96875 1.0q1.203125 0.40625 2.515625 0.40625q1.8125 0 2.59375 -0.5625q0.796875 -0.5625 0.796875 -1.5q0 -0.6875 -0.453125 -1.078125q-0.4375 -0.40625 -1.15625 -0.609375q-0.71875 -0.203125 -1.609375 -0.34375q-0.890625 -0.140625 -1.765625 -0.328125q-0.875 -0.203125 -1.59375 -0.578125q-0.71875 -0.375 -1.171875 -1.015625q-0.4375 -0.65625 -0.4375 -1.734375q0 -1.03125 0.578125 -1.84375q0.578125 -0.8125 1.6875 -1.28125q1.125 -0.46875 2.734375 -0.46875q1.21875 0 2.4375 0.328125q1.234375 0.3125 2.015625 0.84375l-0.734375 1.375q-0.84375 -0.578125 -1.8125 -0.828125q-0.953125 -0.25 -1.90625 -0.25q-1.703125 0 -2.515625 0.59375q-0.796875 0.578125 -0.796875 1.484375q0 0.71875 0.4375 1.140625q0.4375 0.40625 1.171875 0.640625q0.734375 0.21875 1.609375 0.359375q0.875 0.140625 1.75 0.34375q0.875 0.203125 1.609375 0.5625q0.734375 0.34375 1.171875 0.984375q0.453125 0.625 0.453125 1.65625q0 1.109375 -0.609375 1.921875q-0.609375 0.796875 -1.78125 1.25q-1.15625 0.4375 -2.8125 0.4375zm13.680717 0q-1.96875 0 -3.46875 -0.828125q-1.484375 -0.828125 -2.3281326 -2.28125q-0.828125 -1.453125 -0.828125 -3.328125q0 -1.875 0.796875 -3.3125q0.8125076 -1.4375 2.2031326 -2.265625q1.40625 -0.828125 3.15625 -0.828125q1.78125 0 3.15625 0.8125q1.390625 0.796875 2.171875 2.25q0.796875 1.453125 0.796875 3.34375q0 0.125 -0.015625 0.265625q0 0.125 0 0.265625l-10.96875 0l0 -1.28125l10.046875 0l-0.671875 0.515625q0 -1.375 -0.59375 -2.4375q-0.578125 -1.078125 -1.59375 -1.671875q-1.0 -0.59375 -2.328125 -0.59375q-1.296875 0 -2.328125 0.59375q-1.03125 0.59375 -1.609375 1.6875q-0.5625 1.078125 -0.5625 2.46875l0 0.265625q0 1.4375 0.625 2.53125q0.640625 1.09375 1.78125 1.703125q1.140625 0.609375 2.609375 0.609375q1.140625 0 2.140625 -0.40625q1.0 -0.40625 1.71875 -1.25l0.953125 1.109375q-0.828125 1.0 -2.09375 1.53125q-1.265625 0.53125 -2.765625 0.53125zm9.136581 -0.125l0 -12.59375l1.640625 0l0 3.421875l-0.171875 -0.59375q0.53125 -1.4375 1.765625 -2.1875q1.25 -0.765625 3.109375 -0.765625l0 1.65625q-0.109375 0 -0.203125 -0.015625q-0.09375 -0.015625 -0.1875 -0.015625q-1.984375 0 -3.125 1.21875q-1.125 1.21875 -1.125 3.4375l0 6.4375l-1.703125 0zm13.218353 0l-5.578125 -12.59375l1.765625 0l5.140625 11.6875l-0.84375 0l5.203125 -11.6875l1.6875 0l-5.609375 12.59375l-1.765625 0zm14.7729645 0.125q-1.96875 0 -3.46875 -0.828125q-1.484375 -0.828125 -2.328125 -2.28125q-0.828125 -1.453125 -0.828125 -3.328125q0 -1.875 0.796875 -3.3125q0.8125 -1.4375 2.203125 -2.265625q1.40625 -0.828125 3.15625 -0.828125q1.78125 0 3.15625 0.8125q1.390625 0.796875 2.171875 2.25q0.796875 1.453125 0.796875 3.34375q0 0.125 -0.015625 0.265625q0 0.125 0 0.265625l-10.96875 0l0 -1.28125l10.046875 0l-0.671875 0.515625q0 -1.375 -0.59375 -2.4375q-0.578125 -1.078125 -1.59375 -1.671875q-1.0 -0.59375 -2.328125 -0.59375q-1.296875 0 -2.328125 0.59375q-1.03125 0.59375 -1.609375 1.6875q-0.5625 1.078125 -0.5625 2.46875l0 0.265625q0 1.4375 0.625 2.53125q0.640625 1.09375 1.78125 1.703125q1.140625 0.609375 2.609375 0.609375q1.140625 0 2.140625 -0.40625q1.0 -0.40625 1.71875 -1.25l0.953125 1.109375q-0.828125 1.0 -2.09375 1.53125q-1.265625 0.53125 -2.765625 0.53125zm9.136581 -0.125l0 -12.59375l1.640625 0l0 3.421875l-0.171875 -0.59375q0.53125 -1.4375 1.765625 -2.1875q1.25 -0.765625 3.109375 -0.765625l0 1.65625q-0.109375 0 -0.203125 -0.015625q-0.09375 -0.015625 -0.1875 -0.015625q-1.984375 0 -3.125 1.21875q-1.125 1.21875 -1.125 3.4375l0 6.4375l-1.703125 0z" fill-rule="nonzero"/><path fill="#000000" fill-opacity="0.0" d="m609.1601 56.28609l98.677185 0l0 48.47244l-98.677185 0z" fill-rule="evenodd"/><path fill="#595959" d="m625.7695 88.45109q-1.875 0 -3.359375 -0.828125q-1.46875 -0.828125 -2.3125 -2.28125q-0.828125 -1.453125 -0.828125 -3.328125q0 -1.890625 0.828125 -3.328125q0.84375 -1.453125 2.3125 -2.265625q1.484375 -0.8125 3.359375 -0.8125q1.609375 0 2.90625 0.625q1.296875 0.625 2.03125 1.875l-1.265625 0.859375q-0.65625 -0.953125 -1.609375 -1.40625q-0.953125 -0.46875 -2.09375 -0.46875q-1.34375 0 -2.421875 0.609375q-1.078125 0.609375 -1.703125 1.71875q-0.625 1.109375 -0.625 2.59375q0 1.484375 0.625 2.59375q0.625 1.109375 1.703125 1.71875q1.078125 0.609375 2.421875 0.609375q1.140625 0 2.09375 -0.453125q0.953125 -0.453125 1.609375 -1.390625l1.265625 0.859375q-0.734375 1.21875 -2.03125 1.859375q-1.296875 0.640625 -2.90625 0.640625zm8.085571 -0.125l0 -17.8125l1.703125 0l0 17.8125l-1.703125 0zm6.4559937 0l0 -12.59375l1.703125 0l0 12.59375l-1.703125 0zm0.875 -15.390625q-0.53125 0 -0.890625 -0.359375q-0.359375 -0.359375 -0.359375 -0.859375q0 -0.5 0.359375 -0.84375q0.359375 -0.359375 0.890625 -0.359375q0.53125 0 0.890625 0.34375q0.359375 0.328125 0.359375 0.84375q0 0.515625 -0.359375 0.875q-0.34375 0.359375 -0.890625 0.359375zm10.940369 15.515625q-1.96875 0 -3.46875 -0.828125q-1.484375 -0.828125 -2.328125 -2.28125q-0.828125 -1.453125 -0.828125 -3.328125q0 -1.875 0.796875 -3.3125q0.8125 -1.4375 2.203125 -2.265625q1.40625 -0.828125 3.15625 -0.828125q1.78125 0 3.15625 0.8125q1.390625 0.796875 2.171875 2.25q0.796875 1.453125 0.796875 3.34375q0 0.125 -0.015625 0.265625q0 0.125 0 0.265625l-10.96875 0l0 -1.28125l10.046875 0l-0.671875 0.515625q0 -1.375 -0.59375 -2.4375q-0.578125 -1.078125 -1.59375 -1.671875q-1.0 -0.59375 -2.328125 -0.59375q-1.296875 0 -2.328125 0.59375q-1.03125 0.59375 -1.609375 1.6875q-0.5625 1.078125 -0.5625 2.46875l0 0.265625q0 1.4375 0.625 2.53125q0.640625 1.09375 1.78125 1.703125q1.140625 0.609375 2.609375 0.609375q1.140625 0 2.140625 -0.40625q1.0 -0.40625 1.71875 -1.25l0.953125 1.109375q-0.828125 1.0 -2.09375 1.53125q-1.265625 0.53125 -2.765625 0.53125zm15.574097 -12.84375q1.53125 0 2.6875 0.59375q1.171875 0.578125 1.828125 1.78125q0.65625 1.203125 0.65625 3.03125l0 7.3125l-1.703125 0l0 -7.15625q0 -1.984375 -1.0 -3.0q-0.984375 -1.03125 -2.78125 -1.03125q-1.34375 0 -2.34375 0.546875q-1.0 0.53125 -1.546875 1.5625q-0.53125 1.015625 -0.53125 2.453125l0 6.625l-1.703125 0l0 -12.59375l1.640625 0l0 3.453125l-0.265625 -0.65625q0.59375 -1.359375 1.90625 -2.140625q1.328125 -0.78125 3.15625 -0.78125zm13.770813 12.84375q-1.78125 0 -2.75 -0.953125q-0.953125 -0.96875 -0.953125 -2.71875l0 -11.84375l1.71875 0l0 11.75q0 1.09375 0.5625 1.703125q0.5625 0.59375 1.609375 0.59375q1.140625 0 1.875 -0.640625l0.609375 1.21875q-0.515625 0.453125 -1.21875 0.671875q-0.703125 0.21875 -1.453125 0.21875zm-5.953125 -11.3125l0 -1.40625l7.796875 0l0 1.40625l-7.796875 0z" fill-rule="nonzero"/><path fill="#000000" fill-opacity="0.0" d="m81.1601 88.28609l250.33072 0l0 37.16536l-250.33072 0z" fill-rule="evenodd"/><path fill="#595959" d="m109.43639 107.850464l0 -0.90625l3.84375 0l0 0.90625l-3.84375 0z" fill-rule="nonzero"/><path fill="#595959" d="m139.37886 114.20984l0 -13.71875l3.96875 0l0 1.78125l-1.6875 0l0 10.15625l1.6875 0l0 1.78125l-3.96875 0zm6.66835 -2.84375l0 -9.375l1.03125 1.015625l-3.078125 0l0 -1.90625l4.421875 0l0 10.265625l-2.375 0zm7.760895 2.84375l-3.953125 0l0 -1.78125l1.671875 0l0 -10.15625l-1.671875 0l0 -1.78125l3.953125 0l0 13.71875z" fill-rule="nonzero"/><path fill="#595959" d="m164.29158 111.444214q-1.0 0 -1.8125 -0.453125q-0.796875 -0.46875 -1.28125 -1.34375q-0.46875 -0.875 -0.46875 -2.140625q0 -1.25 0.46875 -2.125q0.46875 -0.875 1.265625 -1.328125q0.8125 -0.453125 1.828125 -0.453125q1.09375 0 1.96875 0.5q0.875 0.484375 1.375 1.375q0.5 0.875 0.5 2.03125q0 1.171875 -0.5 2.0625q-0.5 0.875 -1.375 1.375q-0.875 0.5 -1.96875 0.5zm-3.96875 2.765625l0 -10.53125l1.0 0l0 2.3125l-0.109375 1.53125l0.140625 1.5625l0 5.125l-1.03125 0zm3.890625 -3.6875q0.828125 0 1.46875 -0.375q0.640625 -0.375 1.015625 -1.046875q0.390625 -0.6875 0.390625 -1.59375q0 -0.890625 -0.390625 -1.5625q-0.375 -0.671875 -1.015625 -1.046875q-0.640625 -0.390625 -1.46875 -0.390625q-0.8125 0 -1.46875 0.390625q-0.65625 0.375 -1.03125 1.046875q-0.359375 0.671875 -0.359375 1.5625q0 0.90625 0.359375 1.59375q0.375 0.671875 1.03125 1.046875q0.65625 0.375 1.46875 0.375zm6.046356 0.84375l0 -7.6875l1.0 0l0 2.09375l-0.109375 -0.375q0.328125 -0.875 1.078125 -1.328125q0.765625 -0.46875 1.890625 -0.46875l0 1.015625q-0.046875 0 -0.109375 0q-0.0625 -0.015625 -0.125 -0.015625q-1.203125 0 -1.90625 0.734375q-0.6875 0.734375 -0.6875 2.109375l0 3.921875l-1.03125 0zm5.759842 0l0 -7.6875l1.03125 0l0 7.6875l-1.03125 0zm0.515625 -9.390625q-0.3125 0 -0.53125 -0.21875q-0.21875 -0.21875 -0.21875 -0.53125q0 -0.3125 0.21875 -0.515625q0.21875 -0.21875 0.53125 -0.21875q0.328125 0 0.546875 0.203125q0.21875 0.203125 0.21875 0.515625q0 0.328125 -0.21875 0.546875q-0.203125 0.21875 -0.546875 0.21875zm7.3488007 1.625q0.9375 0 1.640625 0.359375q0.71875 0.359375 1.125 1.09375q0.40625 0.734375 0.40625 1.84375l0 4.46875l-1.046875 0l0 -4.375q0 -1.203125 -0.609375 -1.828125q-0.609375 -0.625 -1.703125 -0.625q-0.8125 0 -1.421875 0.328125q-0.609375 0.328125 -0.953125 0.953125q-0.328125 0.625 -0.328125 1.5l0 4.046875l-1.03125 0l0 -7.6875l1.0 0l0 2.109375l-0.171875 -0.40625q0.375 -0.828125 1.171875 -1.296875q0.8125 -0.484375 1.921875 -0.484375zm8.423294 7.84375q-1.09375 0 -1.6875 -0.578125q-0.578125 -0.59375 -0.578125 -1.671875l0 -7.21875l1.046875 0l0 7.15625q0 0.6875 0.34375 1.046875q0.34375 0.359375 0.984375 0.359375q0.6875 0 1.140625 -0.390625l0.375 0.75q-0.3125 0.28125 -0.75 0.421875q-0.421875 0.125 -0.875 0.125zm-3.640625 -6.90625l0 -0.859375l4.765625 0l0 0.859375l-4.765625 0zm9.21608 6.90625q-0.953125 0 -1.8125 -0.265625q-0.84375 -0.28125 -1.328125 -0.6875l0.46875 -0.828125q0.46875 0.359375 1.203125 0.625q0.734375 0.25 1.546875 0.25q1.09375 0 1.578125 -0.34375q0.484375 -0.359375 0.484375 -0.921875q0 -0.421875 -0.28125 -0.65625q-0.265625 -0.25 -0.703125 -0.375q-0.4375 -0.125 -0.984375 -0.203125q-0.53125 -0.09375 -1.078125 -0.21875q-0.53125 -0.125 -0.96875 -0.34375q-0.4375 -0.234375 -0.71875 -0.625q-0.265625 -0.390625 -0.265625 -1.046875q0 -0.640625 0.34375 -1.140625q0.359375 -0.5 1.03125 -0.78125q0.6875 -0.28125 1.671875 -0.28125q0.75 0 1.5 0.203125q0.75 0.1875 1.234375 0.515625l-0.453125 0.828125q-0.515625 -0.34375 -1.109375 -0.5q-0.578125 -0.15625 -1.171875 -0.15625q-1.03125 0 -1.53125 0.359375q-0.484375 0.359375 -0.484375 0.921875q0 0.4375 0.265625 0.6875q0.28125 0.25 0.71875 0.390625q0.453125 0.140625 0.984375 0.234375q0.53125 0.078125 1.0625 0.203125q0.546875 0.125 0.984375 0.34375q0.453125 0.203125 0.71875 0.59375q0.28125 0.390625 0.28125 1.015625q0 0.671875 -0.375 1.171875q-0.375 0.484375 -1.09375 0.765625q-0.703125 0.265625 -1.71875 0.265625zm10.992233 0q-0.953125 0 -1.8125 -0.265625q-0.84375 -0.28125 -1.328125 -0.6875l0.46875 -0.828125q0.46875 0.359375 1.203125 0.625q0.734375 0.25 1.546875 0.25q1.09375 0 1.578125 -0.34375q0.484375 -0.359375 0.484375 -0.921875q0 -0.421875 -0.28125 -0.65625q-0.265625 -0.25 -0.703125 -0.375q-0.4375 -0.125 -0.984375 -0.203125q-0.53125 -0.09375 -1.078125 -0.21875q-0.53125 -0.125 -0.96875 -0.34375q-0.4375 -0.234375 -0.71875 -0.625q-0.265625 -0.390625 -0.265625 -1.046875q0 -0.640625 0.34375 -1.140625q0.359375 -0.5 1.03125 -0.78125q0.6875 -0.28125 1.671875 -0.28125q0.75 0 1.5 0.203125q0.75 0.1875 1.234375 0.515625l-0.453125 0.828125q-0.515625 -0.34375 -1.109375 -0.5q-0.578125 -0.15625 -1.171875 -0.15625q-1.03125 0 -1.53125 0.359375q-0.484375 0.359375 -0.484375 0.921875q0 0.4375 0.265625 0.6875q0.28125 0.25 0.71875 0.390625q0.453125 0.140625 0.984375 0.234375q0.53125 0.078125 1.0625 0.203125q0.546875 0.125 0.984375 0.34375q0.453125 0.203125 0.71875 0.59375q0.28125 0.390625 0.28125 1.015625q0 0.671875 -0.375 1.171875q-0.375 0.484375 -1.09375 0.765625q-0.703125 0.265625 -1.71875 0.265625zm5.3085327 -0.078125l0 -10.265625l3.84375 0q1.296875 0 2.234375 0.421875q0.9375 0.421875 1.4375 1.203125q0.515625 0.78125 0.515625 1.90625q0 1.078125 -0.515625 1.859375q-0.5 0.78125 -1.4375 1.21875q-0.9375 0.421875 -2.234375 0.421875l-3.25 0l0.484375 -0.515625l0 3.75l-1.078125 0zm1.078125 -3.671875l-0.484375 -0.515625l3.21875 0q1.53125 0 2.328125 -0.671875q0.8125 -0.671875 0.8125 -1.875q0 -1.234375 -0.8125 -1.90625q-0.796875 -0.6875 -2.328125 -0.6875l-3.21875 0l0.484375 -0.5l0 6.15625zm9.298431 3.671875l0 -10.265625l1.078125 0l0 10.265625l-1.078125 0zm4.4262085 0l0 -10.265625l4.171875 0q1.640625 0 2.875 0.65625q1.25 0.65625 1.9375 1.8125q0.6875 1.15625 0.6875 2.671875q0 1.5 -0.6875 2.671875q-0.6875 1.15625 -1.9375 1.8125q-1.234375 0.640625 -2.875 0.640625l-4.171875 0zm1.078125 -0.9375l3.046875 0q1.359375 0 2.359375 -0.53125q1.0 -0.546875 1.5625 -1.484375q0.5625 -0.953125 0.5625 -2.171875q0 -1.25 -0.5625 -2.1875q-0.5625 -0.9375 -1.5625 -1.46875q-1.0 -0.546875 -2.359375 -0.546875l-3.046875 0l0 8.390625z" fill-rule="nonzero"/><path fill="#000000" fill-opacity="0.0" d="m585.1601 88.28609l250.33069 0l0 37.16536l-250.33069 0z" fill-rule="evenodd"/><path fill="#595959" d="m613.4364 107.850464l0 -0.90625l3.84375 0l0 0.90625l-3.84375 0z" fill-rule="nonzero"/><path fill="#595959" d="m643.37885 114.20984l0 -13.71875l3.96875 0l0 1.78125l-1.6875 0l0 10.15625l1.6875 0l0 1.78125l-3.96875 0zm4.7178345 -2.84375l0 -1.53125l3.953125 -3.75q0.46875 -0.421875 0.6875 -0.75q0.21875 -0.34375 0.296875 -0.625q0.09375 -0.28125 0.09375 -0.515625q0 -0.609375 -0.421875 -0.9375q-0.421875 -0.328125 -1.21875 -0.328125q-0.65625 0 -1.203125 0.25q-0.546875 0.25 -0.921875 0.765625l-1.734375 -1.109375q0.578125 -0.875 1.640625 -1.390625q1.0625 -0.515625 2.4375 -0.515625q1.140625 0 2.0 0.375q0.859375 0.375 1.328125 1.046875q0.484375 0.671875 0.484375 1.609375q0 0.5 -0.125 1.0q-0.125 0.484375 -0.5 1.03125q-0.375 0.53125 -1.09375 1.21875l-3.28125 3.09375l-0.453125 -0.875l5.78125 0l0 1.9375l-7.75 0zm12.334717 2.84375l-3.953125 0l0 -1.78125l1.671875 0l0 -10.15625l-1.671875 0l0 -1.78125l3.953125 0l0 13.71875z" fill-rule="nonzero"/><path fill="#595959" d="m669.0086 111.444214q-0.953125 0 -1.8125 -0.265625q-0.84375 -0.28125 -1.328125 -0.6875l0.46875 -0.828125q0.46875 0.359375 1.203125 0.625q0.734375 0.25 1.546875 0.25q1.09375 0 1.578125 -0.34375q0.484375 -0.359375 0.484375 -0.921875q0 -0.421875 -0.28125 -0.65625q-0.265625 -0.25 -0.703125 -0.375q-0.4375 -0.125 -0.984375 -0.203125q-0.53125 -0.09375 -1.078125 -0.21875q-0.53125 -0.125 -0.96875 -0.34375q-0.4375 -0.234375 -0.71875 -0.625q-0.265625 -0.390625 -0.265625 -1.046875q0 -0.640625 0.34375 -1.140625q0.359375 -0.5 1.03125 -0.78125q0.6875 -0.28125 1.671875 -0.28125q0.75 0 1.5 0.203125q0.75 0.1875 1.234375 0.515625l-0.453125 0.828125q-0.515625 -0.34375 -1.109375 -0.5q-0.578125 -0.15625 -1.171875 -0.15625q-1.03125 0 -1.53125 0.359375q-0.484375 0.359375 -0.484375 0.921875q0 0.4375 0.265625 0.6875q0.28125 0.25 0.71875 0.390625q0.453125 0.140625 0.984375 0.234375q0.53125 0.078125 1.0625 0.203125q0.546875 0.125 0.984375 0.34375q0.453125 0.203125 0.71875 0.59375q0.28125 0.390625 0.28125 1.015625q0 0.671875 -0.375 1.171875q-0.375 0.484375 -1.09375 0.765625q-0.703125 0.265625 -1.71875 0.265625zm8.355408 0q-1.203125 0 -2.109375 -0.5q-0.90625 -0.515625 -1.421875 -1.40625q-0.515625 -0.890625 -0.515625 -2.03125q0 -1.140625 0.484375 -2.015625q0.5 -0.875 1.359375 -1.375q0.859375 -0.515625 1.921875 -0.515625q1.09375 0 1.921875 0.5q0.84375 0.484375 1.328125 1.375q0.484375 0.875 0.484375 2.03125q0 0.078125 -0.015625 0.15625q0 0.078125 0 0.171875l-6.6875 0l0 -0.78125l6.140625 0l-0.40625 0.3125q0 -0.84375 -0.359375 -1.484375q-0.359375 -0.65625 -0.984375 -1.015625q-0.609375 -0.375 -1.421875 -0.375q-0.78125 0 -1.421875 0.375q-0.625 0.359375 -0.984375 1.015625q-0.34375 0.65625 -0.34375 1.515625l0 0.15625q0 0.875 0.390625 1.546875q0.390625 0.671875 1.078125 1.046875q0.703125 0.375 1.59375 0.375q0.703125 0 1.3125 -0.25q0.609375 -0.25 1.046875 -0.765625l0.578125 0.671875q-0.5 0.609375 -1.28125 0.9375q-0.765625 0.328125 -1.6875 0.328125zm9.508667 -7.84375q0.9375 0 1.640625 0.359375q0.71875 0.359375 1.125 1.09375q0.40625 0.734375 0.40625 1.84375l0 4.46875l-1.046875 0l0 -4.375q0 -1.203125 -0.609375 -1.828125q-0.609375 -0.625 -1.703125 -0.625q-0.8125 0 -1.421875 0.328125q-0.609375 0.328125 -0.953125 0.953125q-0.328125 0.625 -0.328125 1.5l0 4.046875l-1.03125 0l0 -7.6875l1.0 0l0 2.109375l-0.171875 -0.40625q0.375 -0.828125 1.171875 -1.296875q0.8125 -0.484375 1.921875 -0.484375zm9.048279 7.84375q-1.09375 0 -1.96875 -0.5q-0.875 -0.5 -1.375 -1.390625q-0.5 -0.890625 -0.5 -2.046875q0 -1.171875 0.5 -2.046875q0.5 -0.875 1.375 -1.359375q0.875 -0.5 1.96875 -0.5q1.015625 0 1.8125 0.453125q0.796875 0.453125 1.265625 1.328125q0.484375 0.875 0.484375 2.125q0 1.25 -0.46875 2.140625q-0.46875 0.875 -1.265625 1.34375q-0.796875 0.453125 -1.828125 0.453125zm0.078125 -0.921875q0.8125 0 1.46875 -0.375q0.65625 -0.375 1.015625 -1.046875q0.375 -0.6875 0.375 -1.59375q0 -0.90625 -0.375 -1.578125q-0.359375 -0.671875 -1.015625 -1.046875q-0.65625 -0.375 -1.46875 -0.375q-0.8125 0 -1.46875 0.375q-0.640625 0.375 -1.015625 1.046875q-0.375 0.671875 -0.375 1.578125q0 0.90625 0.375 1.59375q0.375 0.671875 1.015625 1.046875q0.65625 0.375 1.46875 0.375zm2.890625 0.84375l0 -2.3125l0.109375 -1.5625l-0.140625 -1.546875l0 -5.453125l1.03125 0l0 10.875l-1.0 0zm5.9682617 0.078125q-0.953125 0 -1.8125 -0.265625q-0.84375 -0.28125 -1.328125 -0.6875l0.46875 -0.828125q0.46875 0.359375 1.203125 0.625q0.734375 0.25 1.546875 0.25q1.09375 0 1.578125 -0.34375q0.484375 -0.359375 0.484375 -0.921875q0 -0.421875 -0.28125 -0.65625q-0.265625 -0.25 -0.703125 -0.375q-0.4375 -0.125 -0.984375 -0.203125q-0.53125 -0.09375 -1.078125 -0.21875q-0.53125 -0.125 -0.96875 -0.34375q-0.4375 -0.234375 -0.71875 -0.625q-0.265625 -0.390625 -0.265625 -1.046875q0 -0.640625 0.34375 -1.140625q0.359375 -0.5 1.03125 -0.78125q0.6875 -0.28125 1.671875 -0.28125q0.75 0 1.5 0.203125q0.75 0.1875 1.234375 0.515625l-0.453125 0.828125q-0.515625 -0.34375 -1.109375 -0.5q-0.578125 -0.15625 -1.171875 -0.15625q-1.03125 0 -1.53125 0.359375q-0.484375 0.359375 -0.484375 0.921875q0 0.4375 0.265625 0.6875q0.28125 0.25 0.71875 0.390625q0.453125 0.140625 0.984375 0.234375q0.53125 0.078125 1.0625 0.203125q0.546875 0.125 0.984375 0.34375q0.453125 0.203125 0.71875 0.59375q0.28125 0.390625 0.28125 1.015625q0 0.671875 -0.375 1.171875q-0.375 0.484375 -1.09375 0.765625q-0.703125 0.265625 -1.71875 0.265625zm10.9921875 0q-0.953125 0 -1.8125 -0.265625q-0.84375 -0.28125 -1.328125 -0.6875l0.46875 -0.828125q0.46875 0.359375 1.203125 0.625q0.734375 0.25 1.546875 0.25q1.09375 0 1.578125 -0.34375q0.484375 -0.359375 0.484375 -0.921875q0 -0.421875 -0.28125 -0.65625q-0.265625 -0.25 -0.703125 -0.375q-0.4375 -0.125 -0.984375 -0.203125q-0.53125 -0.09375 -1.078125 -0.21875q-0.53125 -0.125 -0.96875 -0.34375q-0.4375 -0.234375 -0.71875 -0.625q-0.265625 -0.390625 -0.265625 -1.046875q0 -0.640625 0.34375 -1.140625q0.359375 -0.5 1.03125 -0.78125q0.6875 -0.28125 1.671875 -0.28125q0.75 0 1.5 0.203125q0.75 0.1875 1.234375 0.515625l-0.453125 0.828125q-0.515625 -0.34375 -1.109375 -0.5q-0.578125 -0.15625 -1.171875 -0.15625q-1.03125 0 -1.53125 0.359375q-0.484375 0.359375 -0.484375 0.921875q0 0.4375 0.265625 0.6875q0.28125 0.25 0.71875 0.390625q0.453125 0.140625 0.984375 0.234375q0.53125 0.078125 1.0625 0.203125q0.546875 0.125 0.984375 0.34375q0.453125 0.203125 0.71875 0.59375q0.28125 0.390625 0.28125 1.015625q0 0.671875 -0.375 1.171875q-0.375 0.484375 -1.09375 0.765625q-0.703125 0.265625 -1.71875 0.265625zm5.0897827 -0.078125l0 -7.6875l1.03125 0l0 7.6875l-1.03125 0zm0.515625 -9.390625q-0.3125 0 -0.53125 -0.21875q-0.21875 -0.21875 -0.21875 -0.53125q0 -0.3125 0.21875 -0.515625q0.21875 -0.21875 0.53125 -0.21875q0.328125 0 0.546875 0.203125q0.21875 0.203125 0.21875 0.515625q0 0.328125 -0.21875 0.546875q-0.203125 0.21875 -0.546875 0.21875zm6.708191 12.3125q-1.0625 0 -2.03125 -0.3125q-0.953125 -0.3125 -1.5625 -0.875l0.53125 -0.796875q0.546875 0.484375 1.34375 0.765625q0.796875 0.296875 1.6875 0.296875q1.46875 0 2.15625 -0.6875q0.6875 -0.6875 0.6875 -2.125l0 -1.90625l0.140625 -1.328125l-0.09375 -1.3125l0 -2.328125l1.0 0l0 6.75q0 2.0 -0.984375 2.921875q-0.96875 0.9375 -2.875 0.9375zm-0.1875 -3.21875q-1.109375 0 -1.984375 -0.46875q-0.875 -0.484375 -1.390625 -1.328125q-0.5 -0.859375 -0.5 -1.953125q0 -1.09375 0.5 -1.9375q0.515625 -0.84375 1.390625 -1.3125q0.875 -0.46875 1.984375 -0.46875q1.015625 0 1.828125 0.421875q0.828125 0.421875 1.3125 1.265625q0.484375 0.828125 0.484375 2.03125q0 1.203125 -0.484375 2.046875q-0.484375 0.828125 -1.3125 1.265625q-0.8125 0.4375 -1.828125 0.4375zm0.09375 -0.921875q0.859375 0 1.515625 -0.359375q0.65625 -0.359375 1.03125 -0.984375q0.390625 -0.640625 0.390625 -1.484375q0 -0.828125 -0.390625 -1.453125q-0.375 -0.640625 -1.03125 -1.0q-0.65625 -0.359375 -1.515625 -0.359375q-0.828125 0 -1.5 0.359375q-0.65625 0.359375 -1.03125 1.0q-0.375 0.625 -0.375 1.453125q0 0.84375 0.375 1.484375q0.375 0.625 1.03125 0.984375q0.671875 0.359375 1.5 0.359375zm10.773926 -6.546875q0.9375 0 1.640625 0.359375q0.71875 0.359375 1.125 1.09375q0.40625 0.734375 0.40625 1.84375l0 4.46875l-1.046875 0l0 -4.375q0 -1.203125 -0.609375 -1.828125q-0.609375 -0.625 -1.703125 -0.625q-0.8125 0 -1.421875 0.328125q-0.609375 0.328125 -0.953125 0.953125q-0.328125 0.625 -0.328125 1.5l0 4.046875l-1.03125 0l0 -7.6875l1.0 0l0 2.109375l-0.171875 -0.40625q0.375 -0.828125 1.171875 -1.296875q0.8125 -0.484375 1.921875 -0.484375zm10.79834 7.765625l0 -1.703125l-0.03125 -0.28125l0 -2.84375q0 -0.96875 -0.5625 -1.5q-0.546875 -0.53125 -1.625 -0.53125q-0.75 0 -1.421875 0.25q-0.671875 0.25 -1.140625 0.65625l-0.46875 -0.78125q0.578125 -0.484375 1.390625 -0.75q0.828125 -0.28125 1.734375 -0.28125q1.5 0 2.3125 0.75q0.8125 0.734375 0.8125 2.234375l0 4.78125l-1.0 0zm-2.640625 0.078125q-0.875 0 -1.515625 -0.28125q-0.625 -0.296875 -0.96875 -0.796875q-0.328125 -0.515625 -0.328125 -1.171875q0 -0.59375 0.28125 -1.078125q0.28125 -0.5 0.9375 -0.796875q0.65625 -0.3125 1.75 -0.3125l2.65625 0l0 0.78125l-2.625 0q-1.109375 0 -1.546875 0.40625q-0.4375 0.390625 -0.4375 0.96875q0 0.671875 0.515625 1.0625q0.515625 0.390625 1.4375 0.390625q0.875 0 1.515625 -0.390625q0.640625 -0.40625 0.9375 -1.171875l0.234375 0.71875q-0.296875 0.765625 -1.03125 1.21875q-0.71875 0.453125 -1.8125 0.453125zm6.475342 -0.078125l0 -10.875l1.03125 0l0 10.875l-1.03125 0z" fill-rule="nonzero"/><path fill="#000000" fill-opacity="0.0" d="m81.1601 200.28609l250.33072 0l0 72.72441l-250.33072 0z" fill-rule="evenodd"/><path fill="#595959" d="m109.43639 219.85046l0 -0.90625l3.84375 0l0 0.90625l-3.84375 0z" fill-rule="nonzero"/><path fill="#595959" d="m139.61324 223.36609l0 -7.6875l1.0 0l0 2.09375l-0.109375 -0.375q0.328125 -0.875 1.078125 -1.328125q0.765625 -0.46875 1.890625 -0.46875l0 1.015625q-0.046875 0 -0.109375 0q-0.0625 -0.015625 -0.125 -0.015625q-1.203125 0 -1.90625 0.734375q-0.6875 0.734375 -0.6875 2.109375l0 3.921875l-1.03125 0zm8.952133 0.078125q-1.203125 0 -2.109375 -0.5q-0.90625 -0.515625 -1.421875 -1.40625q-0.515625 -0.890625 -0.515625 -2.03125q0 -1.140625 0.484375 -2.015625q0.5 -0.875 1.359375 -1.375q0.859375 -0.515625 1.921875 -0.515625q1.09375 0 1.921875 0.5q0.84375 0.484375 1.328125 1.375q0.484375 0.875 0.484375 2.03125q0 0.078125 -0.015625 0.15625q0 0.078125 0 0.171875l-6.6875 0l0 -0.78125l6.140625 0l-0.40625 0.3125q0 -0.84375 -0.359375 -1.484375q-0.359375 -0.65625 -0.984375 -1.015625q-0.609375 -0.375 -1.421875 -0.375q-0.78125 0 -1.421875 0.375q-0.625 0.359375 -0.984375 1.015625q-0.34375 0.65625 -0.34375 1.515625l0 0.15625q0 0.875 0.390625 1.546875q0.390625 0.671875 1.078125 1.046875q0.703125 0.375 1.59375 0.375q0.703125 0 1.3125 -0.25q0.609375 -0.25 1.046875 -0.765625l0.578125 0.671875q-0.5 0.609375 -1.28125 0.9375q-0.765625 0.328125 -1.6875 0.328125zm8.024277 0q-1.09375 0 -1.6875 -0.578125q-0.578125 -0.59375 -0.578125 -1.671875l0 -7.21875l1.046875 0l0 7.15625q0 0.6875 0.34375 1.046875q0.34375 0.359375 0.984375 0.359375q0.6875 0 1.140625 -0.390625l0.375 0.75q-0.3125 0.28125 -0.75 0.421875q-0.421875 0.125 -0.875 0.125zm-3.640625 -6.90625l0 -0.859375l4.765625 0l0 0.859375l-4.765625 0zm7.1535797 6.828125l0 -7.6875l1.0 0l0 2.09375l-0.109375 -0.375q0.328125 -0.875 1.078125 -1.328125q0.765625 -0.46875 1.890625 -0.46875l0 1.015625q-0.046875 0 -0.109375 0q-0.0625 -0.015625 -0.125 -0.015625q-1.203125 0 -1.90625 0.734375q-0.6875 0.734375 -0.6875 2.109375l0 3.921875l-1.03125 0zm5.759842 0l0 -7.6875l1.03125 0l0 7.6875l-1.03125 0zm0.515625 -9.390625q-0.3125 0 -0.53125 -0.21875q-0.21875 -0.21875 -0.21875 -0.53125q0 -0.3125 0.21875 -0.515625q0.21875 -0.21875 0.53125 -0.21875q0.328125 0 0.546875 0.203125q0.21875 0.203125 0.21875 0.515625q0 0.328125 -0.21875 0.546875q-0.203125 0.21875 -0.546875 0.21875zm6.6925507 9.46875q-1.203125 0 -2.109375 -0.5q-0.90625 -0.515625 -1.421875 -1.40625q-0.515625 -0.890625 -0.515625 -2.03125q0 -1.140625 0.484375 -2.015625q0.5 -0.875 1.359375 -1.375q0.859375 -0.515625 1.921875 -0.515625q1.09375 0 1.921875 0.5q0.84375 0.484375 1.328125 1.375q0.484375 0.875 0.484375 2.03125q0 0.078125 -0.015625 0.15625q0 0.078125 0 0.171875l-6.6875 0l0 -0.78125l6.140625 0l-0.40625 0.3125q0 -0.84375 -0.359375 -1.484375q-0.359375 -0.65625 -0.984375 -1.015625q-0.609375 -0.375 -1.421875 -0.375q-0.78125 0 -1.421875 0.375q-0.625 0.359375 -0.984375 1.015625q-0.34375 0.65625 -0.34375 1.515625l0 0.15625q0 0.875 0.390625 1.546875q0.390625 0.671875 1.078125 1.046875q0.703125 0.375 1.59375 0.375q0.703125 0 1.3125 -0.25q0.609375 -0.25 1.046875 -0.765625l0.578125 0.671875q-0.5 0.609375 -1.28125 0.9375q-0.765625 0.328125 -1.6875 0.328125zm7.4088593 -0.078125l-3.40625 -7.6875l1.078125 0l3.140625 7.125l-0.515625 0l3.1875 -7.125l1.015625 0l-3.421875 7.6875l-1.078125 0zm9.020584 0.078125q-1.203125 0 -2.109375 -0.5q-0.90625 -0.515625 -1.421875 -1.40625q-0.515625 -0.890625 -0.515625 -2.03125q0 -1.140625 0.484375 -2.015625q0.5 -0.875 1.359375 -1.375q0.859375 -0.515625 1.921875 -0.515625q1.09375 0 1.921875 0.5q0.84375 0.484375 1.328125 1.375q0.484375 0.875 0.484375 2.03125q0 0.078125 -0.015625 0.15625q0 0.078125 0 0.171875l-6.6875 0l0 -0.78125l6.140625 0l-0.40625 0.3125q0 -0.84375 -0.359375 -1.484375q-0.359375 -0.65625 -0.984375 -1.015625q-0.609375 -0.375 -1.421875 -0.375q-0.78125 0 -1.421875 0.375q-0.625 0.359375 -0.984375 1.015625q-0.34375 0.65625 -0.34375 1.515625l0 0.15625q0 0.875 0.390625 1.546875q0.390625 0.671875 1.078125 1.046875q0.703125 0.375 1.59375 0.375q0.703125 0 1.3125 -0.25q0.609375 -0.25 1.046875 -0.765625l0.578125 0.671875q-0.5 0.609375 -1.28125 0.9375q-0.765625 0.328125 -1.6875 0.328125zm12.614227 0q-1.140625 0 -2.046875 -0.5q-0.890625 -0.515625 -1.40625 -1.40625q-0.515625 -0.890625 -0.515625 -2.03125q0 -1.15625 0.515625 -2.03125q0.515625 -0.875 1.40625 -1.375q0.90625 -0.5 2.046875 -0.5q0.984375 0 1.765625 0.390625q0.796875 0.375 1.265625 1.125l-0.78125 0.53125q-0.390625 -0.578125 -0.984375 -0.859375q-0.59375 -0.28125 -1.28125 -0.28125q-0.8125 0 -1.484375 0.375q-0.65625 0.375 -1.03125 1.046875q-0.375 0.671875 -0.375 1.578125q0 0.90625 0.375 1.59375q0.375 0.671875 1.03125 1.046875q0.671875 0.375 1.484375 0.375q0.6875 0 1.28125 -0.28125q0.59375 -0.28125 0.984375 -0.859375l0.78125 0.53125q-0.46875 0.75 -1.265625 1.140625q-0.78125 0.390625 -1.765625 0.390625zm5.2827454 -0.078125l0 -10.265625l3.84375 0q1.296875 0 2.234375 0.421875q0.9375 0.421875 1.4375 1.203125q0.515625 0.78125 0.515625 1.90625q0 1.078125 -0.515625 1.859375q-0.5 0.78125 -1.4375 1.21875q-0.9375 0.421875 -2.234375 0.421875l-3.25 0l0.484375 -0.515625l0 3.75l-1.078125 0zm1.078125 -3.671875l-0.484375 -0.515625l3.21875 0q1.53125 0 2.328125 -0.671875q0.8125 -0.671875 0.8125 -1.875q0 -1.234375 -0.8125 -1.90625q-0.796875 -0.6875 -2.328125 -0.6875l-3.21875 0l0.484375 -0.5l0 6.15625zm9.298431 3.671875l0 -10.265625l1.078125 0l0 10.265625l-1.078125 0zm4.4262085 0l0 -10.265625l4.171875 0q1.640625 0 2.875 0.65625q1.25 0.65625 1.9375 1.8125q0.6875 1.15625 0.6875 2.671875q0 1.5 -0.6875 2.671875q-0.6875 1.15625 -1.9375 1.8125q-1.234375 0.640625 -2.875 0.640625l-4.171875 0zm1.078125 -0.9375l3.046875 0q1.359375 0 2.359375 -0.53125q1.0 -0.546875 1.5625 -1.484375q0.5625 -0.953125 0.5625 -2.171875q0 -1.25 -0.5625 -2.1875q-0.5625 -0.9375 -1.5625 -1.46875q-1.0 -0.546875 -2.359375 -0.546875l-3.046875 0l0 8.390625z" fill-rule="nonzero"/><path fill="#595959" d="m109.43639 237.45047l0 -0.90625l3.84375 0l0 0.90625l-3.84375 0z" fill-rule="nonzero"/><path fill="#595959" d="m139.78511 240.9661l0 -8.65625q0 -1.03125 0.59375 -1.65625q0.609375 -0.640625 1.734375 -0.640625q0.4375 0 0.84375 0.125q0.421875 0.109375 0.703125 0.359375l-0.359375 0.78125q-0.21875 -0.1875 -0.515625 -0.28125q-0.28125 -0.09375 -0.625 -0.09375q-0.65625 0 -1.015625 0.359375q-0.34375 0.359375 -0.34375 1.078125l0 1.171875l0.03125 0.484375l0 6.96875l-1.046875 0zm-1.375 -6.828125l0 -0.859375l4.765625 0l0 0.859375l-4.765625 0zm9.305237 6.90625q-1.203125 0 -2.109375 -0.5q-0.90625 -0.515625 -1.421875 -1.40625q-0.515625 -0.890625 -0.515625 -2.03125q0 -1.140625 0.484375 -2.015625q0.5 -0.875 1.359375 -1.375q0.859375 -0.515625 1.921875 -0.515625q1.09375 0 1.921875 0.5q0.84375 0.484375 1.328125 1.375q0.484375 0.875 0.484375 2.03125q0 0.078125 -0.015625 0.15625q0 0.078125 0 0.171875l-6.6875 0l0 -0.78125l6.140625 0l-0.40625 0.3125q0 -0.84375 -0.359375 -1.484375q-0.359375 -0.65625 -0.984375 -1.015625q-0.609375 -0.375 -1.421875 -0.375q-0.78125 0 -1.421875 0.375q-0.625 0.359375 -0.984375 1.015625q-0.34375 0.65625 -0.34375 1.515625l0 0.15625q0 0.875 0.390625 1.546875q0.390625 0.671875 1.078125 1.046875q0.703125 0.375 1.59375 0.375q0.703125 0 1.3125 -0.25q0.609375 -0.25 1.046875 -0.765625l0.578125 0.671875q-0.5 0.609375 -1.28125 0.9375q-0.765625 0.328125 -1.6875 0.328125zm8.852402 0q-1.203125 0 -2.109375 -0.5q-0.90625 -0.515625 -1.421875 -1.40625q-0.515625 -0.890625 -0.515625 -2.03125q0 -1.140625 0.484375 -2.015625q0.5 -0.875 1.359375 -1.375q0.859375 -0.515625 1.921875 -0.515625q1.09375 0 1.921875 0.5q0.84375 0.484375 1.328125 1.375q0.484375 0.875 0.484375 2.03125q0 0.078125 -0.015625 0.15625q0 0.078125 0 0.171875l-6.6875 0l0 -0.78125l6.140625 0l-0.40625 0.3125q0 -0.84375 -0.359375 -1.484375q-0.359375 -0.65625 -0.984375 -1.015625q-0.609375 -0.375 -1.421875 -0.375q-0.78125 0 -1.421875 0.375q-0.625 0.359375 -0.984375 1.015625q-0.34375 0.65625 -0.34375 1.515625l0 0.15625q0 0.875 0.390625 1.546875q0.390625 0.671875 1.078125 1.046875q0.703125 0.375 1.59375 0.375q0.703125 0 1.3125 -0.25q0.609375 -0.25 1.046875 -0.765625l0.578125 0.671875q-0.5 0.609375 -1.28125 0.9375q-0.765625 0.328125 -1.6875 0.328125zm8.649277 0q-1.09375 0 -1.96875 -0.5q-0.875 -0.5 -1.375 -1.390625q-0.5 -0.890625 -0.5 -2.046875q0 -1.171875 0.5 -2.046875q0.5 -0.875 1.375 -1.359375q0.875 -0.5 1.96875 -0.5q1.015625 0 1.8125 0.453125q0.796875 0.453125 1.265625 1.328125q0.484375 0.875 0.484375 2.125q0 1.25 -0.46875 2.140625q-0.46875 0.875 -1.265625 1.34375q-0.796875 0.453125 -1.828125 0.453125zm0.078125 -0.921875q0.8125 0 1.46875 -0.375q0.65625 -0.375 1.015625 -1.046875q0.375 -0.6875 0.375 -1.59375q0 -0.90625 -0.375 -1.578125q-0.359375 -0.671875 -1.015625 -1.046875q-0.65625 -0.375 -1.46875 -0.375q-0.8125 0 -1.46875 0.375q-0.640625 0.375 -1.015625 1.046875q-0.375 0.671875 -0.375 1.578125q0 0.90625 0.375 1.59375q0.375 0.671875 1.015625 1.046875q0.65625 0.375 1.46875 0.375zm2.890625 0.84375l0 -2.3125l0.109375 -1.5625l-0.140625 -1.546875l0 -5.453125l1.03125 0l0 10.875l-1.0 0zm7.874481 0.078125q-1.015625 0 -1.828125 -0.453125q-0.796875 -0.46875 -1.265625 -1.34375q-0.46875 -0.890625 -0.46875 -2.140625q0 -1.25 0.46875 -2.125q0.484375 -0.875 1.28125 -1.328125q0.8125 -0.453125 1.8125 -0.453125q1.09375 0 1.96875 0.5q0.875 0.484375 1.375 1.359375q0.5 0.875 0.5 2.046875q0 1.15625 -0.5 2.046875q-0.5 0.890625 -1.375 1.390625q-0.875 0.5 -1.96875 0.5zm-3.96875 -0.078125l0 -10.875l1.03125 0l0 5.453125l-0.140625 1.546875l0.109375 1.5625l0 2.3125l-1.0 0zm3.890625 -0.84375q0.828125 0 1.46875 -0.375q0.640625 -0.375 1.015625 -1.046875q0.390625 -0.6875 0.390625 -1.59375q0 -0.90625 -0.390625 -1.578125q-0.375 -0.671875 -1.015625 -1.046875q-0.640625 -0.375 -1.46875 -0.375q-0.8125 0 -1.46875 0.375q-0.65625 0.375 -1.03125 1.046875q-0.359375 0.671875 -0.359375 1.578125q0 0.90625 0.359375 1.59375q0.375 0.671875 1.03125 1.046875q0.65625 0.375 1.46875 0.375zm10.81485 0.84375l0 -1.703125l-0.03125 -0.28125l0 -2.84375q0 -0.96875 -0.5625 -1.5q-0.546875 -0.53125 -1.625 -0.53125q-0.75 0 -1.421875 0.25q-0.671875 0.25 -1.140625 0.65625l-0.46875 -0.78125q0.578125 -0.484375 1.390625 -0.75q0.828125 -0.28125 1.734375 -0.28125q1.5 0 2.3125 0.75q0.8125 0.734375 0.8125 2.234375l0 4.78125l-1.0 0zm-2.640625 0.078125q-0.875 0 -1.515625 -0.28125q-0.625 -0.296875 -0.96875 -0.796875q-0.328125 -0.515625 -0.328125 -1.171875q0 -0.59375 0.28125 -1.078125q0.28125 -0.5 0.9375 -0.796875q0.65625 -0.3125 1.75 -0.3125l2.65625 0l0 0.78125l-2.625 0q-1.109375 0 -1.546875 0.40625q-0.4375 0.390625 -0.4375 0.96875q0 0.671875 0.515625 1.0625q0.515625 0.390625 1.4375 0.390625q0.875 0 1.515625 -0.390625q0.640625 -0.40625 0.9375 -1.171875l0.234375 0.71875q-0.296875 0.765625 -1.03125 1.21875q-0.71875 0.453125 -1.8125 0.453125zm9.662842 0q-1.140625 0 -2.046875 -0.5q-0.890625 -0.515625 -1.40625 -1.40625q-0.515625 -0.890625 -0.515625 -2.03125q0 -1.15625 0.515625 -2.03125q0.515625 -0.875 1.40625 -1.375q0.90625 -0.5 2.046875 -0.5q0.984375 0 1.765625 0.390625q0.796875 0.375 1.265625 1.125l-0.78125 0.53125q-0.390625 -0.578125 -0.984375 -0.859375q-0.59375 -0.28125 -1.28125 -0.28125q-0.8125 0 -1.484375 0.375q-0.65625 0.375 -1.03125 1.046875q-0.375 0.671875 -0.375 1.578125q0 0.90625 0.375 1.59375q0.375 0.671875 1.03125 1.046875q0.671875 0.375 1.484375 0.375q0.6875 0 1.28125 -0.28125q0.59375 -0.28125 0.984375 -0.859375l0.78125 0.53125q-0.46875 0.75 -1.265625 1.140625q-0.78125 0.390625 -1.765625 0.390625zm5.7591553 -2.078125l0.03125 -1.328125l4.796875 -4.359375l1.28125 0l-3.390625 3.234375l-0.59375 0.5l-2.125 1.953125zm-0.8125 2.0l0 -10.875l1.03125 0l0 10.875l-1.03125 0zm5.96875 0l-3.21875 -4.0l0.671875 -0.8125l3.8125 4.8125l-1.265625 0zm9.117142 0.078125q-1.09375 0 -1.6875 -0.578125q-0.578125 -0.59375 -0.578125 -1.671875l0 -7.21875l1.046875 0l0 7.15625q0 0.6875 0.34375 1.046875q0.34375 0.359375 0.984375 0.359375q0.6875 0 1.140625 -0.390625l0.375 0.75q-0.3125 0.28125 -0.75 0.421875q-0.421875 0.125 -0.875 0.125zm-3.640625 -6.90625l0 -0.859375l4.765625 0l0 0.859375l-4.765625 0zm10.015533 6.90625q-1.125 0 -2.015625 -0.5q-0.875 -0.515625 -1.390625 -1.40625q-0.515625 -0.890625 -0.515625 -2.03125q0 -1.15625 0.515625 -2.03125q0.515625 -0.875 1.390625 -1.375q0.875 -0.5 2.015625 -0.5q1.140625 0 2.015625 0.5q0.890625 0.5 1.390625 1.375q0.515625 0.875 0.515625 2.03125q0 1.140625 -0.515625 2.03125q-0.5 0.890625 -1.390625 1.40625q-0.890625 0.5 -2.015625 0.5zm0 -0.921875q0.828125 0 1.46875 -0.375q0.65625 -0.375 1.015625 -1.046875q0.375 -0.6875 0.375 -1.59375q0 -0.90625 -0.375 -1.578125q-0.359375 -0.671875 -1.015625 -1.046875q-0.640625 -0.375 -1.453125 -0.375q-0.828125 0 -1.484375 0.375q-0.640625 0.375 -1.015625 1.046875q-0.375 0.671875 -0.375 1.578125q0 0.90625 0.375 1.59375q0.375 0.671875 1.015625 1.046875q0.65625 0.375 1.46875 0.375zm13.076324 0.921875q-1.140625 0 -2.046875 -0.5q-0.890625 -0.515625 -1.40625 -1.40625q-0.515625 -0.890625 -0.515625 -2.03125q0 -1.15625 0.515625 -2.03125q0.515625 -0.875 1.40625 -1.375q0.90625 -0.5 2.046875 -0.5q0.984375 0 1.765625 0.390625q0.796875 0.375 1.265625 1.125l-0.78125 0.53125q-0.390625 -0.578125 -0.984375 -0.859375q-0.59375 -0.28125 -1.28125 -0.28125q-0.8125 0 -1.484375 0.375q-0.65625 0.375 -1.03125 1.046875q-0.375 0.671875 -0.375 1.578125q0 0.90625 0.375 1.59375q0.375 0.671875 1.03125 1.046875q0.671875 0.375 1.484375 0.375q0.6875 0 1.28125 -0.28125q0.59375 -0.28125 0.984375 -0.859375l0.78125 0.53125q-0.46875 0.75 -1.265625 1.140625q-0.78125 0.390625 -1.765625 0.390625zm5.2827454 -0.078125l0 -10.265625l3.84375 0q1.296875 0 2.234375 0.421875q0.9375 0.421875 1.4375 1.203125q0.515625 0.78125 0.515625 1.90625q0 1.078125 -0.515625 1.859375q-0.5 0.78125 -1.4375 1.21875q-0.9375 0.421875 -2.234375 0.421875l-3.25 0l0.484375 -0.515625l0 3.75l-1.078125 0zm1.078125 -3.671875l-0.484375 -0.515625l3.21875 0q1.53125 0 2.328125 -0.671875q0.8125 -0.671875 0.8125 -1.875q0 -1.234375 -0.8125 -1.90625q-0.796875 -0.6875 -2.328125 -0.6875l-3.21875 0l0.484375 -0.5l0 6.15625zm9.298431 3.671875l0 -10.265625l1.078125 0l0 10.265625l-1.078125 0zm4.4262085 0l0 -10.265625l4.171875 0q1.640625 0 2.875 0.65625q1.25 0.65625 1.9375 1.8125q0.6875 1.15625 0.6875 2.671875q0 1.5 -0.6875 2.671875q-0.6875 1.15625 -1.9375 1.8125q-1.234375 0.640625 -2.875 0.640625l-4.171875 0zm1.078125 -0.9375l3.046875 0q1.359375 0 2.359375 -0.53125q1.0 -0.546875 1.5625 -1.484375q0.5625 -0.953125 0.5625 -2.171875q0 -1.25 -0.5625 -2.1875q-0.5625 -0.9375 -1.5625 -1.46875q-1.0 -0.546875 -2.359375 -0.546875l-3.046875 0l0 8.390625zm19.46167 0.9375l0 -1.703125l-0.03125 -0.28125l0 -2.84375q0 -0.96875 -0.5625 -1.5q-0.546875 -0.53125 -1.625 -0.53125q-0.75 0 -1.421875 0.25q-0.671875 0.25 -1.140625 0.65625l-0.46875 -0.78125q0.578125 -0.484375 1.390625 -0.75q0.828125 -0.28125 1.734375 -0.28125q1.5 0 2.3125 0.75q0.8125 0.734375 0.8125 2.234375l0 4.78125l-1.0 0zm-2.640625 0.078125q-0.875 0 -1.515625 -0.28125q-0.625 -0.296875 -0.96875 -0.796875q-0.328125 -0.515625 -0.328125 -1.171875q0 -0.59375 0.28125 -1.078125q0.28125 -0.5 0.9375 -0.796875q0.65625 -0.3125 1.75 -0.3125l2.65625 0l0 0.78125l-2.625 0q-1.109375 0 -1.546875 0.40625q-0.4375 0.390625 -0.4375 0.96875q0 0.671875 0.515625 1.0625q0.515625 0.390625 1.4375 0.390625q0.875 0 1.515625 -0.390625q0.640625 -0.40625 0.9375 -1.171875l0.234375 0.71875q-0.296875 0.765625 -1.03125 1.21875q-0.71875 0.453125 -1.8125 0.453125zm6.647217 -0.078125l0 -8.65625q0 -1.03125 0.59375 -1.65625q0.609375 -0.640625 1.734375 -0.640625q0.4375 0 0.84375 0.125q0.421875 0.109375 0.703125 0.359375l-0.359375 0.78125q-0.21875 -0.1875 -0.515625 -0.28125q-0.28125 -0.09375 -0.625 -0.09375q-0.65625 0 -1.015625 0.359375q-0.34375 0.359375 -0.34375 1.078125l0 1.171875l0.03125 0.484375l0 6.96875l-1.046875 0zm-1.375 -6.828125l0 -0.859375l4.765625 0l0 0.859375l-4.765625 0zm8.609131 6.90625q-1.09375 0 -1.6875 -0.578125q-0.578125 -0.59375 -0.578125 -1.671875l0 -7.21875l1.046875 0l0 7.15625q0 0.6875 0.34375 1.046875q0.34375 0.359375 0.984375 0.359375q0.6875 0 1.140625 -0.390625l0.375 0.75q-0.3125 0.28125 -0.75 0.421875q-0.421875 0.125 -0.875 0.125zm-3.640625 -6.90625l0 -0.859375l4.765625 0l0 0.859375l-4.765625 0zm10.140533 6.90625q-1.203125 0 -2.109375 -0.5q-0.90625 -0.515625 -1.421875 -1.40625q-0.515625 -0.890625 -0.515625 -2.03125q0 -1.140625 0.484375 -2.015625q0.5 -0.875 1.359375 -1.375q0.859375 -0.515625 1.921875 -0.515625q1.09375 0 1.921875 0.5q0.84375 0.484375 1.328125 1.375q0.484375 0.875 0.484375 2.03125q0 0.078125 -0.015625 0.15625q0 0.078125 0 0.171875l-6.6875 0l0 -0.78125l6.140625 0l-0.40625 0.3125q0 -0.84375 -0.359375 -1.484375q-0.359375 -0.65625 -0.984375 -1.015625q-0.609375 -0.375 -1.421875 -0.375q-0.78125 0 -1.421875 0.375q-0.625 0.359375 -0.984375 1.015625q-0.34375 0.65625 -0.34375 1.515625l0 0.15625q0 0.875 0.390625 1.546875q0.390625 0.671875 1.078125 1.046875q0.703125 0.375 1.59375 0.375q0.703125 0 1.3125 -0.25q0.609375 -0.25 1.046875 -0.765625l0.578125 0.671875q-0.5 0.609375 -1.28125 0.9375q-0.765625 0.328125 -1.6875 0.328125zm5.5867615 -0.078125l0 -7.6875l1.0 0l0 2.09375l-0.109375 -0.375q0.328125 -0.875 1.078125 -1.328125q0.765625 -0.46875 1.890625 -0.46875l0 1.015625q-0.046875 0 -0.109375 0q-0.0625 -0.015625 -0.125 -0.015625q-1.203125 0 -1.90625 0.734375q-0.6875 0.734375 -0.6875 2.109375l0 3.921875l-1.03125 0z" fill-rule="nonzero"/><path fill="#595959" d="m142.87886 258.64423q-1.203125 0 -2.109375 -0.5q-0.90625 -0.515625 -1.421875 -1.40625q-0.515625 -0.89064026 -0.515625 -2.0312653q0 -1.140625 0.484375 -2.015625q0.5 -0.875 1.359375 -1.375q0.859375 -0.515625 1.921875 -0.515625q1.09375 0 1.921875 0.5q0.84375 0.484375 1.328125 1.375q0.484375 0.875 0.484375 2.03125q0 0.078125 -0.015625 0.15625q0 0.078125 0 0.171875l-6.6875 0l0 -0.78125l6.140625 0l-0.40625 0.3125q0 -0.84375 -0.359375 -1.484375q-0.359375 -0.65625 -0.984375 -1.015625q-0.609375 -0.375 -1.421875 -0.375q-0.78125 0 -1.421875 0.375q-0.625 0.359375 -0.984375 1.015625q-0.34375 0.65625 -0.34375 1.515625l0 0.15625q0 0.875 0.390625 1.5468903q0.390625 0.671875 1.078125 1.046875q0.703125 0.375 1.59375 0.375q0.703125 0 1.3125 -0.25q0.609375 -0.25 1.046875 -0.765625l0.578125 0.671875q-0.5 0.609375 -1.28125 0.9375q-0.765625 0.328125 -1.6875 0.328125zm10.1792755 -0.078125l0 -1.703125l-0.03125 -0.28125l0 -2.8437653q0 -0.96875 -0.5625 -1.5q-0.546875 -0.53125 -1.625 -0.53125q-0.75 0 -1.421875 0.25q-0.671875 0.25 -1.140625 0.65625l-0.46875 -0.78125q0.578125 -0.484375 1.390625 -0.75q0.828125 -0.28125 1.734375 -0.28125q1.5 0 2.3125 0.75q0.8125 0.734375 0.8125 2.234375l0 4.7812653l-1.0 0zm-2.640625 0.078125q-0.875 0 -1.515625 -0.28125q-0.625 -0.296875 -0.96875 -0.796875q-0.328125 -0.515625 -0.328125 -1.171875q0 -0.59376526 0.28125 -1.0781403q0.28125 -0.5 0.9375 -0.796875q0.65625 -0.3125 1.75 -0.3125l2.65625 0l0 0.78125l-2.625 0q-1.109375 0 -1.546875 0.40625q-0.4375 0.390625 -0.4375 0.96876526q0 0.671875 0.515625 1.0625q0.515625 0.390625 1.4375 0.390625q0.875 0 1.515625 -0.390625q0.640625 -0.40625 0.9375 -1.171875l0.234375 0.71875q-0.296875 0.765625 -1.03125 1.21875q-0.71875 0.453125 -1.8125 0.453125zm9.662842 0q-1.140625 0 -2.046875 -0.5q-0.890625 -0.515625 -1.40625 -1.40625q-0.515625 -0.89064026 -0.515625 -2.0312653q0 -1.15625 0.515625 -2.03125q0.515625 -0.875 1.40625 -1.375q0.90625 -0.5 2.046875 -0.5q0.984375 0 1.765625 0.390625q0.796875 0.375 1.265625 1.125l-0.78125 0.53125q-0.390625 -0.578125 -0.984375 -0.859375q-0.59375 -0.28125 -1.28125 -0.28125q-0.8125 0 -1.484375 0.375q-0.65625 0.375 -1.03125 1.046875q-0.375 0.671875 -0.375 1.578125q0 0.90625 0.375 1.5937653q0.375 0.671875 1.03125 1.046875q0.671875 0.375 1.484375 0.375q0.6875 0 1.28125 -0.28125q0.59375 -0.28125 0.984375 -0.859375l0.78125 0.53125q-0.46875 0.75 -1.265625 1.140625q-0.78125 0.390625 -1.765625 0.390625zm8.86853 -7.8437653q0.9375 0 1.640625 0.359375q0.71875 0.359375 1.125 1.09375q0.40625 0.734375 0.40625 1.84375l0 4.4687653l-1.046875 0l0 -4.3750153q0 -1.203125 -0.609375 -1.828125q-0.609375 -0.625 -1.703125 -0.625q-0.8125 0 -1.421875 0.328125q-0.609375 0.328125 -0.953125 0.953125q-0.328125 0.625 -0.328125 1.5l0 4.0468903l-1.03125 0l0 -10.875015l1.03125 0l0 5.296875l-0.203125 -0.40625q0.375 -0.828125 1.171875 -1.296875q0.8125 -0.484375 1.921875 -0.484375zm13.794495 7.8437653q-1.015625 0 -1.828125 -0.453125q-0.796875 -0.46875 -1.265625 -1.34375q-0.46875 -0.89064026 -0.46875 -2.1406403q0 -1.25 0.46875 -2.125q0.484375 -0.875 1.28125 -1.328125q0.8125 -0.453125 1.8125 -0.453125q1.09375 0 1.96875 0.5q0.875 0.484375 1.375 1.359375q0.5 0.875 0.5 2.046875q0 1.15625 -0.5 2.0468903q-0.5 0.890625 -1.375 1.390625q-0.875 0.5 -1.96875 0.5zm-3.96875 -0.078125l0 -10.875015l1.03125 0l0 5.453125l-0.140625 1.546875l0.109375 1.5625153l0 2.3125l-1.0 0zm3.890625 -0.84375q0.828125 0 1.46875 -0.375q0.640625 -0.375 1.015625 -1.046875q0.390625 -0.68751526 0.390625 -1.5937653q0 -0.90625 -0.390625 -1.578125q-0.375 -0.671875 -1.015625 -1.046875q-0.640625 -0.375 -1.46875 -0.375q-0.8125 0 -1.46875 0.375q-0.65625 0.375 -1.03125 1.046875q-0.359375 0.671875 -0.359375 1.578125q0 0.90625 0.359375 1.5937653q0.375 0.671875 1.03125 1.046875q0.65625 0.375 1.46875 0.375zm6.046356 0.84375l0 -7.6875153l1.03125 0l0 7.6875153l-1.03125 0zm0.515625 -9.39064q-0.3125 0 -0.53125 -0.21875q-0.21875 -0.21875 -0.21875 -0.53125q0 -0.3125 0.21875 -0.515625q0.21875 -0.21875 0.53125 -0.21875q0.328125 0 0.546875 0.203125q0.21875 0.203125 0.21875 0.515625q0 0.328125 -0.21875 0.546875q-0.203125 0.21875 -0.546875 0.21875zm5.8644257 9.468765q-1.09375 0 -1.6875 -0.578125q-0.578125 -0.59375 -0.578125 -1.671875l0 -7.2187653l1.046875 0l0 7.1562653q0 0.6875 0.34375 1.046875q0.34375 0.359375 0.984375 0.359375q0.6875 0 1.140625 -0.390625l0.375 0.75q-0.3125 0.28125 -0.75 0.421875q-0.421875 0.125 -0.875 0.125zm-3.640625 -6.9062653l0 -0.859375l4.765625 0l0 0.859375l-4.765625 0zm10.99353 6.8281403l0 -7.6875153l1.0 0l0 2.09375l-0.109375 -0.375q0.328125 -0.875 1.078125 -1.328125q0.765625 -0.46875 1.890625 -0.46875l0 1.015625q-0.046875 0 -0.109375 0q-0.0625 -0.015625 -0.125 -0.015625q-1.203125 0 -1.90625 0.734375q-0.6875 0.734375 -0.6875 2.109375l0 3.9218903l-1.03125 0zm8.952133 0.078125q-1.203125 0 -2.109375 -0.5q-0.90625 -0.515625 -1.421875 -1.40625q-0.515625 -0.89064026 -0.515625 -2.0312653q0 -1.140625 0.484375 -2.015625q0.5 -0.875 1.359375 -1.375q0.859375 -0.515625 1.921875 -0.515625q1.09375 0 1.921875 0.5q0.84375 0.484375 1.328125 1.375q0.484375 0.875 0.484375 2.03125q0 0.078125 -0.015625 0.15625q0 0.078125 0 0.171875l-6.6875 0l0 -0.78125l6.140625 0l-0.40625 0.3125q0 -0.84375 -0.359375 -1.484375q-0.359375 -0.65625 -0.984375 -1.015625q-0.609375 -0.375 -1.421875 -0.375q-0.78125 0 -1.421875 0.375q-0.625 0.359375 -0.984375 1.015625q-0.34375 0.65625 -0.34375 1.515625l0 0.15625q0 0.875 0.390625 1.5468903q0.390625 0.671875 1.078125 1.046875q0.703125 0.375 1.59375 0.375q0.703125 0 1.3125 -0.25q0.609375 -0.25 1.046875 -0.765625l0.578125 0.671875q-0.5 0.609375 -1.28125 0.9375q-0.765625 0.328125 -1.6875 0.328125zm8.774277 0q-1.140625 0 -2.046875 -0.5q-0.890625 -0.515625 -1.40625 -1.40625q-0.515625 -0.89064026 -0.515625 -2.0312653q0 -1.15625 0.515625 -2.03125q0.515625 -0.875 1.40625 -1.375q0.90625 -0.5 2.046875 -0.5q0.984375 0 1.765625 0.390625q0.796875 0.375 1.265625 1.125l-0.78125 0.53125q-0.390625 -0.578125 -0.984375 -0.859375q-0.59375 -0.28125 -1.28125 -0.28125q-0.8125 0 -1.484375 0.375q-0.65625 0.375 -1.03125 1.046875q-0.375 0.671875 -0.375 1.578125q0 0.90625 0.375 1.5937653q0.375 0.671875 1.03125 1.046875q0.671875 0.375 1.484375 0.375q0.6875 0 1.28125 -0.28125q0.59375 -0.28125 0.984375 -0.859375l0.78125 0.53125q-0.46875 0.75 -1.265625 1.140625q-0.78125 0.390625 -1.765625 0.390625zm8.197617 0q-1.203125 0 -2.109375 -0.5q-0.90625 -0.515625 -1.421875 -1.40625q-0.515625 -0.89064026 -0.515625 -2.0312653q0 -1.140625 0.484375 -2.015625q0.5 -0.875 1.359375 -1.375q0.859375 -0.515625 1.921875 -0.515625q1.09375 0 1.921875 0.5q0.84375 0.484375 1.328125 1.375q0.484375 0.875 0.484375 2.03125q0 0.078125 -0.015625 0.15625q0 0.078125 0 0.171875l-6.6875 0l0 -0.78125l6.140625 0l-0.40625 0.3125q0 -0.84375 -0.359375 -1.484375q-0.359375 -0.65625 -0.984375 -1.015625q-0.609375 -0.375 -1.421875 -0.375q-0.78125 0 -1.421875 0.375q-0.625 0.359375 -0.984375 1.015625q-0.34375 0.65625 -0.34375 1.515625l0 0.15625q0 0.875 0.390625 1.5468903q0.390625 0.671875 1.078125 1.046875q0.703125 0.375 1.59375 0.375q0.703125 0 1.3125 -0.25q0.609375 -0.25 1.046875 -0.765625l0.578125 0.671875q-0.5 0.609375 -1.28125 0.9375q-0.765625 0.328125 -1.6875 0.328125zm5.5867767 -0.078125l0 -7.6875153l1.03125 0l0 7.6875153l-1.03125 0zm0.515625 -9.39064q-0.3125 0 -0.53125 -0.21875q-0.21875 -0.21875 -0.21875 -0.53125q0 -0.3125 0.21875 -0.515625q0.21875 -0.21875 0.53125 -0.21875q0.328125 0 0.546875 0.203125q0.21875 0.203125 0.21875 0.515625q0 0.328125 -0.21875 0.546875q-0.203125 0.21875 -0.546875 0.21875zm5.3956757 9.39064l-3.40625 -7.6875153l1.078125 0l3.140625 7.1250153l-0.515625 0l3.1875 -7.1250153l1.015625 0l-3.421875 7.6875153l-1.078125 0zm9.020584 0.078125q-1.203125 0 -2.109375 -0.5q-0.90625 -0.515625 -1.421875 -1.40625q-0.515625 -0.89064026 -0.515625 -2.0312653q0 -1.140625 0.484375 -2.015625q0.5 -0.875 1.359375 -1.375q0.859375 -0.515625 1.921875 -0.515625q1.09375 0 1.921875 0.5q0.84375 0.484375 1.328125 1.375q0.484375 0.875 0.484375 2.03125q0 0.078125 -0.015625 0.15625q0 0.078125 0 0.171875l-6.6875 0l0 -0.78125l6.140625 0l-0.40625 0.3125q0 -0.84375 -0.359375 -1.484375q-0.359375 -0.65625 -0.984375 -1.015625q-0.609375 -0.375 -1.421875 -0.375q-0.78125 0 -1.421875 0.375q-0.625 0.359375 -0.984375 1.015625q-0.34375 0.65625 -0.34375 1.515625l0 0.15625q0 0.875 0.390625 1.5468903q0.390625 0.671875 1.078125 1.046875q0.703125 0.375 1.59375 0.375q0.703125 0 1.3125 -0.25q0.609375 -0.25 1.046875 -0.765625l0.578125 0.671875q-0.5 0.609375 -1.28125 0.9375q-0.765625 0.328125 -1.6875 0.328125zm8.649277 0q-1.09375 0 -1.96875 -0.5q-0.875 -0.5 -1.375 -1.390625q-0.5 -0.89064026 -0.5 -2.0468903q0 -1.171875 0.5 -2.046875q0.5 -0.875 1.375 -1.359375q0.875 -0.5 1.96875 -0.5q1.015625 0 1.8125 0.453125q0.796875 0.453125 1.265625 1.328125q0.484375 0.875 0.484375 2.125q0 1.25 -0.46875 2.1406403q-0.46875 0.875 -1.265625 1.34375q-0.796875 0.453125 -1.828125 0.453125zm0.078125 -0.921875q0.8125 0 1.46875 -0.375q0.65625 -0.375 1.015625 -1.046875q0.375 -0.68751526 0.375 -1.5937653q0 -0.90625 -0.375 -1.578125q-0.359375 -0.671875 -1.015625 -1.046875q-0.65625 -0.375 -1.46875 -0.375q-0.8125 0 -1.46875 0.375q-0.640625 0.375 -1.015625 1.046875q-0.375 0.671875 -0.375 1.578125q0 0.90625 0.375 1.5937653q0.375 0.671875 1.015625 1.046875q0.65625 0.375 1.46875 0.375zm2.890625 0.84375l0 -2.3125l0.109375 -1.5625153l-0.140625 -1.546875l0 -5.453125l1.03125 0l0 10.875015l-1.0 0z" fill-rule="nonzero"/><path fill="#000000" fill-opacity="0.0" d="m609.1601 124.64829l-253.66928 0" fill-rule="evenodd"/><path stroke="#000000" stroke-width="1.0" stroke-linejoin="round" stroke-linecap="butt" d="m609.1601 124.64829l-247.66928 0" fill-rule="evenodd"/><path fill="#000000" stroke="#000000" stroke-width="1.0" stroke-linecap="butt" d="m361.4908 122.99656l-4.538086 1.6517334l4.538086 1.6517334z" fill-rule="evenodd"/><path fill="#000000" fill-opacity="0.0" d="m355.4908 236.6483l253.66928 0" fill-rule="evenodd"/><path stroke="#000000" stroke-width="1.0" stroke-linejoin="round" stroke-linecap="butt" d="m355.4908 236.6483l247.66928 0" fill-rule="evenodd"/><path fill="#000000" stroke="#000000" stroke-width="1.0" stroke-linecap="butt" d="m603.1601 238.30003l4.538086 -1.6517334l-4.538086 -1.6517334z" fill-rule="evenodd"/><path fill="#000000" fill-opacity="0.0" d="m206.35695 140.53806l-0.03149414 43.74803" fill-rule="evenodd"/><path stroke="#000000" stroke-width="1.0" stroke-linejoin="round" stroke-linecap="butt" d="m206.35695 140.53806l-0.027160645 37.74803" fill-rule="evenodd"/><path fill="#000000" stroke="#000000" stroke-width="1.0" stroke-linecap="butt" d="m204.67804 178.2849l1.648468 4.5392914l1.6549988 -4.536911z" fill-rule="evenodd"/><path fill="#000000" fill-opacity="0.0" d="m585.1601 208.28609l250.33069 0l0 54.929123l-250.33069 0z" fill-rule="evenodd"/><path fill="#595959" d="m613.4364 227.85046l0 -0.90625l3.84375 0l0 0.90625l-3.84375 0z" fill-rule="nonzero"/><path fill="#595959" d="m643.6132 231.36609l0 -7.6875l1.0 0l0 2.09375l-0.109375 -0.375q0.328125 -0.875 1.078125 -1.328125q0.765625 -0.46875 1.890625 -0.46875l0 1.015625q-0.046875 0 -0.109375 0q-0.0625 -0.015625 -0.125 -0.015625q-1.203125 0 -1.90625 0.734375q-0.6875 0.734375 -0.6875 2.109375l0 3.921875l-1.03125 0zm8.952148 0.078125q-1.203125 0 -2.109375 -0.5q-0.90625 -0.515625 -1.421875 -1.40625q-0.515625 -0.890625 -0.515625 -2.03125q0 -1.140625 0.484375 -2.015625q0.5 -0.875 1.359375 -1.375q0.859375 -0.515625 1.921875 -0.515625q1.09375 0 1.921875 0.5q0.84375 0.484375 1.328125 1.375q0.484375 0.875 0.484375 2.03125q0 0.078125 -0.015625 0.15625q0 0.078125 0 0.171875l-6.6875 0l0 -0.78125l6.140625 0l-0.40625 0.3125q0 -0.84375 -0.359375 -1.484375q-0.359375 -0.65625 -0.984375 -1.015625q-0.609375 -0.375 -1.421875 -0.375q-0.78125 0 -1.421875 0.375q-0.625 0.359375 -0.984375 1.015625q-0.34375 0.65625 -0.34375 1.515625l0 0.15625q0 0.875 0.390625 1.546875q0.390625 0.671875 1.078125 1.046875q0.703125 0.375 1.59375 0.375q0.703125 0 1.3125 -0.25q0.609375 -0.25 1.046875 -0.765625l0.578125 0.671875q-0.5 0.609375 -1.28125 0.9375q-0.765625 0.328125 -1.6875 0.328125zm8.024292 0q-1.09375 0 -1.6875 -0.578125q-0.578125 -0.59375 -0.578125 -1.671875l0 -7.21875l1.046875 0l0 7.15625q0 0.6875 0.34375 1.046875q0.34375 0.359375 0.984375 0.359375q0.6875 0 1.140625 -0.390625l0.375 0.75q-0.3125 0.28125 -0.75 0.421875q-0.421875 0.125 -0.875 0.125zm-3.640625 -6.90625l0 -0.859375l4.765625 0l0 0.859375l-4.765625 0zm7.1535645 6.828125l0 -7.6875l1.0 0l0 2.09375l-0.109375 -0.375q0.328125 -0.875 1.078125 -1.328125q0.765625 -0.46875 1.890625 -0.46875l0 1.015625q-0.046875 0 -0.109375 0q-0.0625 -0.015625 -0.125 -0.015625q-1.203125 0 -1.90625 0.734375q-0.6875 0.734375 -0.6875 2.109375l0 3.921875l-1.03125 0zm5.7598267 0l0 -7.6875l1.03125 0l0 7.6875l-1.03125 0zm0.515625 -9.390625q-0.3125 0 -0.53125 -0.21875q-0.21875 -0.21875 -0.21875 -0.53125q0 -0.3125 0.21875 -0.515625q0.21875 -0.21875 0.53125 -0.21875q0.328125 0 0.546875 0.203125q0.21875 0.203125 0.21875 0.515625q0 0.328125 -0.21875 0.546875q-0.203125 0.21875 -0.546875 0.21875zm6.692566 9.46875q-1.203125 0 -2.109375 -0.5q-0.90625 -0.515625 -1.421875 -1.40625q-0.515625 -0.890625 -0.515625 -2.03125q0 -1.140625 0.484375 -2.015625q0.5 -0.875 1.359375 -1.375q0.859375 -0.515625 1.921875 -0.515625q1.09375 0 1.921875 0.5q0.84375 0.484375 1.328125 1.375q0.484375 0.875 0.484375 2.03125q0 0.078125 -0.015625 0.15625q0 0.078125 0 0.171875l-6.6875 0l0 -0.78125l6.140625 0l-0.40625 0.3125q0 -0.84375 -0.359375 -1.484375q-0.359375 -0.65625 -0.984375 -1.015625q-0.609375 -0.375 -1.421875 -0.375q-0.78125 0 -1.421875 0.375q-0.625 0.359375 -0.984375 1.015625q-0.34375 0.65625 -0.34375 1.515625l0 0.15625q0 0.875 0.390625 1.546875q0.390625 0.671875 1.078125 1.046875q0.703125 0.375 1.59375 0.375q0.703125 0 1.3125 -0.25q0.609375 -0.25 1.046875 -0.765625l0.578125 0.671875q-0.5 0.609375 -1.28125 0.9375q-0.765625 0.328125 -1.6875 0.328125zm7.4088745 -0.078125l-3.40625 -7.6875l1.078125 0l3.140625 7.125l-0.515625 0l3.1875 -7.125l1.015625 0l-3.421875 7.6875l-1.078125 0zm9.020569 0.078125q-1.203125 0 -2.109375 -0.5q-0.90625 -0.515625 -1.421875 -1.40625q-0.515625 -0.890625 -0.515625 -2.03125q0 -1.140625 0.484375 -2.015625q0.5 -0.875 1.359375 -1.375q0.859375 -0.515625 1.921875 -0.515625q1.09375 0 1.921875 0.5q0.84375 0.484375 1.328125 1.375q0.484375 0.875 0.484375 2.03125q0 0.078125 -0.015625 0.15625q0 0.078125 0 0.171875l-6.6875 0l0 -0.78125l6.140625 0l-0.40625 0.3125q0 -0.84375 -0.359375 -1.484375q-0.359375 -0.65625 -0.984375 -1.015625q-0.609375 -0.375 -1.421875 -0.375q-0.78125 0 -1.421875 0.375q-0.625 0.359375 -0.984375 1.015625q-0.34375 0.65625 -0.34375 1.515625l0 0.15625q0 0.875 0.390625 1.546875q0.390625 0.671875 1.078125 1.046875q0.703125 0.375 1.59375 0.375q0.703125 0 1.3125 -0.25q0.609375 -0.25 1.046875 -0.765625l0.578125 0.671875q-0.5 0.609375 -1.28125 0.9375q-0.765625 0.328125 -1.6875 0.328125zm12.614197 0q-1.140625 0 -2.046875 -0.5q-0.890625 -0.515625 -1.40625 -1.40625q-0.515625 -0.890625 -0.515625 -2.03125q0 -1.15625 0.515625 -2.03125q0.515625 -0.875 1.40625 -1.375q0.90625 -0.5 2.046875 -0.5q0.984375 0 1.765625 0.390625q0.796875 0.375 1.265625 1.125l-0.78125 0.53125q-0.390625 -0.578125 -0.984375 -0.859375q-0.59375 -0.28125 -1.28125 -0.28125q-0.8125 0 -1.484375 0.375q-0.65625 0.375 -1.03125 1.046875q-0.375 0.671875 -0.375 1.578125q0 0.90625 0.375 1.59375q0.375 0.671875 1.03125 1.046875q0.671875 0.375 1.484375 0.375q0.6875 0 1.28125 -0.28125q0.59375 -0.28125 0.984375 -0.859375l0.78125 0.53125q-0.46875 0.75 -1.265625 1.140625q-0.78125 0.390625 -1.765625 0.390625zm8.072632 0q-1.125 0 -2.015625 -0.5q-0.875 -0.515625 -1.390625 -1.40625q-0.515625 -0.890625 -0.515625 -2.03125q0 -1.15625 0.515625 -2.03125q0.515625 -0.875 1.390625 -1.375q0.875 -0.5 2.015625 -0.5q1.140625 0 2.015625 0.5q0.890625 0.5 1.390625 1.375q0.515625 0.875 0.515625 2.03125q0 1.140625 -0.515625 2.03125q-0.5 0.890625 -1.390625 1.40625q-0.890625 0.5 -2.015625 0.5zm0 -0.921875q0.828125 0 1.46875 -0.375q0.65625 -0.375 1.015625 -1.046875q0.375 -0.6875 0.375 -1.59375q0 -0.90625 -0.375 -1.578125q-0.359375 -0.671875 -1.015625 -1.046875q-0.640625 -0.375 -1.453125 -0.375q-0.828125 0 -1.484375 0.375q-0.640625 0.375 -1.015625 1.046875q-0.375 0.671875 -0.375 1.578125q0 0.90625 0.375 1.59375q0.375 0.671875 1.015625 1.046875q0.65625 0.375 1.46875 0.375zm9.970764 -6.921875q0.9375 0 1.640625 0.359375q0.71875 0.359375 1.125 1.09375q0.40625 0.734375 0.40625 1.84375l0 4.46875l-1.046875 0l0 -4.375q0 -1.203125 -0.609375 -1.828125q-0.609375 -0.625 -1.703125 -0.625q-0.8125 0 -1.421875 0.328125q-0.609375 0.328125 -0.953125 0.953125q-0.328125 0.625 -0.328125 1.5l0 4.046875l-1.03125 0l0 -7.6875l1.0 0l0 2.109375l-0.171875 -0.40625q0.375 -0.828125 1.171875 -1.296875q0.8125 -0.484375 1.921875 -0.484375zm6.157654 7.765625l0 -8.65625q0 -1.03125 0.59375 -1.65625q0.609375 -0.640625 1.734375 -0.640625q0.4375 0 0.84375 0.125q0.421875 0.109375 0.703125 0.359375l-0.359375 0.78125q-0.21875 -0.1875 -0.515625 -0.28125q-0.28125 -0.09375 -0.625 -0.09375q-0.65625 0 -1.015625 0.359375q-0.34375 0.359375 -0.34375 1.078125l0 1.171875l0.03125 0.484375l0 6.96875l-1.046875 0zm-1.375 -6.828125l0 -0.859375l4.765625 0l0 0.859375l-4.765625 0zm6.171875 6.828125l0 -7.6875l1.03125 0l0 7.6875l-1.03125 0zm0.515625 -9.390625q-0.3125 0 -0.53125 -0.21875q-0.21875 -0.21875 -0.21875 -0.53125q0 -0.3125 0.21875 -0.515625q0.21875 -0.21875 0.53125 -0.21875q0.328125 0 0.546875 0.203125q0.21875 0.203125 0.21875 0.515625q0 0.328125 -0.21875 0.546875q-0.203125 0.21875 -0.546875 0.21875zm3.4413452 9.390625l0 -7.6875l1.0 0l0 2.09375l-0.109375 -0.375q0.328125 -0.875 1.078125 -1.328125q0.765625 -0.46875 1.890625 -0.46875l0 1.015625q-0.046875 0 -0.109375 0q-0.0625 -0.015625 -0.125 -0.015625q-1.203125 0 -1.90625 0.734375q-0.6875 0.734375 -0.6875 2.109375l0 3.921875l-1.03125 0zm15.369202 -7.765625q0.9375 0 1.625 0.359375q0.703125 0.359375 1.09375 1.09375q0.390625 0.734375 0.390625 1.84375l0 4.46875l-1.046875 0l0 -4.375q0 -1.203125 -0.578125 -1.828125q-0.578125 -0.625 -1.625 -0.625q-0.796875 0 -1.375 0.328125q-0.578125 0.328125 -0.890625 0.953125q-0.3125 0.625 -0.3125 1.5l0 4.046875l-1.046875 0l0 -4.375q0 -1.203125 -0.59375 -1.828125q-0.578125 -0.625 -1.625 -0.625q-0.78125 0 -1.375 0.328125q-0.578125 0.328125 -0.90625 0.953125q-0.3125 0.625 -0.3125 1.5l0 4.046875l-1.03125 0l0 -7.6875l1.0 0l0 2.078125l-0.171875 -0.375q0.359375 -0.828125 1.140625 -1.296875q0.78125 -0.484375 1.859375 -0.484375q1.125 0 1.90625 0.5625q0.796875 0.5625 1.03125 1.6875l-0.40625 -0.15625q0.34375 -0.9375 1.1875 -1.515625q0.859375 -0.578125 2.0625 -0.578125zm10.753479 7.765625l0 -1.703125l-0.03125 -0.28125l0 -2.84375q0 -0.96875 -0.5625 -1.5q-0.546875 -0.53125 -1.625 -0.53125q-0.75 0 -1.421875 0.25q-0.671875 0.25 -1.140625 0.65625l-0.46875 -0.78125q0.578125 -0.484375 1.390625 -0.75q0.828125 -0.28125 1.734375 -0.28125q1.5 0 2.3125 0.75q0.8125 0.734375 0.8125 2.234375l0 4.78125l-1.0 0zm-2.640625 0.078125q-0.875 0 -1.515625 -0.28125q-0.625 -0.296875 -0.96875 -0.796875q-0.328125 -0.515625 -0.328125 -1.171875q0 -0.59375 0.28125 -1.078125q0.28125 -0.5 0.9375 -0.796875q0.65625 -0.3125 1.75 -0.3125l2.65625 0l0 0.78125l-2.625 0q-1.109375 0 -1.546875 0.40625q-0.4375 0.390625 -0.4375 0.96875q0 0.671875 0.515625 1.0625q0.515625 0.390625 1.4375 0.390625q0.875 0 1.515625 -0.390625q0.640625 -0.40625 0.9375 -1.171875l0.234375 0.71875q-0.296875 0.765625 -1.03125 1.21875q-0.71875 0.453125 -1.8125 0.453125zm8.912842 0q-1.09375 0 -1.6875 -0.578125q-0.578125 -0.59375 -0.578125 -1.671875l0 -7.21875l1.046875 0l0 7.15625q0 0.6875 0.34375 1.046875q0.34375 0.359375 0.984375 0.359375q0.6875 0 1.140625 -0.390625l0.375 0.75q-0.3125 0.28125 -0.75 0.421875q-0.421875 0.125 -0.875 0.125zm-3.640625 -6.90625l0 -0.859375l4.765625 0l0 0.859375l-4.765625 0zm7.1535645 6.828125l0 -7.6875l1.03125 0l0 7.6875l-1.03125 0zm0.515625 -9.390625q-0.3125 0 -0.53125 -0.21875q-0.21875 -0.21875 -0.21875 -0.53125q0 -0.3125 0.21875 -0.515625q0.21875 -0.21875 0.53125 -0.21875q0.328125 0 0.546875 0.203125q0.21875 0.203125 0.21875 0.515625q0 0.328125 -0.21875 0.546875q-0.203125 0.21875 -0.546875 0.21875zm6.567566 9.46875q-1.125 0 -2.015625 -0.5q-0.875 -0.515625 -1.390625 -1.40625q-0.515625 -0.890625 -0.515625 -2.03125q0 -1.15625 0.515625 -2.03125q0.515625 -0.875 1.390625 -1.375q0.875 -0.5 2.015625 -0.5q1.140625 0 2.015625 0.5q0.890625 0.5 1.390625 1.375q0.515625 0.875 0.515625 2.03125q0 1.140625 -0.515625 2.03125q-0.5 0.890625 -1.390625 1.40625q-0.890625 0.5 -2.015625 0.5zm0 -0.921875q0.828125 0 1.46875 -0.375q0.65625 -0.375 1.015625 -1.046875q0.375 -0.6875 0.375 -1.59375q0 -0.90625 -0.375 -1.578125q-0.359375 -0.671875 -1.015625 -1.046875q-0.640625 -0.375 -1.453125 -0.375q-0.828125 0 -1.484375 0.375q-0.640625 0.375 -1.015625 1.046875q-0.375 0.671875 -0.375 1.578125q0 0.90625 0.375 1.59375q0.375 0.671875 1.015625 1.046875q0.65625 0.375 1.46875 0.375zm9.970703 -6.921875q0.9375 0 1.640625 0.359375q0.71875 0.359375 1.125 1.09375q0.40625 0.734375 0.40625 1.84375l0 4.46875l-1.046875 0l0 -4.375q0 -1.203125 -0.609375 -1.828125q-0.609375 -0.625 -1.703125 -0.625q-0.8125 0 -1.421875 0.328125q-0.609375 0.328125 -0.953125 0.953125q-0.328125 0.625 -0.328125 1.5l0 4.046875l-1.03125 0l0 -7.6875l1.0 0l0 2.109375l-0.171875 -0.40625q0.375 -0.828125 1.171875 -1.296875q0.8125 -0.484375 1.921875 -0.484375z" fill-rule="nonzero"/><path fill="#595959" d="m613.4364 245.45047l0 -0.90625l3.84375 0l0 0.90625l-3.84375 0z" fill-rule="nonzero"/><path fill="#595959" d="m645.6757 249.04422q-0.953125 0 -1.8125 -0.265625q-0.84375 -0.28125 -1.328125 -0.6875l0.46875 -0.828125q0.46875 0.359375 1.203125 0.625q0.734375 0.25 1.546875 0.25q1.09375 0 1.578125 -0.34375q0.484375 -0.359375 0.484375 -0.921875q0 -0.421875 -0.28125 -0.65625q-0.265625 -0.25 -0.703125 -0.375q-0.4375 -0.125 -0.984375 -0.203125q-0.53125 -0.09375 -1.078125 -0.21875q-0.53125 -0.125 -0.96875 -0.34375q-0.4375 -0.234375 -0.71875 -0.625q-0.265625 -0.390625 -0.265625 -1.046875q0 -0.640625 0.34375 -1.140625q0.359375 -0.5 1.03125 -0.78125q0.6875 -0.28125 1.671875 -0.28125q0.75 0 1.5 0.203125q0.75 0.1875 1.234375 0.515625l-0.453125 0.828125q-0.515625 -0.34375 -1.109375 -0.5q-0.578125 -0.15625 -1.171875 -0.15625q-1.03125 0 -1.53125 0.359375q-0.484375 0.359375 -0.484375 0.921875q0 0.4375 0.265625 0.6875q0.28125 0.25 0.71875 0.390625q0.453125 0.140625 0.984375 0.234375q0.53125 0.078125 1.0625 0.203125q0.546875 0.125 0.984375 0.34375q0.453125 0.203125 0.71875 0.59375q0.28125 0.390625 0.28125 1.015625q0 0.671875 -0.375 1.171875q-0.375 0.484375 -1.09375 0.765625q-0.703125 0.265625 -1.71875 0.265625zm8.355408 0q-1.203125 0 -2.109375 -0.5q-0.90625 -0.515625 -1.421875 -1.40625q-0.515625 -0.890625 -0.515625 -2.03125q0 -1.140625 0.484375 -2.015625q0.5 -0.875 1.359375 -1.375q0.859375 -0.515625 1.921875 -0.515625q1.09375 0 1.921875 0.5q0.84375 0.484375 1.328125 1.375q0.484375 0.875 0.484375 2.03125q0 0.078125 -0.015625 0.15625q0 0.078125 0 0.171875l-6.6875 0l0 -0.78125l6.140625 0l-0.40625 0.3125q0 -0.84375 -0.359375 -1.484375q-0.359375 -0.65625 -0.984375 -1.015625q-0.609375 -0.375 -1.421875 -0.375q-0.78125 0 -1.421875 0.375q-0.625 0.359375 -0.984375 1.015625q-0.34375 0.65625 -0.34375 1.515625l0 0.15625q0 0.875 0.390625 1.546875q0.390625 0.671875 1.078125 1.046875q0.703125 0.375 1.59375 0.375q0.703125 0 1.3125 -0.25q0.609375 -0.25 1.046875 -0.765625l0.578125 0.671875q-0.5 0.609375 -1.28125 0.9375q-0.765625 0.328125 -1.6875 0.328125zm9.508667 -7.84375q0.9375 0 1.640625 0.359375q0.71875 0.359375 1.125 1.09375q0.40625 0.734375 0.40625 1.84375l0 4.46875l-1.046875 0l0 -4.375q0 -1.203125 -0.609375 -1.828125q-0.609375 -0.625 -1.703125 -0.625q-0.8125 0 -1.421875 0.328125q-0.609375 0.328125 -0.953125 0.953125q-0.328125 0.625 -0.328125 1.5l0 4.046875l-1.03125 0l0 -7.6875l1.0 0l0 2.109375l-0.171875 -0.40625q0.375 -0.828125 1.171875 -1.296875q0.8125 -0.484375 1.921875 -0.484375zm9.048279 7.84375q-1.09375 0 -1.96875 -0.5q-0.875 -0.5 -1.375 -1.390625q-0.5 -0.890625 -0.5 -2.046875q0 -1.171875 0.5 -2.046875q0.5 -0.875 1.375 -1.359375q0.875 -0.5 1.96875 -0.5q1.015625 0 1.8125 0.453125q0.796875 0.453125 1.265625 1.328125q0.484375 0.875 0.484375 2.125q0 1.25 -0.46875 2.140625q-0.46875 0.875 -1.265625 1.34375q-0.796875 0.453125 -1.828125 0.453125zm0.078125 -0.921875q0.8125 0 1.46875 -0.375q0.65625 -0.375 1.015625 -1.046875q0.375 -0.6875 0.375 -1.59375q0 -0.90625 -0.375 -1.578125q-0.359375 -0.671875 -1.015625 -1.046875q-0.65625 -0.375 -1.46875 -0.375q-0.8125 0 -1.46875 0.375q-0.640625 0.375 -1.015625 1.046875q-0.375 0.671875 -0.375 1.578125q0 0.90625 0.375 1.59375q0.375 0.671875 1.015625 1.046875q0.65625 0.375 1.46875 0.375zm2.890625 0.84375l0 -2.3125l0.109375 -1.5625l-0.140625 -1.546875l0 -5.453125l1.03125 0l0 10.875l-1.0 0zm11.6675415 -7.765625q0.9375 0 1.640625 0.359375q0.71875 0.359375 1.125 1.09375q0.40625 0.734375 0.40625 1.84375l0 4.46875l-1.046875 0l0 -4.375q0 -1.203125 -0.609375 -1.828125q-0.609375 -0.625 -1.703125 -0.625q-0.8125 0 -1.421875 0.328125q-0.609375 0.328125 -0.953125 0.953125q-0.328125 0.625 -0.328125 1.5l0 4.046875l-1.03125 0l0 -7.6875l1.0 0l0 2.109375l-0.171875 -0.40625q0.375 -0.828125 1.171875 -1.296875q0.8125 -0.484375 1.921875 -0.484375zm9.251465 7.84375q-1.203125 0 -2.109375 -0.5q-0.90625 -0.515625 -1.421875 -1.40625q-0.515625 -0.890625 -0.515625 -2.03125q0 -1.140625 0.484375 -2.015625q0.5 -0.875 1.359375 -1.375q0.859375 -0.515625 1.921875 -0.515625q1.09375 0 1.921875 0.5q0.84375 0.484375 1.328125 1.375q0.484375 0.875 0.484375 2.03125q0 0.078125 -0.015625 0.15625q0 0.078125 0 0.171875l-6.6875 0l0 -0.78125l6.140625 0l-0.40625 0.3125q0 -0.84375 -0.359375 -1.484375q-0.359375 -0.65625 -0.984375 -1.015625q-0.609375 -0.375 -1.421875 -0.375q-0.78125 0 -1.421875 0.375q-0.625 0.359375 -0.984375 1.015625q-0.34375 0.65625 -0.34375 1.515625l0 0.15625q0 0.875 0.390625 1.546875q0.390625 0.671875 1.078125 1.046875q0.703125 0.375 1.59375 0.375q0.703125 0 1.3125 -0.25q0.609375 -0.25 1.046875 -0.765625l0.578125 0.671875q-0.5 0.609375 -1.28125 0.9375q-0.765625 0.328125 -1.6875 0.328125zm4.1948853 -0.078125l3.25 -4.21875l-0.015625 0.515625l-3.09375 -3.984375l1.171875 0l2.546875 3.296875l-0.453125 -0.015625l2.546875 -3.28125l1.140625 0l-3.125 4.015625l0.015625 -0.546875l3.28125 4.21875l-1.1875 0l-2.6875 -3.515625l0.421875 0.0625l-2.640625 3.453125l-1.171875 0zm11.435852 0.078125q-1.09375 0 -1.6875 -0.578125q-0.578125 -0.59375 -0.578125 -1.671875l0 -7.21875l1.046875 0l0 7.15625q0 0.6875 0.34375 1.046875q0.34375 0.359375 0.984375 0.359375q0.6875 0 1.140625 -0.390625l0.375 0.75q-0.3125 0.28125 -0.75 0.421875q-0.421875 0.125 -0.875 0.125zm-3.640625 -6.90625l0 -0.859375l4.765625 0l0 0.859375l-4.765625 0zm13.05603 6.90625q-0.953125 0 -1.8125 -0.265625q-0.84375 -0.28125 -1.328125 -0.6875l0.46875 -0.828125q0.46875 0.359375 1.203125 0.625q0.734375 0.25 1.546875 0.25q1.09375 0 1.578125 -0.34375q0.484375 -0.359375 0.484375 -0.921875q0 -0.421875 -0.28125 -0.65625q-0.265625 -0.25 -0.703125 -0.375q-0.4375 -0.125 -0.984375 -0.203125q-0.53125 -0.09375 -1.078125 -0.21875q-0.53125 -0.125 -0.96875 -0.34375q-0.4375 -0.234375 -0.71875 -0.625q-0.265625 -0.390625 -0.265625 -1.046875q0 -0.640625 0.34375 -1.140625q0.359375 -0.5 1.03125 -0.78125q0.6875 -0.28125 1.671875 -0.28125q0.75 0 1.5 0.203125q0.75 0.1875 1.234375 0.515625l-0.453125 0.828125q-0.515625 -0.34375 -1.109375 -0.5q-0.578125 -0.15625 -1.171875 -0.15625q-1.03125 0 -1.53125 0.359375q-0.484375 0.359375 -0.484375 0.921875q0 0.4375 0.265625 0.6875q0.28125 0.25 0.71875 0.390625q0.453125 0.140625 0.984375 0.234375q0.53125 0.078125 1.0625 0.203125q0.546875 0.125 0.984375 0.34375q0.453125 0.203125 0.71875 0.59375q0.28125 0.390625 0.28125 1.015625q0 0.671875 -0.375 1.171875q-0.375 0.484375 -1.09375 0.765625q-0.703125 0.265625 -1.71875 0.265625zm5.0897827 -0.078125l0 -7.6875l1.03125 0l0 7.6875l-1.03125 0zm0.515625 -9.390625q-0.3125 0 -0.53125 -0.21875q-0.21875 -0.21875 -0.21875 -0.53125q0 -0.3125 0.21875 -0.515625q0.21875 -0.21875 0.53125 -0.21875q0.328125 0 0.546875 0.203125q0.21875 0.203125 0.21875 0.515625q0 0.328125 -0.21875 0.546875q-0.203125 0.21875 -0.546875 0.21875zm6.70813 12.3125q-1.0625 0 -2.03125 -0.3125q-0.953125 -0.3125 -1.5625 -0.875l0.53125 -0.796875q0.546875 0.484375 1.34375 0.765625q0.796875 0.296875 1.6875 0.296875q1.46875 0 2.15625 -0.6875q0.6875 -0.6875 0.6875 -2.125l0 -1.90625l0.140625 -1.328125l-0.09375 -1.3125l0 -2.328125l1.0 0l0 6.75q0 2.0 -0.984375 2.921875q-0.96875 0.9375 -2.875 0.9375zm-0.1875 -3.21875q-1.109375 0 -1.984375 -0.46875q-0.875 -0.484375 -1.390625 -1.328125q-0.5 -0.859375 -0.5 -1.953125q0 -1.09375 0.5 -1.9375q0.515625 -0.84375 1.390625 -1.3125q0.875 -0.46875 1.984375 -0.46875q1.015625 0 1.828125 0.421875q0.828125 0.421875 1.3125 1.265625q0.484375 0.828125 0.484375 2.03125q0 1.203125 -0.484375 2.046875q-0.484375 0.828125 -1.3125 1.265625q-0.8125 0.4375 -1.828125 0.4375zm0.09375 -0.921875q0.859375 0 1.515625 -0.359375q0.65625 -0.359375 1.03125 -0.984375q0.390625 -0.640625 0.390625 -1.484375q0 -0.828125 -0.390625 -1.453125q-0.375 -0.640625 -1.03125 -1.0q-0.65625 -0.359375 -1.515625 -0.359375q-0.828125 0 -1.5 0.359375q-0.65625 0.359375 -1.03125 1.0q-0.375 0.625 -0.375 1.453125q0 0.84375 0.375 1.484375q0.375 0.625 1.03125 0.984375q0.671875 0.359375 1.5 0.359375zm10.773987 -6.546875q0.9375 0 1.640625 0.359375q0.71875 0.359375 1.125 1.09375q0.40625 0.734375 0.40625 1.84375l0 4.46875l-1.046875 0l0 -4.375q0 -1.203125 -0.609375 -1.828125q-0.609375 -0.625 -1.703125 -0.625q-0.8125 0 -1.421875 0.328125q-0.609375 0.328125 -0.953125 0.953125q-0.328125 0.625 -0.328125 1.5l0 4.046875l-1.03125 0l0 -7.6875l1.0 0l0 2.109375l-0.171875 -0.40625q0.375 -0.828125 1.171875 -1.296875q0.8125 -0.484375 1.921875 -0.484375zm10.798279 7.765625l0 -1.703125l-0.03125 -0.28125l0 -2.84375q0 -0.96875 -0.5625 -1.5q-0.546875 -0.53125 -1.625 -0.53125q-0.75 0 -1.421875 0.25q-0.671875 0.25 -1.140625 0.65625l-0.46875 -0.78125q0.578125 -0.484375 1.390625 -0.75q0.828125 -0.28125 1.734375 -0.28125q1.5 0 2.3125 0.75q0.8125 0.734375 0.8125 2.234375l0 4.78125l-1.0 0zm-2.640625 0.078125q-0.875 0 -1.515625 -0.28125q-0.625 -0.296875 -0.96875 -0.796875q-0.328125 -0.515625 -0.328125 -1.171875q0 -0.59375 0.28125 -1.078125q0.28125 -0.5 0.9375 -0.796875q0.65625 -0.3125 1.75 -0.3125l2.65625 0l0 0.78125l-2.625 0q-1.109375 0 -1.546875 0.40625q-0.4375 0.390625 -0.4375 0.96875q0 0.671875 0.515625 1.0625q0.515625 0.390625 1.4375 0.390625q0.875 0 1.515625 -0.390625q0.640625 -0.40625 0.9375 -1.171875l0.234375 0.71875q-0.296875 0.765625 -1.03125 1.21875q-0.71875 0.453125 -1.8125 0.453125zm6.475342 -0.078125l0 -10.875l1.03125 0l0 10.875l-1.03125 0z" fill-rule="nonzero"/><path fill="#000000" fill-opacity="0.0" d="m394.91864 16.286089l175.49603 0l0 48.472443l-175.49603 0z" fill-rule="evenodd"/><path fill="#595959" d="m414.028 48.466717q-1.921875 0 -3.546875 -0.625q-1.625 -0.640625 -2.8125 -1.796875q-1.1875 -1.15625 -1.84375 -2.703125q-0.65625 -1.5625 -0.65625 -3.421875q0 -1.84375 0.65625 -3.40625q0.65625 -1.5625 1.859375 -2.703125q1.203125 -1.15625 2.8125 -1.78125q1.625 -0.6406269 3.546875 -0.6406269q1.921875 0 3.515625 0.59375q1.59375 0.5937519 2.734375 1.8281269l-1.109375 1.125q-1.0625 -1.0625 -2.34375 -1.515625q-1.265625 -0.453125 -2.71875 -0.453125q-1.5625 0 -2.875 0.515625q-1.296875 0.515625 -2.28125 1.46875q-0.96875 0.9375 -1.515625 2.203125q-0.53125 1.265625 -0.53125 2.765625q0 1.5 0.53125 2.765625q0.546875 1.265625 1.515625 2.21875q0.984375 0.953125 2.28125 1.46875q1.3125 0.515625 2.84375 0.515625q1.4375 0 2.71875 -0.421875q1.296875 -0.4375 2.375 -1.484375l1.0 1.359375q-1.1875 1.046875 -2.796875 1.59375q-1.609375 0.53125 -3.359375 0.53125zm4.453125 -2.34375l0 -6.203125l1.703125 0l0 6.421875l-1.703125 -0.21875zm11.723816 2.328125q-1.96875 0 -3.46875 -0.828125q-1.484375 -0.828125 -2.328125 -2.28125q-0.828125 -1.453125 -0.828125 -3.328125q0 -1.875 0.796875 -3.3125q0.8125 -1.4375 2.203125 -2.265625q1.40625 -0.828125 3.15625 -0.828125q1.78125 0 3.15625 0.8125q1.390625 0.796875 2.171875 2.25q0.796875 1.453125 0.796875 3.34375q0 0.125 -0.015625 0.265625q0 0.125 0 0.265625l-10.96875 0l0 -1.28125l10.046875 0l-0.671875 0.515625q0 -1.375 -0.59375 -2.4375q-0.578125 -1.078125 -1.59375 -1.671875q-1.0 -0.59375 -2.328125 -0.59375q-1.296875 0 -2.328125 0.59375q-1.03125 0.59375 -1.609375 1.6875q-0.5625 1.078125 -0.5625 2.46875l0 0.265625q0 1.4375 0.625 2.53125q0.640625 1.09375 1.78125 1.703125q1.140625 0.609375 2.609375 0.609375q1.140625 0 2.140625 -0.40625q1.0 -0.40625 1.71875 -1.25l0.953125 1.109375q-0.828125 1.0 -2.09375 1.53125q-1.265625 0.53125 -2.765625 0.53125zm15.574066 -12.84375q1.53125 0 2.6875 0.59375q1.171875 0.578125 1.828125 1.78125q0.65625 1.203125 0.65625 3.03125l0 7.3125l-1.703125 0l0 -7.15625q0 -1.984375 -1.0 -3.0q-0.984375 -1.03125 -2.78125 -1.03125q-1.34375 0 -2.34375 0.546875q-1.0 0.53125 -1.546875 1.5625q-0.53125 1.015625 -0.53125 2.453125l0 6.625l-1.703125 0l0 -12.59375l1.640625 0l0 3.453125l-0.265625 -0.65625q0.59375 -1.359375 1.90625 -2.140625q1.328125 -0.78125 3.15625 -0.78125zm15.1458435 12.84375q-1.96875 0 -3.46875 -0.828125q-1.484375 -0.828125 -2.328125 -2.28125q-0.828125 -1.453125 -0.828125 -3.328125q0 -1.875 0.796875 -3.3125q0.8125 -1.4375 2.203125 -2.265625q1.40625 -0.828125 3.15625 -0.828125q1.78125 0 3.15625 0.8125q1.390625 0.796875 2.171875 2.25q0.796875 1.453125 0.796875 3.34375q0 0.125 -0.015625 0.265625q0 0.125 0 0.265625l-10.96875 0l0 -1.28125l10.046875 0l-0.671875 0.515625q0 -1.375 -0.59375 -2.4375q-0.578125 -1.078125 -1.59375 -1.671875q-1.0 -0.59375 -2.328125 -0.59375q-1.296875 0 -2.328125 0.59375q-1.03125 0.59375 -1.609375 1.6875q-0.5625 1.078125 -0.5625 2.46875l0 0.265625q0 1.4375 0.625 2.53125q0.640625 1.09375 1.78125 1.703125q1.140625 0.609375 2.609375 0.609375q1.140625 0 2.140625 -0.40625q1.0 -0.40625 1.71875 -1.25l0.953125 1.109375q-0.828125 1.0 -2.09375 1.53125q-1.265625 0.53125 -2.765625 0.53125zm9.136566 -0.125l0 -12.59375l1.640625 0l0 3.421875l-0.171875 -0.59375q0.53125 -1.4375 1.765625 -2.1875q1.25 -0.765625 3.109375 -0.765625l0 1.65625q-0.109375 0 -0.203125 -0.015625q-0.09375 -0.015625 -0.1875 -0.015625q-1.984375 0 -3.125 1.21875q-1.125 1.21875 -1.125 3.4375l0 6.4375l-1.703125 0zm16.386597 0l0 -2.78125l-0.0625 -0.453125l0 -4.65625q0 -1.609375 -0.90625 -2.46875q-0.890625 -0.875 -2.671875 -0.875q-1.21875 0 -2.328125 0.40625q-1.109375 0.40625 -1.875 1.078125l-0.765625 -1.265625q0.953125 -0.8125 2.296875 -1.25q1.34375 -0.453125 2.84375 -0.453125q2.4375 0 3.765625 1.21875q1.34375 1.203125 1.34375 3.671875l0 7.828125l-1.640625 0zm-4.34375 0.125q-1.40625 0 -2.453125 -0.46875q-1.046875 -0.46875 -1.609375 -1.296875q-0.546875 -0.828125 -0.546875 -1.90625q0 -0.984375 0.46875 -1.78125q0.46875 -0.8125 1.53125 -1.296875q1.078125 -0.5 2.875 -0.5l4.34375 0l0 1.265625l-4.296875 0q-1.8125 0 -2.53125 0.65625q-0.703125 0.640625 -0.703125 1.609375q0 1.078125 0.84375 1.734375q0.84375 0.640625 2.34375 0.640625q1.4375 0 2.484375 -0.65625q1.046875 -0.671875 1.53125 -1.921875l0.375 1.1875q-0.46875 1.234375 -1.65625 1.984375q-1.1875 0.75 -3.0 0.75zm10.613098 -0.125l0 -17.812502l1.703125 0l0 17.812502l-1.703125 0zm13.0252075 0l0 -14.1875q0 -1.671875 0.984375 -2.703127q0.984375 -1.03125 2.84375 -1.03125q0.71875 0 1.390625 0.1875q0.671875 0.1875 1.1249695 0.59375l-0.5780945 1.2812519q-0.359375 -0.3125 -0.84375 -0.4687519q-0.46875 -0.15625 -1.03125 -0.15625q-1.078125 0 -1.65625 0.6093769q-0.578125 0.59375 -0.578125 1.765625l0 1.921875l0.0625 0.78125l0 11.40625l-1.71875 0zm-2.25 -11.1875l0 -1.40625l7.796875 0l0 1.40625l-7.796875 0zm10.1093445 11.1875l0 -17.812502l1.703125 0l0 17.812502l-1.703125 0zm11.615967 0.125q-1.828125 0 -3.28125 -0.828125q-1.453125 -0.828125 -2.296875 -2.28125q-0.828125 -1.453125 -0.828125 -3.328125q0 -1.890625 0.828125 -3.328125q0.84375 -1.453125 2.28125 -2.265625q1.4375 -0.8125 3.296875 -0.8125q1.875 0 3.3125 0.8125q1.453125 0.8125 2.28125 2.265625q0.828125 1.4375 0.828125 3.328125q0 1.875 -0.828125 3.328125q-0.828125 1.453125 -2.296875 2.28125q-1.453125 0.828125 -3.296875 0.828125zm0 -1.515625q1.359375 0 2.40625 -0.609375q1.0625 -0.609375 1.671875 -1.71875q0.625 -1.125 0.625 -2.59375q0 -1.484375 -0.625 -2.59375q-0.609375 -1.109375 -1.671875 -1.71875q-1.046875 -0.609375 -2.390625 -0.609375q-1.34375 0 -2.40625 0.609375q-1.046875 0.609375 -1.671875 1.71875q-0.625 1.109375 -0.625 2.59375q0 1.46875 0.625 2.59375q0.625 1.109375 1.671875 1.71875q1.0625 0.609375 2.390625 0.609375zm12.109863 1.390625l-4.75 -12.59375l1.640625 0l4.3125 11.6875l-0.734375 0l4.4375 -11.6875l1.453125 0l4.40625 11.6875l-0.75 0l4.390625 -11.6875l1.5625 0l-4.78125 12.59375l-1.609375 0l-4.21875 -10.984375l0.5 0l-4.25 10.984375l-1.609375 0z" fill-rule="nonzero"/><path fill="#000000" fill-opacity="0.0" d="m462.90027 94.068245l44.53543 0l0 38.771645l-44.53543 0z" fill-rule="evenodd"/><path fill="#595959" d="m473.2284 121.53762l0 -14.984375l4.328125 0l0 1.953125l-1.828125 0l0 11.078125l1.828125 0l0 1.953125l-4.328125 0zm8.873871 -2.921875q-1.15625 0 -2.3125 -0.3125q-1.15625 -0.3125 -1.953125 -0.890625l1.0 -1.96875q0.640625 0.453125 1.484375 0.734375q0.859375 0.265625 1.71875 0.265625q0.984375 0 1.53125 -0.375q0.5625 -0.390625 0.5625 -1.0625q0 -0.640625 -0.5 -1.0q-0.484375 -0.375 -1.59375 -0.375l-1.171875 0l0 -1.71875l3.109375 -3.53125l0.296875 0.921875l-5.875 0l0 -2.078125l7.84375 0l0 1.6875l-3.109375 3.53125l-1.3125 -0.75l0.75 0q2.0625 0 3.109375 0.9375q1.0625 0.921875 1.0625 2.375q0 0.9375 -0.5 1.765625q-0.484375 0.828125 -1.515625 1.34375q-1.015625 0.5 -2.625 0.5zm9.784515 2.921875l-4.328125 0l0 -1.953125l1.828125 0l0 -11.078125l-1.828125 0l0 -1.953125l4.328125 0l0 14.984375z" fill-rule="nonzero"/><path fill="#000000" fill-opacity="0.0" d="m206.90027 142.06824l44.53543 0l0 38.771652l-44.53543 0z" fill-rule="evenodd"/><path fill="#595959" d="m217.2284 169.53761l0 -14.984375l4.328125 0l0 1.953125l-1.828125 0l0 11.078125l1.828125 0l0 1.953125l-4.328125 0zm4.803894 -5.46875l0 -1.734375l5.28125 -7.109375l2.71875 0l-5.171875 7.109375l-1.265625 -0.375l8.8125 0l0 2.109375l-10.375 0zm6.03125 2.359375l0 -2.359375l0.078125 -2.109375l0 -2.09375l2.453125 0l0 6.5625l-2.53125 0zm9.055267 3.109375l-4.328125 0l0 -1.953125l1.828125 0l0 -11.078125l-1.828125 0l0 -1.953125l4.328125 0l0 14.984375z" fill-rule="nonzero"/><path fill="#000000" fill-opacity="0.0" d="m462.90027 206.06824l44.53543 0l0 38.771652l-44.53543 0z" fill-rule="evenodd"/><path fill="#595959" d="m473.2284 233.53761l0 -14.984375l4.328125 0l0 1.953125l-1.828125 0l0 11.078125l1.828125 0l0 1.953125l-4.328125 0zm8.9973755 -2.921875q-1.171875 0 -2.328125 -0.3125q-1.140625 -0.3125 -1.953125 -0.890625l1.03125 -1.96875q0.640625 0.453125 1.46875 0.734375q0.84375 0.265625 1.71875 0.265625q0.96875 0 1.53125 -0.375q0.5625 -0.390625 0.5625 -1.078125q0 -0.4375 -0.234375 -0.765625q-0.21875 -0.34375 -0.796875 -0.515625q-0.5625 -0.171875 -1.578125 -0.171875l-2.875 0l0.578125 -6.3125l6.84375 0l0 2.078125l-5.90625 0l1.34375 -1.171875l-0.40625 4.484375l-1.34375 -1.171875l2.375 0q1.65625 0 2.671875 0.453125q1.015625 0.453125 1.484375 1.234375q0.46875 0.78125 0.46875 1.78125q0 0.984375 -0.5 1.828125q-0.5 0.84375 -1.53125 1.359375q-1.03125 0.515625 -2.625 0.515625zm9.64502 2.921875l-4.328125 0l0 -1.953125l1.828125 0l0 -11.078125l-1.828125 0l0 -1.953125l4.328125 0l0 14.984375z" fill-rule="nonzero"/><path fill="#000000" fill-opacity="0.0" d="m81.1601 320.2861l250.33072 0l0 37.165344l-250.33072 0z" fill-rule="evenodd"/><path fill="#595959" d="m109.43639 339.85046l0 -0.90625l3.84375 0l0 0.90625l-3.84375 0z" fill-rule="nonzero"/><path fill="#595959" d="m143.58199 343.4442q-1.0 0 -1.8125 -0.453125q-0.796875 -0.46875 -1.28125 -1.34375q-0.46875 -0.875 -0.46875 -2.140625q0 -1.25 0.46875 -2.125q0.46875 -0.875 1.265625 -1.328125q0.8125 -0.453125 1.828125 -0.453125q1.09375 0 1.96875 0.5q0.875 0.484375 1.375 1.375q0.5 0.875 0.5 2.03125q0 1.171875 -0.5 2.0625q-0.5 0.875 -1.375 1.375q-0.875 0.5 -1.96875 0.5zm-3.96875 2.765625l0 -10.53125l1.0 0l0 2.3125l-0.109375 1.53125l0.140625 1.5625l0 5.125l-1.03125 0zm3.890625 -3.6875q0.828125 0 1.46875 -0.375q0.640625 -0.375 1.015625 -1.046875q0.390625 -0.6875 0.390625 -1.59375q0 -0.890625 -0.390625 -1.5625q-0.375 -0.671875 -1.015625 -1.046875q-0.640625 -0.390625 -1.46875 -0.390625q-0.8125 0 -1.46875 0.390625q-0.65625 0.375 -1.03125 1.046875q-0.359375 0.671875 -0.359375 1.5625q0 0.90625 0.359375 1.59375q0.375 0.671875 1.03125 1.046875q0.65625 0.375 1.46875 0.375zm6.046356 0.84375l0 -7.6875l1.0 0l0 2.09375l-0.109375 -0.375q0.328125 -0.875 1.078125 -1.328125q0.765625 -0.46875 1.890625 -0.46875l0 1.015625q-0.046875 0 -0.109375 0q-0.0625 -0.015625 -0.125 -0.015625q-1.203125 0 -1.90625 0.734375q-0.6875 0.734375 -0.6875 2.109375l0 3.921875l-1.03125 0zm5.759842 0l0 -7.6875l1.03125 0l0 7.6875l-1.03125 0zm0.515625 -9.390625q-0.3125 0 -0.53125 -0.21875q-0.21875 -0.21875 -0.21875 -0.53125q0 -0.3125 0.21875 -0.515625q0.21875 -0.21875 0.53125 -0.21875q0.328125 0 0.546875 0.203125q0.21875 0.203125 0.21875 0.515625q0 0.328125 -0.21875 0.546875q-0.203125 0.21875 -0.546875 0.21875zm7.3488007 1.625q0.9375 0 1.640625 0.359375q0.71875 0.359375 1.125 1.09375q0.40625 0.734375 0.40625 1.84375l0 4.46875l-1.046875 0l0 -4.375q0 -1.203125 -0.609375 -1.828125q-0.609375 -0.625 -1.703125 -0.625q-0.8125 0 -1.421875 0.328125q-0.609375 0.328125 -0.953125 0.953125q-0.328125 0.625 -0.328125 1.5l0 4.046875l-1.03125 0l0 -7.6875l1.0 0l0 2.109375l-0.171875 -0.40625q0.375 -0.828125 1.171875 -1.296875q0.8125 -0.484375 1.921875 -0.484375zm8.423294 7.84375q-1.09375 0 -1.6875 -0.578125q-0.578125 -0.59375 -0.578125 -1.671875l0 -7.21875l1.046875 0l0 7.15625q0 0.6875 0.34375 1.046875q0.34375 0.359375 0.984375 0.359375q0.6875 0 1.140625 -0.390625l0.375 0.75q-0.3125 0.28125 -0.75 0.421875q-0.421875 0.125 -0.875 0.125zm-3.640625 -6.90625l0 -0.859375l4.765625 0l0 0.859375l-4.765625 0zm9.21608 6.90625q-0.953125 0 -1.8125 -0.265625q-0.84375 -0.28125 -1.328125 -0.6875l0.46875 -0.828125q0.46875 0.359375 1.203125 0.625q0.734375 0.25 1.546875 0.25q1.09375 0 1.578125 -0.34375q0.484375 -0.359375 0.484375 -0.921875q0 -0.421875 -0.28125 -0.65625q-0.265625 -0.25 -0.703125 -0.375q-0.4375 -0.125 -0.984375 -0.203125q-0.53125 -0.09375 -1.078125 -0.21875q-0.53125 -0.125 -0.96875 -0.34375q-0.4375 -0.234375 -0.71875 -0.625q-0.265625 -0.390625 -0.265625 -1.046875q0 -0.640625 0.34375 -1.140625q0.359375 -0.5 1.03125 -0.78125q0.6875 -0.28125 1.671875 -0.28125q0.75 0 1.5 0.203125q0.75 0.1875 1.234375 0.515625l-0.453125 0.828125q-0.515625 -0.34375 -1.109375 -0.5q-0.578125 -0.15625 -1.171875 -0.15625q-1.03125 0 -1.53125 0.359375q-0.484375 0.359375 -0.484375 0.921875q0 0.4375 0.265625 0.6875q0.28125 0.25 0.71875 0.390625q0.453125 0.140625 0.984375 0.234375q0.53125 0.078125 1.0625 0.203125q0.546875 0.125 0.984375 0.34375q0.453125 0.203125 0.71875 0.59375q0.28125 0.390625 0.28125 1.015625q0 0.671875 -0.375 1.171875q-0.375 0.484375 -1.09375 0.765625q-0.703125 0.265625 -1.71875 0.265625zm11.367233 0q-1.09375 0 -1.6875 -0.578125q-0.578125 -0.59375 -0.578125 -1.671875l0 -7.21875l1.046875 0l0 7.15625q0 0.6875 0.34375 1.046875q0.34375 0.359375 0.984375 0.359375q0.6875 0 1.140625 -0.390625l0.375 0.75q-0.3125 0.28125 -0.75 0.421875q-0.421875 0.125 -0.875 0.125zm-3.640625 -6.90625l0 -0.859375l4.765625 0l0 0.859375l-4.765625 0zm10.015533 6.90625q-1.125 0 -2.015625 -0.5q-0.875 -0.515625 -1.390625 -1.40625q-0.515625 -0.890625 -0.515625 -2.03125q0 -1.15625 0.515625 -2.03125q0.515625 -0.875 1.390625 -1.375q0.875 -0.5 2.015625 -0.5q1.140625 0 2.015625 0.5q0.890625 0.5 1.390625 1.375q0.515625 0.875 0.515625 2.03125q0 1.140625 -0.515625 2.03125q-0.5 0.890625 -1.390625 1.40625q-0.890625 0.5 -2.015625 0.5zm0 -0.921875q0.828125 0 1.46875 -0.375q0.65625 -0.375 1.015625 -1.046875q0.375 -0.6875 0.375 -1.59375q0 -0.90625 -0.375 -1.578125q-0.359375 -0.671875 -1.015625 -1.046875q-0.640625 -0.375 -1.453125 -0.375q-0.828125 0 -1.484375 0.375q-0.640625 0.375 -1.015625 1.046875q-0.375 0.671875 -0.375 1.578125q0 0.90625 0.375 1.59375q0.375 0.671875 1.015625 1.046875q0.65625 0.375 1.46875 0.375zm12.326324 0.921875q-1.09375 0 -1.6875 -0.578125q-0.578125 -0.59375 -0.578125 -1.671875l0 -7.21875l1.046875 0l0 7.15625q0 0.6875 0.34375 1.046875q0.34375 0.359375 0.984375 0.359375q0.6875 0 1.140625 -0.390625l0.375 0.75q-0.3125 0.28125 -0.75 0.421875q-0.421875 0.125 -0.875 0.125zm-3.640625 -6.90625l0 -0.859375l4.765625 0l0 0.859375l-4.765625 0zm10.140533 6.90625q-1.203125 0 -2.109375 -0.5q-0.90625 -0.515625 -1.421875 -1.40625q-0.515625 -0.890625 -0.515625 -2.03125q0 -1.140625 0.484375 -2.015625q0.5 -0.875 1.359375 -1.375q0.859375 -0.515625 1.921875 -0.515625q1.09375 0 1.921875 0.5q0.84375 0.484375 1.328125 1.375q0.484375 0.875 0.484375 2.03125q0 0.078125 -0.015625 0.15625q0 0.078125 0 0.171875l-6.6875 0l0 -0.78125l6.140625 0l-0.40625 0.3125q0 -0.84375 -0.359375 -1.484375q-0.359375 -0.65625 -0.984375 -1.015625q-0.609375 -0.375 -1.421875 -0.375q-0.78125 0 -1.421875 0.375q-0.625 0.359375 -0.984375 1.015625q-0.34375 0.65625 -0.34375 1.515625l0 0.15625q0 0.875 0.390625 1.546875q0.390625 0.671875 1.078125 1.046875q0.703125 0.375 1.59375 0.375q0.703125 0 1.3125 -0.25q0.609375 -0.25 1.046875 -0.765625l0.578125 0.671875q-0.5 0.609375 -1.28125 0.9375q-0.765625 0.328125 -1.6875 0.328125zm5.5867767 -0.078125l0 -7.6875l1.0 0l0 2.09375l-0.109375 -0.375q0.328125 -0.875 1.078125 -1.328125q0.765625 -0.46875 1.890625 -0.46875l0 1.015625q-0.046875 0 -0.109375 0q-0.0625 -0.015625 -0.125 -0.015625q-1.203125 0 -1.90625 0.734375q-0.6875 0.734375 -0.6875 2.109375l0 3.921875l-1.03125 0zm15.369217 -7.765625q0.9375 0 1.625 0.359375q0.703125 0.359375 1.09375 1.09375q0.390625 0.734375 0.390625 1.84375l0 4.46875l-1.046875 0l0 -4.375q0 -1.203125 -0.578125 -1.828125q-0.578125 -0.625 -1.625 -0.625q-0.796875 0 -1.375 0.328125q-0.578125 0.328125 -0.890625 0.953125q-0.3125 0.625 -0.3125 1.5l0 4.046875l-1.046875 0l0 -4.375q0 -1.203125 -0.59375 -1.828125q-0.578125 -0.625 -1.625 -0.625q-0.78125 0 -1.375 0.328125q-0.578125 0.328125 -0.90625 0.953125q-0.3125 0.625 -0.3125 1.5l0 4.046875l-1.03125 0l0 -7.6875l1.0 0l0 2.078125l-0.171875 -0.375q0.359375 -0.828125 1.140625 -1.296875q0.78125 -0.484375 1.859375 -0.484375q1.125 0 1.90625 0.5625q0.796875 0.5625 1.03125 1.6875l-0.40625 -0.15625q0.34375 -0.9375 1.1875 -1.515625q0.859375 -0.578125 2.0625 -0.578125zm5.9409637 7.765625l0 -7.6875l1.03125 0l0 7.6875l-1.03125 0zm0.515625 -9.390625q-0.3125 0 -0.53125 -0.21875q-0.21875 -0.21875 -0.21875 -0.53125q0 -0.3125 0.21875 -0.515625q0.21875 -0.21875 0.53125 -0.21875q0.328125 0 0.546875 0.203125q0.21875 0.203125 0.21875 0.515625q0 0.328125 -0.21875 0.546875q-0.203125 0.21875 -0.546875 0.21875zm7.3488007 1.625q0.9375 0 1.640625 0.359375q0.71875 0.359375 1.125 1.09375q0.40625 0.734375 0.40625 1.84375l0 4.46875l-1.046875 0l0 -4.375q0 -1.203125 -0.609375 -1.828125q-0.609375 -0.625 -1.703125 -0.625q-0.8125 0 -1.421875 0.328125q-0.609375 0.328125 -0.953125 0.953125q-0.328125 0.625 -0.328125 1.5l0 4.046875l-1.03125 0l0 -7.6875l1.0 0l0 2.109375l-0.171875 -0.40625q0.375 -0.828125 1.171875 -1.296875q0.8125 -0.484375 1.921875 -0.484375zm10.798279 7.765625l0 -1.703125l-0.03125 -0.28125l0 -2.84375q0 -0.96875 -0.5625 -1.5q-0.546875 -0.53125 -1.625 -0.53125q-0.75 0 -1.4218597 0.25q-0.671875 0.25 -1.140625 0.65625l-0.46875 -0.78125q0.578125 -0.484375 1.390625 -0.75q0.82810974 -0.28125 1.7343597 -0.28125q1.5 0 2.3125 0.75q0.8125 0.734375 0.8125 2.234375l0 4.78125l-1.0 0zm-2.640625 0.078125q-0.87498474 0 -1.5156097 -0.28125q-0.625 -0.296875 -0.96875 -0.796875q-0.328125 -0.515625 -0.328125 -1.171875q0 -0.59375 0.28125 -1.078125q0.28125 -0.5 0.9375 -0.796875q0.65625 -0.3125 1.7499847 -0.3125l2.65625 0l0 0.78125l-2.625 0q-1.1093597 0 -1.5468597 0.40625q-0.4375 0.390625 -0.4375 0.96875q0 0.671875 0.515625 1.0625q0.515625 0.390625 1.4374847 0.390625q0.875 0 1.515625 -0.390625q0.640625 -0.40625 0.9375 -1.171875l0.234375 0.71875q-0.296875 0.765625 -1.03125 1.21875q-0.71875 0.453125 -1.8125 0.453125zm6.475342 -0.078125l0 -10.875l1.03125 0l0 10.875l-1.03125 0z" fill-rule="nonzero"/><path fill="#000000" fill-opacity="0.0" d="m726.32544 184.28609l0.03149414 -43.74803" fill-rule="evenodd"/><path stroke="#000000" stroke-width="1.0" stroke-linejoin="round" stroke-linecap="butt" d="m726.32544 184.28609l0.027160645 -37.74803" fill-rule="evenodd"/><path fill="#000000" stroke="#000000" stroke-width="1.0" stroke-linecap="butt" d="m728.0044 146.53925l-1.6484985 -4.5392914l-1.6549683 4.536911z" fill-rule="evenodd"/><path fill="#000000" fill-opacity="0.0" d="m726.90027 142.06824l44.5354 0l0 38.771652l-44.5354 0z" fill-rule="evenodd"/><path fill="#595959" d="m737.2284 169.53761l0 -14.984375l4.328125 0l0 1.953125l-1.828125 0l0 11.078125l1.828125 0l0 1.953125l-4.328125 0zm10.1848755 -2.921875q-1.53125 0 -2.65625 -0.640625q-1.125 -0.640625 -1.734375 -1.859375q-0.609375 -1.234375 -0.609375 -3.046875q0 -1.9375 0.71875 -3.28125q0.734375 -1.34375 2.015625 -2.046875q1.296875 -0.703125 2.984375 -0.703125q0.890625 0 1.703125 0.1875q0.8125 0.1875 1.40625 0.578125l-0.953125 1.90625q-0.46875 -0.328125 -1.0 -0.4375q-0.53125 -0.125 -1.09375 -0.125q-1.46875 0 -2.3125 0.890625q-0.84375 0.875 -0.84375 2.59375q0 0.296875 0 0.65625q0.015625 0.34375 0.09375 0.6875l-0.71875 -0.671875q0.296875 -0.625 0.78125 -1.046875q0.484375 -0.421875 1.140625 -0.640625q0.671875 -0.21875 1.46875 -0.21875q1.09375 0 1.953125 0.4375q0.859375 0.4375 1.375 1.21875q0.53125 0.78125 0.53125 1.84375q0 1.125 -0.578125 1.96875q-0.5625 0.84375 -1.515625 1.296875q-0.953125 0.453125 -2.15625 0.453125zm-0.140625 -1.9375q0.546875 0 0.96875 -0.1875q0.421875 -0.203125 0.65625 -0.578125q0.25 -0.390625 0.25 -0.890625q0 -0.765625 -0.53125 -1.21875q-0.515625 -0.46875 -1.375 -0.46875q-0.578125 0 -1.015625 0.21875q-0.421875 0.21875 -0.671875 0.59375q-0.25 0.375 -0.25 0.875q0 0.484375 0.234375 0.859375q0.25 0.375 0.671875 0.59375q0.4375 0.203125 1.0625 0.203125zm9.270142 4.859375l-4.328125 0l0 -1.953125l1.828125 0l0 -11.078125l-1.828125 0l0 -1.953125l4.328125 0l0 14.984375z" fill-rule="nonzero"/><path fill="#000000" fill-opacity="0.0" d="m206.35695 276.53806l-0.03149414 43.748047" fill-rule="evenodd"/><path stroke="#000000" stroke-width="1.0" stroke-linejoin="round" stroke-linecap="butt" d="m206.35695 276.53806l-0.027160645 37.748047" fill-rule="evenodd"/><path fill="#000000" stroke="#000000" stroke-width="1.0" stroke-linecap="butt" d="m204.67804 314.2849l1.648468 4.539276l1.6549988 -4.5368958z" fill-rule="evenodd"/><path fill="#000000" fill-opacity="0.0" d="m206.90027 278.06824l50.834625 0l0 38.771667l-50.834625 0z" fill-rule="evenodd"/><path fill="#ff0000" d="m217.2284 305.53763l0 -14.984375l4.328125 0l0 1.953125l-1.828125 0l0 11.078125l1.828125 0l0 1.953125l-4.328125 0zm8.873886 -2.921875q-1.15625 0 -2.3125 -0.3125q-1.15625 -0.3125 -1.953125 -0.890625l1.0 -1.96875q0.640625 0.453125 1.484375 0.734375q0.859375 0.265625 1.71875 0.265625q0.984375 0 1.53125 -0.375q0.5625 -0.390625 0.5625 -1.0625q0 -0.640625 -0.5 -1.0q-0.484375 -0.375 -1.59375 -0.375l-1.171875 0l0 -1.71875l3.109375 -3.53125l0.296875 0.921875l-5.875 0l0 -2.078125l7.84375 0l0 1.6875l-3.109375 3.53125l-1.3125 -0.75l0.75 0q2.0625 0 3.109375 0.9375q1.0625 0.921875 1.0625 2.375q0 0.9375 -0.5 1.765625q-0.484375 0.828125 -1.515625 1.34375q-1.015625 0.5 -2.625 0.5zm9.499512 0q-1.171875 0 -2.328125 -0.3125q-1.140625 -0.3125 -1.953125 -0.890625l1.03125 -1.96875q0.640625 0.453125 1.46875 0.734375q0.84375 0.265625 1.71875 0.265625q0.96875 0 1.53125 -0.375q0.5625 -0.390625 0.5625 -1.078125q0 -0.4375 -0.234375 -0.765625q-0.21875 -0.34375 -0.796875 -0.515625q-0.5625 -0.171875 -1.578125 -0.171875l-2.875 0l0.578125 -6.3125l6.84375 0l0 2.078125l-5.90625 0l1.34375 -1.171875l-0.40625 4.484375l-1.34375 -1.171875l2.375 0q1.65625 0 2.671875 0.453125q1.015625 0.453125 1.484375 1.234375q0.46875 0.78125 0.46875 1.78125q0 0.984375 -0.5 1.828125q-0.5 0.84375 -1.53125 1.359375q-1.03125 0.515625 -2.625 0.515625zm9.64502 2.921875l-4.328125 0l0 -1.953125l1.828125 0l0 -11.078125l-1.828125 0l0 -1.953125l4.328125 0l0 14.984375z" fill-rule="nonzero"/></g></svg>